SplineFontDB: 1.0
FontName: DejaVuSerifCondensed-BoldOblique
FullName: DejaVu Serif Condensed Bold Oblique
FamilyName: DejaVu Serif Condensed
Weight: Bold
Copyright: Copyright (c) 2003 by Bitstream, Inc. All Rights Reserved.\nDejaVu changes are in public domain\n
Version: 1.14
ItalicAngle: -11
UnderlinePosition: -217
UnderlineWidth: 240
Ascent: 1556
Descent: 492
Order2: 1
NeedsXUIDChange: 1
FSType: 0
PfmFamily: 17
TTFWeight: 700
TTFWidth: 5
LineGap: 410
VLineGap: 0
Panose: 2 6 8 6 5 3 5 11 2 4
OS2TypoAscent: 1556
OS2TypoAOffset: 1
OS2TypoDescent: -492
OS2TypoDOffset: 1
OS2TypoLinegap: 0
OS2WinAscent: 1923
OS2WinAOffset: 0
OS2WinDescent: 483
OS2WinDOffset: 0
HheadAscent: 1923
HheadAOffset: 0
HheadDescent: -483
HheadDOffset: 0
OS2Vendor: 'PfEd'
ScriptLang: 2
 1 latn 1 dflt 
 1 DFLT 1 dflt 
TtfTable: prep 1407
\,q1GjNmf-c:\8arWC@O"3D#Ta>*k<]*$'b"3(*=`0LMBrWC"9"2MZA"i,Ng^IJC?0E]":"2#!D
]D_oDrWB_1"1SjD[L*,E'a(fi"1&=:ZTnZ!Yo3eN)?[4I)?m>d"0WUFY+H.,Xu?HbT+(t++Tnf)
"02e3Wi6R6W\O[U&Hf"_"K3pTVj\Y1Vu?dqV%Ns/*<W,N"/M\B"f/a4UN@L[UFQG@F<(OZ]*"b"
)?li6"/$P7T+(moS\#&srWA^]>m6e2".arFS=:f.S6Z5e5QmRF*X/#Z".GVi"e$J7R^iC55lUtT
&HeC/".2=VQQ60o$NlZ["-a5sP8OIcO^nWYrWA:)*<hR9"-AQO"csE#Nsc&N5Qm+,%0_b+"-!`l
N/J#HN%tKn$3Q/+",Vh^"c<3\LiaX@Lj]A[$Nl)(",(b:"b\W5K7Xa?KDkt)E=W5)'*Ec7%0_:]
"+La^Im=-cF<(O6rW@Rr*sI)l"+20mH[<:-Hi=+nH!LT"]*!A0"F55<"aOAUGsDLW,m/?M"*Sc,
"a4Y`F`\W-Fnu2^*<UB^"*/Al"`jSEE=W.kJ-9h0/d64n")fdoDZ0`TrW?sJ")CO3C'k&VrW?d?
"(sk%Ag%7fI04$Z"$hiUCBJ%X"(?T[@/^77('@hM%g?8<"'Z?>=]c[J=Y0_X*<T@u"',d3<)X\=
<0dVb)?WkU"&Vl1"]6QJ:_"$?:_j./%M/e>(B[E,*!K)c"&2>r"\fs=9gAhT%ibaH0`t&Y&-Y]^
"%l,o"\O1F8IYbm7g]DjI02tH"%G]g"\(6L777Of71B>f\Gs?0rrb^u"%,Bl"[eRX65Tej5Rmr`
I02_m#mER("$hA>5<UG!5J%"]4XgOu>m!5#*!JJS"$AX^"[!D"4$!uX3uA&\3=5pN&d(-$"#r4M
"ZUo42`:sG2\-!LJ-7b:"#`CI2)H-R23n>$.gZA9(]uQ#*<e6b"#;;7"Z$&Z0b+:>$k!4m*Wn&@
.0V@`""k`("YLhu/M%J;/X?Ji.gZA1&HaRL"=jc\.OGE).NJU?%0J%E"=PW0"XoZ=-RK*&-P6G.
5QiD>"!o3A"XUb_,SM=),Uig?'-RN(rW=>f$3_W>"!Jcm"X+3T+b0\<#Ql27"<S:#"Wo2r5dVRE

StartChar: .notdef
Encoding: 0 -1 0
AltUni: 0
Width: 1167
Flags: W
Fore
-4.77246 -362 m 1,0,-1
 311.173 1444 l 1,1,-1
 1232.78 1444 l 1,2,-1
 916.828 -362 l 1,3,-1
 -4.77246 -362 l 1,0,-1
118.671 -248 m 1,4,-1
 834.171 -248 l 1,5,-1
 1110.05 1329 l 1,6,-1
 394.555 1329 l 1,7,-1
 118.671 -248 l 1,4,-1
EndSplineSet
EndChar
StartChar: exclam
Encoding: 33 33 33
Width: 855
Flags: W
Fore
180.792 162 m 0,0,1
 194.438 240 194.438 240 254.185 296 c 128,-1,2
 313.933 352 313.933 352 384.132 352 c 0,3,4
 454.332 352 454.332 352 494.935 296 c 128,-1,5
 535.538 240 535.538 240 521.893 162 c 0,6,7
 508.073 83 508.073 83 447.876 27 c 128,-1,8
 387.678 -29 387.678 -29 317.479 -29 c 0,9,10
 247.278 -29 247.278 -29 207.126 27 c 128,-1,11
 166.973 83 166.973 83 180.792 162 c 0,0,1
415.441 1493 m 1,12,-1
 752.941 1493 l 1,13,-1
 498.539 651 l 1,14,-1
 465.301 461 l 1,15,-1
 340.2 461 l 1,16,-1
 373.439 651 l 1,17,-1
 415.441 1493 l 1,12,-1
EndSplineSet
EndChar
StartChar: quotedbl
Encoding: 34 34 34
Width: 1013
Flags: W
Fore
490.696 1493 m 1,0,-1
 393.604 938 l 1,1,-1
 180.304 938 l 1,2,-1
 277.396 1493 l 1,3,-1
 490.696 1493 l 1,0,-1
886.696 1493 m 1,4,-1
 789.604 938 l 1,5,-1
 576.304 938 l 1,6,-1
 673.396 1493 l 1,7,-1
 886.696 1493 l 1,4,-1
EndSplineSet
EndChar
StartChar: numbersign
Encoding: 35 35 35
Width: 1630
Flags: W
Fore
1031.35 872 m 1,0,-1
 793.747 872 l 1,1,-1
 682.813 598 l 1,2,-1
 920.413 598 l 1,3,-1
 1031.35 872 l 1,0,-1
1034.26 1470 m 1,4,-1
 880.51 1085 l 1,5,-1
 1118.11 1085 l 1,6,-1
 1272.76 1470 l 1,7,-1
 1471.66 1470 l 1,8,-1
 1317.01 1085 l 1,9,-1
 1566.31 1085 l 1,10,-1
 1529.05 872 l 1,11,-1
 1232.05 872 l 1,12,-1
 1122.01 598 l 1,13,-1
 1377.61 598 l 1,14,-1
 1340 383 l 1,15,-1
 1037.6 383 l 1,16,-1
 884.198 0 l 1,17,-1
 685.298 0 l 1,18,-1
 838.7 383 l 1,19,-1
 601.101 383 l 1,20,-1
 447.698 0 l 1,21,-1
 246.998 0 l 1,22,-1
 400.4 383 l 1,23,-1
 149.301 383 l 1,24,-1
 186.913 598 l 1,25,-1
 482.113 598 l 1,26,-1
 593.048 872 l 1,27,-1
 338.348 872 l 1,28,-1
 375.61 1085 l 1,29,-1
 679.811 1085 l 1,30,-1
 833.562 1470 l 1,31,-1
 1034.26 1470 l 1,4,-1
EndSplineSet
EndChar
StartChar: dollar
Encoding: 36 36 36
Width: 1351
Flags: W
Fore
144.468 59 m 1,0,-1
 195.376 350 l 1,1,-1
 303.376 350 l 1,2,3
 295.233 216 295.233 216 354.337 150 c 128,-1,4
 413.441 84 413.441 84 543.041 84 c 2,5,-1
 555.642 84 l 1,6,-1
 626.494 489 l 1,7,8
 412.015 544 412.015 544 331.434 639 c 128,-1,9
 250.854 734 250.854 734 279.369 897 c 0,10,11
 310.859 1077 310.859 1077 439.216 1180.5 c 128,-1,12
 567.572 1284 567.572 1284 766.622 1290 c 1,13,-1
 813.681 1559 l 1,14,-1
 922.581 1559 l 1,15,-1
 875.521 1290 l 1,16,17
 975.268 1284 975.268 1284 1063.76 1262.5 c 128,-1,18
 1152.25 1241 1152.25 1241 1232.73 1202 c 1,19,-1
 1185.14 930 l 1,20,-1
 1076.24 930 l 1,21,22
 1082.13 1046 1082.13 1046 1024.57 1110.5 c 128,-1,23
 967.004 1175 967.004 1175 855.753 1177 c 1,24,-1
 790.675 805 l 1,25,26
 1022.46 746 1022.46 746 1103.15 646.5 c 128,-1,27
 1183.84 547 1183.84 547 1152.35 367 c 0,28,29
 1119.99 182 1119.99 182 988.201 79.5 c 128,-1,30
 856.422 -23 856.422 -23 644.772 -29 c 1,31,-1
 597.539 -299 l 1,32,-1
 488.639 -299 l 1,33,-1
 535.873 -29 l 1,34,35
 437.223 -27 437.223 -27 339.371 -5 c 128,-1,36
 241.521 17 241.521 17 144.468 59 c 1,0,-1
747.029 1178 m 1,37,38
 668.604 1167 668.604 1167 616.706 1125 c 128,-1,39
 564.81 1083 564.81 1083 554.138 1022 c 0,40,41
 541.892 952 541.892 952 572.619 909 c 128,-1,42
 603.347 866 603.347 866 687.548 838 c 1,43,-1
 747.029 1178 l 1,37,38
664.541 84 m 1,44,45
 757.366 95 757.366 95 811.775 138.5 c 128,-1,46
 866.187 182 866.187 182 879.132 256 c 0,47,48
 892.077 330 892.077 330 856.825 378 c 128,-1,49
 821.572 426 821.572 426 729.795 457 c 1,50,-1
 664.541 84 l 1,44,45
EndSplineSet
EndChar
StartChar: percent
Encoding: 37 37 37
Width: 1848
Flags: W
Fore
612.89 1419 m 0,0,1
 555.29 1419 555.29 1419 517.931 1349.5 c 128,-1,2
 480.572 1280 480.572 1280 451.532 1114 c 0,3,4
 422.317 947 422.317 947 435.271 877 c 128,-1,5
 448.225 807 448.225 807 505.825 807 c 0,6,7
 564.325 807 564.325 807 601.771 877 c 128,-1,8
 639.218 947 639.218 947 668.433 1114 c 0,9,10
 697.473 1280 697.473 1280 684.431 1349.5 c 128,-1,11
 671.39 1419 671.39 1419 612.89 1419 c 0,0,1
630.56 1520 m 0,12,13
 802.459 1520 802.459 1520 875.527 1415.5 c 128,-1,14
 948.596 1311 948.596 1311 914.133 1114 c 0,15,16
 879.669 917 879.669 917 769.95 812 c 128,-1,17
 660.231 707 660.231 707 488.332 707 c 0,18,19
 317.332 707 317.332 707 244.351 812 c 128,-1,20
 171.368 917 171.368 917 205.832 1114 c 0,21,22
 240.296 1311 240.296 1311 349.927 1415.5 c 128,-1,23
 459.56 1520 459.56 1520 630.56 1520 c 0,12,13
1451.36 1520 m 1,24,-1
 1606.16 1520 l 1,25,-1
 494.573 -29 l 1,26,-1
 339.773 -29 l 1,27,-1
 1451.36 1520 l 1,24,-1
1456.7 784 m 0,28,29
 1628.6 784 1628.6 784 1701.22 679.5 c 128,-1,30
 1773.84 575 1773.84 575 1739.55 379 c 0,31,32
 1705.09 182 1705.09 182 1595.73 76.5 c 128,-1,33
 1486.37 -29 1486.37 -29 1314.47 -29 c 0,34,35
 1143.47 -29 1143.47 -29 1070.58 76.5 c 128,-1,36
 997.689 182 997.689 182 1032.15 379 c 0,37,38
 1066.44 575 1066.44 575 1176.07 679.5 c 128,-1,39
 1285.7 784 1285.7 784 1456.7 784 c 0,28,29
1439.21 684 m 0,40,41
 1380.71 684 1380.71 684 1343.35 614.5 c 128,-1,42
 1305.99 545 1305.99 545 1276.95 379 c 0,43,44
 1247.74 212 1247.74 212 1261.14 142 c 128,-1,45
 1274.54 72 1274.54 72 1332.14 72 c 0,46,47
 1390.64 72 1390.64 72 1428.09 142 c 128,-1,48
 1465.54 212 1465.54 212 1494.75 379 c 0,49,50
 1523.79 545 1523.79 545 1510.75 614.5 c 128,-1,51
 1497.71 684 1497.71 684 1439.21 684 c 0,40,41
EndSplineSet
EndChar
StartChar: ampersand
Encoding: 38 38 38
Width: 1756
Flags: W
Fore
1592.46 0 m 1,0,-1
 1161.36 0 l 1,1,-1
 1069.98 131 l 1,2,3
 965.984 51 965.984 51 850.087 11 c 128,-1,4
 734.188 -29 734.188 -29 605.488 -29 c 0,5,6
 335.488 -29 335.488 -29 205.331 99 c 128,-1,7
 75.1738 227 75.1738 227 114.361 451 c 0,8,9
 142.877 614 142.877 614 240.933 729.5 c 128,-1,10
 338.988 845 338.988 845 520.009 928 c 1,11,12
 485.83 995 485.83 995 473.551 1056 c 128,-1,13
 461.272 1117 461.272 1117 471.244 1174 c 0,14,15
 499.935 1338 499.935 1338 639.604 1429 c 128,-1,16
 779.274 1520 779.274 1520 1003.38 1520 c 0,17,18
 1069.98 1520 1069.98 1520 1156.52 1508 c 128,-1,19
 1243.07 1496 1243.07 1496 1350.65 1473 c 1,20,-1
 1296.07 1161 l 1,21,-1
 1179.97 1161 l 1,22,23
 1185.46 1285 1185.46 1285 1143.24 1342 c 128,-1,24
 1101.01 1399 1101.01 1399 1004.71 1399 c 0,25,26
 913.806 1399 913.806 1399 853.209 1351 c 128,-1,27
 792.611 1303 792.611 1303 778.267 1221 c 0,28,29
 762.172 1129 762.172 1129 891.433 947 c 0,30,31
 905.934 927 905.934 927 913.358 918 c 1,32,-1
 1243.04 436 l 1,33,34
 1308.94 504 1308.94 504 1355.11 593 c 128,-1,35
 1401.28 682 1401.28 682 1429.14 795 c 1,36,-1
 1265.34 795 l 1,37,-1
 1286.34 915 l 1,38,-1
 1736.34 915 l 1,39,-1
 1715.34 795 l 1,40,-1
 1556.94 795 l 1,41,42
 1516.1 649 1516.1 649 1455.38 536 c 128,-1,43
 1394.66 423 1394.66 423 1312.84 336 c 1,44,-1
 1460.63 121 l 1,45,-1
 1613.63 121 l 1,46,-1
 1592.46 0 l 1,0,-1
1002.52 229 m 1,47,-1
 596.89 817 l 1,48,49
 535.669 750 535.669 750 497.261 674.5 c 128,-1,50
 458.853 599 458.853 599 444.332 516 c 0,51,52
 414.767 347 414.767 347 491.548 238 c 128,-1,53
 568.329 129 568.329 129 715.929 129 c 0,54,55
 786.129 129 786.129 129 856.565 153.5 c 128,-1,56
 927.002 178 927.002 178 1002.52 229 c 1,47,-1
EndSplineSet
EndChar
StartChar: quotesingle
Encoding: 39 39 39
Width: 595
Flags: W
Fore
468.696 1493 m 1,0,-1
 371.604 938 l 1,1,-1
 158.304 938 l 1,2,-1
 255.396 1493 l 1,3,-1
 468.696 1493 l 1,0,-1
EndSplineSet
EndChar
StartChar: parenleft
Encoding: 40 40 40
Width: 932
Flags: W
Fore
672.445 -319 m 1,0,1
 391.013 -194 391.013 -194 282.374 39 c 128,-1,2
 173.735 272 173.735 272 234.266 618 c 0,3,4
 294.796 964 294.796 964 482.633 1194 c 128,-1,5
 670.469 1424 670.469 1424 1000.46 1556 c 1,6,-1
 979.473 1436 l 1,7,8
 820.474 1340 820.474 1340 724.947 1151.5 c 128,-1,9
 629.421 963 629.421 963 569.065 618 c 0,10,11
 508.886 274 508.886 274 538.46 85.5 c 128,-1,12
 568.033 -103 568.033 -103 693.438 -199 c 1,13,-1
 672.445 -319 l 1,0,1
EndSplineSet
EndChar
StartChar: parenright
Encoding: 41 41 41
Width: 908
Flags: W
Fore
-34.416 -319 m 1,0,-1
 -13.4229 -199 l 1,1,2
 145.572 -103 145.572 -103 241.099 85.5 c 128,-1,3
 336.625 274 336.625 274 396.805 618 c 0,4,5
 457.16 963 457.16 963 427.586 1151.5 c 128,-1,6
 398.013 1340 398.013 1340 272.608 1436 c 1,7,-1
 293.601 1556 l 1,8,9
 577.408 1424 577.408 1424 685.222 1194 c 128,-1,10
 793.035 964 793.035 964 732.505 618 c 0,11,12
 671.975 272 671.975 272 481.363 39 c 128,-1,13
 290.752 -194 290.752 -194 -34.416 -319 c 1,0,-1
EndSplineSet
EndChar
StartChar: asterisk
Encoding: 42 42 42
Width: 1017
Flags: W
Fore
1006.22 1212 m 1,0,-1
 652.833 1044 l 1,1,-1
 947.093 874 l 1,2,-1
 831.777 719 l 1,3,-1
 578.39 958 l 1,4,-1
 534.636 569 l 1,5,-1
 369.936 569 l 1,6,-1
 462.289 958 l 1,7,-1
 125.277 719 l 1,8,-1
 64.1934 874 l 1,9,-1
 418.833 1044 l 1,10,-1
 123.323 1212 l 1,11,-1
 239.165 1370 l 1,12,-1
 492.028 1128 l 1,13,-1
 536.306 1520 l 1,14,-1
 701.006 1520 l 1,15,-1
 608.128 1128 l 1,16,-1
 945.665 1370 l 1,17,-1
 1006.22 1212 l 1,0,-1
EndSplineSet
EndChar
StartChar: plus
Encoding: 43 43 43
Width: 1630
Flags: W
Fore
1073.64 1284 m 1,0,-1
 981.618 758 l 1,1,-1
 1455.01 758 l 1,2,-1
 1414.79 528 l 1,3,-1
 941.381 528 l 1,4,-1
 849.361 2 l 1,5,-1
 642.361 2 l 1,6,-1
 734.381 528 l 1,7,-1
 260.981 528 l 1,8,-1
 301.219 758 l 1,9,-1
 774.618 758 l 1,10,-1
 866.638 1284 l 1,11,-1
 1073.64 1284 l 1,0,-1
EndSplineSet
EndChar
StartChar: comma
Encoding: 44 44 44
Width: 670
Flags: W
Fore
19.9189 -197 m 1,0,1
 128.214 -113 128.214 -113 190.509 -9 c 128,-1,2
 252.801 95 252.801 95 276.944 233 c 2,3,-1
 291.989 319 l 1,4,-1
 548.489 319 l 1,5,-1
 547.09 311 l 2,6,7
 508.428 90 508.428 90 397.273 -69.5 c 128,-1,8
 286.121 -229 286.121 -229 94.252 -338 c 1,9,-1
 19.9189 -197 l 1,0,1
EndSplineSet
EndChar
StartChar: hyphen
Encoding: 45 45 45
Width: 807
Flags: W
Fore
166.017 684 m 1,0,-1
 731.217 684 l 1,1,-1
 683.983 414 l 1,2,-1
 118.783 414 l 1,3,-1
 166.017 684 l 1,0,-1
EndSplineSet
KernsSLIFO: 356 -339 0 0 221 -225 0 0 376 -225 0 0 89 -225 0 0 88 -149 0 0 87 -112 0 0 86 -149 0 0 84 -339 0 0
EndChar
StartChar: period
Encoding: 46 46 46
Width: 677
Flags: W
Fore
185.144 162 m 0,0,1
 198.789 240 198.789 240 258.986 296 c 128,-1,2
 319.182 352 319.182 352 389.382 352 c 0,3,4
 460.481 352 460.481 352 501.086 296 c 128,-1,5
 541.688 240 541.688 240 528.044 162 c 0,6,7
 514.223 83 514.223 83 454.025 27 c 128,-1,8
 393.829 -29 393.829 -29 322.729 -29 c 0,9,10
 252.529 -29 252.529 -29 211.925 27 c 128,-1,11
 171.322 83 171.322 83 185.144 162 c 0,0,1
EndSplineSet
EndChar
StartChar: slash
Encoding: 47 47 47
Width: 710
Flags: W
Fore
658.014 1493 m 1,0,-1
 857.813 1493 l 1,1,-1
 89.0859 -190 l 1,2,-1
 -109.813 -190 l 1,3,-1
 658.014 1493 l 1,0,-1
EndSplineSet
EndChar
StartChar: zero
Encoding: 48 48 48
Width: 1353
Flags: W
Fore
597.916 88 m 0,0,1
 705.916 88 705.916 88 765.036 197 c 128,-1,2
 824.154 306 824.154 306 900.953 745 c 0,3,4
 977.226 1181 977.226 1181 956.597 1292 c 128,-1,5
 935.966 1403 935.966 1403 827.966 1403 c 0,6,7
 719.966 1403 719.966 1403 660.847 1294 c 128,-1,8
 601.728 1185 601.728 1185 524.753 745 c 0,9,10
 447.954 306 447.954 306 468.936 197 c 128,-1,11
 489.916 88 489.916 88 597.916 88 c 0,0,1
577.448 -29 m 0,12,13
 308.348 -29 308.348 -29 200.148 170.5 c 128,-1,14
 91.9502 370 91.9502 370 157.553 745 c 0,15,16
 223.157 1120 223.157 1120 401.246 1320 c 128,-1,17
 579.334 1520 579.334 1520 848.435 1520 c 0,18,19
 1116.64 1520 1116.64 1520 1224.74 1320 c 128,-1,20
 1332.86 1120 1332.86 1120 1267.25 745 c 0,21,22
 1201.65 370 1201.65 370 1023.65 170.5 c 128,-1,23
 845.647 -29 845.647 -29 577.448 -29 c 0,12,13
EndSplineSet
EndChar
StartChar: one
Encoding: 49 49 49
Width: 1344
Flags: W
Fore
181.447 0 m 1,0,-1
 202.615 121 l 1,1,-1
 454.615 121 l 1,2,-1
 665.945 1329 l 1,3,-1
 353.855 1145 l 1,4,-1
 379.922 1294 l 1,5,-1
 756.959 1520 l 1,6,-1
 1040.46 1520 l 1,7,-1
 795.715 121 l 1,8,-1
 1048.61 121 l 1,9,-1
 1027.45 0 l 1,10,-1
 181.447 0 l 1,0,-1
EndSplineSet
EndChar
StartChar: two
Encoding: 50 50 50
Width: 1347
Flags: W
Fore
371.555 1124 m 1,0,-1
 263.555 1124 l 1,1,-1
 319.886 1446 l 1,2,3
 436.158 1483 436.158 1483 546.944 1501.5 c 128,-1,4
 657.731 1520 657.731 1520 767.531 1520 c 0,5,6
 1024.03 1520 1024.03 1520 1147.2 1403.5 c 128,-1,7
 1270.37 1287 1270.37 1287 1233.98 1079 c 0,8,9
 1208.09 931 1208.09 931 1108.33 813.5 c 128,-1,10
 1008.58 696 1008.58 696 757.214 535 c 1,11,-1
 335.053 262 l 1,12,-1
 971.355 262 l 1,13,-1
 1002.14 438 l 1,14,-1
 1125.44 438 l 1,15,-1
 1048.82 0 l 1,16,-1
 55.2188 0 l 1,17,-1
 97.9053 244 l 1,18,-1
 323.571 397 l 2,19,20
 612.385 592 612.385 592 720.952 729 c 128,-1,21
 829.519 866 829.519 866 861.533 1049 c 0,22,23
 891.799 1222 891.799 1222 843.281 1312.5 c 128,-1,24
 794.763 1403 794.763 1403 671.463 1403 c 0,25,26
 565.263 1403 565.263 1403 488.854 1331.5 c 128,-1,27
 412.446 1260 412.446 1260 371.555 1124 c 1,0,-1
EndSplineSet
EndChar
StartChar: three
Encoding: 51 51 51
Width: 1348
Flags: W
Fore
347.979 1450 m 1,0,1
 472.902 1485 472.902 1485 587.564 1502.5 c 128,-1,2
 702.227 1520 702.227 1520 808.426 1520 c 0,3,4
 1051.43 1520 1051.43 1520 1164.59 1423.5 c 128,-1,5
 1277.76 1327 1277.76 1327 1246.27 1147 c 0,6,7
 1222.65 1012 1222.65 1012 1133.26 928 c 128,-1,8
 1043.87 844 1043.87 844 894.792 815 c 1,9,10
 1064.87 784 1064.87 784 1133.43 682 c 128,-1,11
 1201.98 580 1201.98 580 1171.01 403 c 0,12,13
 1134.45 194 1134.45 194 965.996 82.5 c 128,-1,14
 797.54 -29 797.54 -29 514.939 -29 c 0,15,16
 408.74 -29 408.74 -29 299.289 -9 c 128,-1,17
 189.838 11 189.838 11 73.5361 51 c 1,18,-1
 130.917 379 l 1,19,-1
 239.817 379 l 1,20,21
 224.874 237 224.874 237 282.042 162.5 c 128,-1,22
 339.209 88 339.209 88 463.408 88 c 0,23,24
 600.209 88 600.209 88 689.691 172.5 c 128,-1,25
 779.174 257 779.174 257 806.29 412 c 0,26,27
 834.631 574 834.631 574 772.176 662 c 128,-1,28
 709.721 750 709.721 750 566.62 750 c 2,29,-1
 507.221 750 l 1,30,-1
 528.213 870 l 1,31,-1
 575.013 870 l 2,32,33
 707.313 870 707.313 870 785.81 938 c 128,-1,34
 864.306 1006 864.306 1006 887.922 1141 c 0,35,36
 910.14 1268 910.14 1268 859.399 1335.5 c 128,-1,37
 808.657 1403 808.657 1403 691.657 1403 c 0,38,39
 585.457 1403 585.457 1403 512.074 1338.5 c 128,-1,40
 438.69 1274 438.69 1274 404.572 1151 c 1,41,-1
 295.672 1151 l 1,42,-1
 347.979 1450 l 1,0,1
EndSplineSet
EndChar
StartChar: four
Encoding: 52 52 52
Width: 1347
Flags: W
Fore
1108.71 0 m 1,0,-1
 368.914 0 l 1,1,-1
 390.082 121 l 1,2,-1
 589.882 121 l 1,3,-1
 637.466 393 l 1,4,-1
 76.7656 393 l 1,5,-1
 96.8848 508 l 1,6,-1
 836.426 1520 l 1,7,-1
 1174.83 1520 l 1,8,-1
 1000.24 522 l 1,9,-1
 1230.64 522 l 1,10,-1
 1208.06 393 l 1,11,-1
 977.664 393 l 1,12,-1
 930.082 121 l 1,13,-1
 1129.88 121 l 1,14,-1
 1108.71 0 l 1,0,-1
660.033 522 m 1,15,-1
 786.867 1247 l 1,16,-1
 259.533 522 l 1,17,-1
 660.033 522 l 1,15,-1
EndSplineSet
EndChar
StartChar: five
Encoding: 53 53 53
Width: 1349
Flags: W
Fore
1239.58 1493 m 1,0,-1
 1193.75 1231 l 1,1,-1
 474.644 1231 l 1,2,-1
 417.262 903 l 1,3,4
 485.584 954 485.584 954 563.032 980 c 128,-1,5
 640.48 1006 640.48 1006 721.48 1006 c 0,6,7
 969.881 1006 969.881 1006 1089.47 866.5 c 128,-1,8
 1209.07 727 1209.07 727 1167.09 487 c 0,9,10
 1124.4 243 1124.4 243 956.608 107 c 128,-1,11
 788.815 -29 788.815 -29 529.615 -29 c 0,12,13
 419.815 -29 419.815 -29 314.864 -9 c 128,-1,14
 209.914 11 209.914 11 99.3604 53 c 1,15,-1
 156.393 379 l 1,16,-1
 264.393 379 l 1,17,18
 244.076 232 244.076 232 294.93 160 c 128,-1,19
 345.784 88 345.784 88 469.984 88 c 0,20,21
 602.284 88 602.284 88 683.416 186.5 c 128,-1,22
 764.548 285 764.548 285 799.886 487 c 0,23,24
 834.7 686 834.7 686 789.381 784.5 c 128,-1,25
 744.063 883 744.063 883 617.164 883 c 0,26,27
 548.764 883 548.764 883 489.703 851.5 c 128,-1,28
 430.642 820 430.642 820 373.195 754 c 1,29,-1
 283.195 754 l 1,30,-1
 412.479 1493 l 1,31,-1
 1239.58 1493 l 1,0,-1
EndSplineSet
EndChar
StartChar: six
Encoding: 54 54 54
Width: 1356
Flags: W
Fore
551.521 885 m 1,0,1
 619.118 937 619.118 937 696.115 963 c 128,-1,2
 773.115 989 773.115 989 858.615 989 c 0,3,4
 1064.71 989 1064.71 989 1158.72 855 c 128,-1,5
 1252.73 721 1252.73 721 1211.79 487 c 0,6,7
 1168.58 240 1168.58 240 1012.76 105.5 c 128,-1,8
 856.923 -29 856.923 -29 613.023 -29 c 0,9,10
 337.623 -29 337.623 -29 228.149 155.5 c 128,-1,11
 118.677 340 118.677 340 181.307 698 c 0,12,13
 252.508 1105 252.508 1105 446.309 1312.5 c 128,-1,14
 640.109 1520 640.109 1520 949.709 1520 c 0,15,16
 1030.71 1520 1030.71 1520 1120.78 1505 c 128,-1,17
 1210.86 1490 1210.86 1490 1311.81 1460 c 1,18,-1
 1265.63 1196 l 1,19,-1
 1156.73 1196 l 1,20,21
 1152.08 1298 1152.08 1298 1098.71 1350.5 c 128,-1,22
 1045.34 1403 1045.34 1403 946.341 1403 c 0,23,24
 786.141 1403 786.141 1403 693.248 1281 c 128,-1,25
 600.354 1159 600.354 1159 551.521 885 c 1,0,1
612.792 88 m 0,26,27
 705.492 88 705.492 88 760.398 175.5 c 128,-1,28
 815.307 263 815.307 263 853.094 479 c 0,29,30
 890.882 695 890.882 695 866.589 782.5 c 128,-1,31
 842.296 870 842.296 870 749.596 870 c 0,32,33
 656.896 870 656.896 870 602.439 782.5 c 128,-1,34
 547.981 695 547.981 695 510.193 479 c 0,35,36
 472.407 263 472.407 263 496.249 175.5 c 128,-1,37
 520.092 88 520.092 88 612.792 88 c 0,26,27
EndSplineSet
EndChar
StartChar: seven
Encoding: 55 55 55
Width: 1363
Flags: W
Fore
1296.3 1239 m 1,0,-1
 525.153 0 l 1,1,-1
 342.453 0 l 1,2,-1
 1094.14 1210 l 1,3,-1
 430.833 1210 l 1,4,-1
 395.493 1008 l 1,5,-1
 272.193 1008 l 1,6,-1
 357.04 1493 l 1,7,-1
 1340.74 1493 l 1,8,-1
 1296.3 1239 l 1,0,-1
EndSplineSet
EndChar
StartChar: eight
Encoding: 56 56 56
Width: 1351
Flags: W
Fore
934.377 795 m 1,0,1
 1089.5 766 1089.5 766 1154.91 664 c 128,-1,2
 1220.31 562 1220.31 562 1191.45 397 c 0,3,4
 1155.42 191 1155.42 191 996.214 81 c 128,-1,5
 837.024 -29 837.024 -29 573.324 -29 c 0,6,7
 309.624 -29 309.624 -29 188.468 81 c 128,-1,8
 67.3115 191 67.3115 191 103.35 397 c 0,9,10
 132.215 562 132.215 562 233.76 664 c 128,-1,11
 335.303 766 335.303 766 499.677 795 c 1,12,13
 364.674 831 364.674 831 309.258 915.5 c 128,-1,14
 253.84 1000 253.84 1000 276.582 1130 c 0,15,16
 309.822 1320 309.822 1320 455.115 1420 c 128,-1,17
 600.41 1520 600.41 1520 844.311 1520 c 0,18,19
 1087.31 1520 1087.31 1520 1198.07 1420 c 128,-1,20
 1308.82 1320 1308.82 1320 1275.58 1130 c 0,21,22
 1252.84 1000 1252.84 1000 1167.4 915.5 c 128,-1,23
 1081.98 831 1081.98 831 934.377 795 c 1,0,1
926.583 1126 m 0,24,25
 954.224 1284 954.224 1284 930.433 1343.5 c 128,-1,26
 906.642 1403 906.642 1403 823.842 1403 c 0,27,28
 740.142 1403 740.142 1403 695.982 1343.5 c 128,-1,29
 651.824 1284 651.824 1284 624.183 1126 c 0,30,31
 596.717 969 596.717 969 620.232 910.5 c 128,-1,32
 643.748 852 643.748 852 727.448 852 c 0,33,34
 811.148 852 811.148 852 855.132 910.5 c 128,-1,35
 899.117 969 899.117 969 926.583 1126 c 0,24,25
837.123 414 m 0,36,37
 869.139 597 869.139 597 839.359 666 c 128,-1,38
 809.58 735 809.58 735 706.98 735 c 0,39,40
 603.48 735 603.48 735 550.01 666 c 128,-1,41
 496.539 597 496.539 597 464.523 414 c 0,42,43
 432.16 229 432.16 229 461.676 158.5 c 128,-1,44
 491.192 88 491.192 88 593.793 88 c 0,45,46
 695.492 88 695.492 88 750.125 158.5 c 128,-1,47
 804.76 229 804.76 229 837.123 414 c 0,36,37
EndSplineSet
EndChar
StartChar: nine
Encoding: 57 57 57
Width: 1351
Flags: W
Fore
812.199 1403 m 0,0,1
 719.5 1403 719.5 1403 665.043 1315.5 c 128,-1,2
 610.584 1228 610.584 1228 572.798 1012 c 0,3,4
 535.01 796 535.01 796 558.853 708.5 c 128,-1,5
 582.695 621 582.695 621 675.396 621 c 0,6,7
 768.095 621 768.095 621 823.002 708.5 c 128,-1,8
 877.909 796 877.909 796 915.698 1012 c 0,9,10
 953.484 1228 953.484 1228 929.192 1315.5 c 128,-1,11
 904.899 1403 904.899 1403 812.199 1403 c 0,0,1
873.82 608 m 1,12,13
 805.149 555 805.149 555 728.062 528.5 c 128,-1,14
 650.977 502 650.977 502 566.376 502 c 0,15,16
 361.177 502 361.177 502 267.081 635.5 c 128,-1,17
 172.986 769 172.986 769 214.098 1004 c 0,18,19
 257.483 1252 257.483 1252 412.326 1386 c 128,-1,20
 567.168 1520 567.168 1520 811.068 1520 c 0,21,22
 1086.47 1520 1086.47 1520 1196.31 1335 c 128,-1,23
 1306.14 1150 1306.14 1150 1243.68 793 c 0,24,25
 1172.48 386 1172.48 386 978.687 178.5 c 128,-1,26
 784.882 -29 784.882 -29 475.282 -29 c 0,27,28
 394.282 -29 394.282 -29 304.206 -14 c 128,-1,29
 214.131 1 214.131 1 113.179 31 c 1,30,-1
 159.364 295 l 1,31,-1
 268.264 295 l 1,32,33
 272.919 193 272.919 193 326.285 140.5 c 128,-1,34
 379.65 88 379.65 88 479.551 88 c 0,35,36
 637.951 88 637.951 88 731.382 210.5 c 128,-1,37
 824.812 333 824.812 333 873.82 608 c 1,12,13
EndSplineSet
EndChar
StartChar: colon
Encoding: 58 58 58
Width: 718
Flags: W
Fore
263.889 813 m 0,0,1
 277.709 892 277.709 892 337.455 948 c 128,-1,2
 397.202 1004 397.202 1004 467.401 1004 c 0,3,4
 537.602 1004 537.602 1004 578.118 947.5 c 128,-1,5
 618.634 891 618.634 891 604.988 813 c 0,6,7
 591.343 735 591.343 735 531.771 680 c 128,-1,8
 472.199 625 472.199 625 401.1 625 c 0,9,10
 330 625 330 625 290.12 680 c 128,-1,11
 250.242 735 250.242 735 263.889 813 c 0,0,1
150.001 162 m 0,12,13
 163.646 240 163.646 240 223.393 296 c 128,-1,14
 283.14 352 283.14 352 353.339 352 c 0,15,16
 423.539 352 423.539 352 464.143 296 c 128,-1,17
 504.746 240 504.746 240 491.101 162 c 0,18,19
 477.28 83 477.28 83 417.084 27 c 128,-1,20
 356.887 -29 356.887 -29 286.688 -29 c 0,21,22
 216.487 -29 216.487 -29 176.334 27 c 128,-1,23
 136.18 83 136.18 83 150.001 162 c 0,12,13
EndSplineSet
EndChar
StartChar: semicolon
Encoding: 59 59 59
Width: 711
Flags: W
Fore
283.188 813 m 0,0,1
 297.008 892 297.008 892 356.755 948 c 128,-1,2
 416.501 1004 416.501 1004 486.7 1004 c 0,3,4
 556.9 1004 556.9 1004 597.417 947.5 c 128,-1,5
 637.933 891 637.933 891 624.287 813 c 0,6,7
 610.642 735 610.642 735 551.07 680 c 128,-1,8
 491.498 625 491.498 625 420.397 625 c 0,9,10
 349.298 625 349.298 625 309.421 680 c 128,-1,11
 269.541 735 269.541 735 283.188 813 c 0,0,1
-13.4297 -188 m 1,12,13
 95.5908 -105 95.5908 -105 157.797 -1.5 c 128,-1,14
 220.003 102 220.003 102 244.146 240 c 2,15,-1
 259.541 328 l 1,16,-1
 516.041 328 l 1,17,18
 476.679 103 476.679 103 364.638 -59 c 128,-1,19
 252.597 -221 252.597 -221 61.6289 -330 c 1,20,-1
 -13.4297 -188 l 1,12,13
EndSplineSet
EndChar
StartChar: less
Encoding: 60 60 60
Width: 1634
Flags: W
Fore
1498.28 979 m 1,0,-1
 558.047 641 l 1,1,-1
 1380.37 305 l 1,2,-1
 1338.56 66 l 1,3,-1
 265.929 530 l 1,4,-1
 305.466 756 l 1,5,-1
 1540.26 1219 l 1,6,-1
 1498.28 979 l 1,0,-1
EndSplineSet
EndChar
StartChar: equal
Encoding: 61 61 61
Width: 1630
Flags: W
Fore
261.157 528 m 1,0,-1
 1414.96 528 l 1,1,-1
 1375.25 301 l 1,2,-1
 221.445 301 l 1,3,-1
 261.157 528 l 1,0,-1
340.755 983 m 1,4,-1
 1494.55 983 l 1,5,-1
 1454.84 756 l 1,6,-1
 301.043 756 l 1,7,-1
 340.755 983 l 1,4,-1
EndSplineSet
EndChar
StartChar: greater
Encoding: 62 62 62
Width: 1625
Flags: W
Fore
335.468 979 m 1,0,-1
 377.455 1219 l 1,1,-1
 1450.25 756 l 1,2,-1
 1410.72 530 l 1,3,-1
 175.745 66 l 1,4,-1
 217.557 305 l 1,5,-1
 1157.44 641 l 1,6,-1
 335.468 979 l 1,0,-1
EndSplineSet
EndChar
StartChar: question
Encoding: 63 63 63
Width: 1149
Flags: W
Fore
275.559 162 m 0,0,1
 289.204 240 289.204 240 349.4 296 c 128,-1,2
 409.599 352 409.599 352 479.798 352 c 0,3,4
 550.898 352 550.898 352 591.501 296 c 128,-1,5
 632.104 240 632.104 240 618.459 162 c 0,6,7
 604.638 83 604.638 83 544.441 27 c 128,-1,8
 484.244 -29 484.244 -29 413.145 -29 c 0,9,10
 342.944 -29 342.944 -29 302.342 27 c 128,-1,11
 261.738 83 261.738 83 275.559 162 c 0,0,1
313.135 1452 m 1,12,13
 430.682 1486 430.682 1486 534.456 1503 c 128,-1,14
 638.23 1520 638.23 1520 732.73 1520 c 0,15,16
 959.53 1520 959.53 1520 1061.7 1409.5 c 128,-1,17
 1163.87 1299 1163.87 1299 1128 1094 c 0,18,19
 1092.67 892 1092.67 892 954.835 775.5 c 128,-1,20
 817.006 659 817.006 659 593.356 641 c 1,21,-1
 557.492 436 l 1,22,-1
 432.393 436 l 1,23,-1
 484.7 735 l 1,24,25
 618.223 778 618.223 778 692.817 870 c 128,-1,26
 767.412 962 767.412 962 794.354 1116 c 0,27,28
 819.546 1260 819.546 1260 777.504 1333.5 c 128,-1,29
 735.462 1407 735.462 1407 628.362 1407 c 0,30,31
 529.362 1407 529.362 1407 464.266 1341 c 128,-1,32
 399.17 1275 399.17 1275 368.327 1145 c 1,33,-1
 259.427 1145 l 1,34,-1
 313.135 1452 l 1,12,13
EndSplineSet
EndChar
StartChar: at
Encoding: 64 64 64
Width: 1946
Flags: W
Fore
1241.17 504 m 2,0,-1
 1254.48 580 l 2,1,2
 1277.04 709 1277.04 709 1234.97 787.5 c 128,-1,3
 1192.91 866 1192.91 866 1102.01 866 c 0,4,5
 1012.91 866 1012.91 866 943.149 778.5 c 128,-1,6
 873.392 691 873.392 691 847.5 543 c 0,7,8
 821.608 395 821.608 395 860.663 307 c 128,-1,9
 899.719 219 899.719 219 988.818 219 c 0,10,11
 1079.71 219 1079.71 219 1149.08 296.5 c 128,-1,12
 1218.43 374 1218.43 374 1241.17 504 c 2,0,-1
1195 240 m 1,13,14
 1142.79 168 1142.79 168 1071.8 130 c 128,-1,15
 1000.8 92 1000.8 92 919.802 92 c 0,16,17
 747.901 92 747.901 92 670.794 212 c 128,-1,18
 593.688 332 593.688 332 630.6 543 c 0,19,20
 667.514 754 667.514 754 786.52 873.5 c 128,-1,21
 905.524 993 905.524 993 1077.43 993 c 0,22,23
 1158.43 993 1158.43 993 1216.13 955 c 128,-1,24
 1273.83 917 1273.83 917 1301.01 846 c 1,25,-1
 1322.88 971 l 1,26,-1
 1519.98 971 l 1,27,-1
 1390.17 229 l 1,28,29
 1525.69 268 1525.69 268 1616.36 385 c 128,-1,30
 1707.02 502 1707.02 502 1737.82 678 c 0,31,32
 1762.83 821 1762.83 821 1733.8 938 c 128,-1,33
 1704.77 1055 1704.77 1055 1619.87 1151 c 0,34,35
 1550.71 1229 1550.71 1229 1446.46 1271 c 128,-1,36
 1342.21 1313 1342.21 1313 1216.21 1313 c 0,37,38
 1099.21 1313 1099.21 1313 991.382 1278 c 128,-1,39
 883.561 1243 883.561 1243 786.89 1174 c 0,40,41
 640.545 1068 640.545 1068 543.004 904 c 128,-1,42
 445.464 740 445.464 740 411 543 c 0,43,44
 383.884 388 383.884 388 403.479 250.5 c 128,-1,45
 423.075 113 423.075 113 485.507 12 c 0,46,47
 560.988 -107 560.988 -107 675.866 -168 c 128,-1,48
 790.745 -229 790.745 -229 937.445 -229 c 0,49,50
 1047.24 -229 1047.24 -229 1155.79 -195 c 128,-1,51
 1264.34 -161 1264.34 -161 1368.76 -94 c 1,52,-1
 1403.62 -188 l 1,53,54
 1273.72 -272 1273.72 -272 1141.72 -314 c 128,-1,55
 1009.73 -356 1009.73 -356 880.127 -356 c 0,56,57
 705.526 -356 705.526 -356 570.748 -293 c 128,-1,58
 435.97 -230 435.97 -230 343.713 -104 c 0,59,60
 252.005 20 252.005 20 221.558 185.5 c 128,-1,61
 191.111 351 191.111 351 224.7 543 c 0,62,63
 258.29 735 258.29 735 346.555 900 c 128,-1,64
 434.82 1065 434.82 1065 570.088 1190 c 0,65,66
 707.33 1316 707.33 1316 865.327 1378 c 128,-1,67
 1023.32 1440 1023.32 1440 1207.82 1440 c 0,68,69
 1368.02 1440 1368.02 1440 1490.94 1391.5 c 128,-1,70
 1613.86 1343 1613.86 1343 1700.21 1245 c 1,71,72
 1800.49 1134 1800.49 1134 1835.05 992 c 128,-1,73
 1869.61 850 1869.61 850 1839.17 676 c 0,74,75
 1790.89 400 1790.89 400 1621.74 246 c 128,-1,76
 1452.6 92 1452.6 92 1197 92 c 2,77,-1
 1169.1 92 l 1,78,-1
 1195 240 l 1,13,14
EndSplineSet
EndChar
StartChar: A
Encoding: 65 65 65
Width: 1496
Flags: W
Fore
-78.5273 0 m 1,0,-1
 -57.3604 121 l 1,1,-1
 52.4395 121 l 1,2,-1
 798.26 1493 l 1,3,-1
 1013.36 1493 l 1,4,-1
 1280.04 121 l 1,5,-1
 1407.84 121 l 1,6,-1
 1386.68 0 l 1,7,-1
 757.572 0 l 1,8,-1
 778.739 121 l 1,9,-1
 910.14 121 l 1,10,-1
 852.797 426 l 1,11,-1
 347.896 426 l 1,12,-1
 182.039 121 l 1,13,-1
 342.239 121 l 1,14,-1
 321.072 0 l 1,15,-1
 -78.5273 0 l 1,0,-1
413.165 547 m 1,16,-1
 829.864 547 l 1,17,-1
 722.757 1118 l 1,18,-1
 413.165 547 l 1,16,-1
EndSplineSet
KernsSLIFO: 357 -36 0 0 356 -112 0 0 253 -83 0 0 221 -102 0 0 64258 -36 0 0 64257 -36 0 0 376 -102 0 0 255 -83 0 0 8217 -243 0 0 8221 -243 0 0 121 -83 0 0 119 -83 0 0 118 -83 0 0 116 -36 0 0 102 -36 0 0 89 -102 0 0 87 -102 0 0 86 -149 0 0 84 -112 0 0
EndChar
StartChar: B
Encoding: 66 66 66
Width: 1635
Flags: W
Fore
33.8369 0 m 1,0,-1
 55.0039 121 l 1,1,-1
 226.904 121 l 1,2,-1
 445.757 1372 l 1,3,-1
 273.857 1372 l 1,4,-1
 295.024 1493 l 1,5,-1
 1091.52 1493 l 2,6,7
 1337.22 1493 1337.22 1493 1444.43 1401 c 128,-1,8
 1551.64 1309 1551.64 1309 1519.27 1124 c 0,9,10
 1496.01 991 1496.01 991 1397.3 913 c 128,-1,11
 1298.61 835 1298.61 835 1127.72 815 c 1,12,13
 1326.54 794 1326.54 794 1417.22 695 c 128,-1,14
 1507.91 596 1507.91 596 1479.21 432 c 0,15,16
 1440.37 210 1440.37 210 1271.25 105 c 128,-1,17
 1102.14 0 1102.14 0 780.837 0 c 2,18,-1
 33.8369 0 l 1,0,-1
704.437 870 m 1,19,-1
 822.336 870 l 2,20,21
 977.136 870 977.136 870 1062.77 932.5 c 128,-1,22
 1148.4 995 1148.4 995 1170.97 1124 c 0,23,24
 1193.72 1254 1193.72 1254 1131.59 1313 c 128,-1,25
 1069.45 1372 1069.45 1372 910.157 1372 c 2,26,-1
 792.257 1372 l 1,27,-1
 704.437 870 l 1,19,-1
573.404 121 m 1,28,-1
 702.104 121 l 2,29,30
 874.004 121 874.004 121 970.1 197 c 128,-1,31
 1066.19 273 1066.19 273 1094.01 432 c 0,32,33
 1122 592 1122 592 1052.12 671 c 128,-1,34
 982.243 750 982.243 750 812.144 750 c 2,35,-1
 683.443 750 l 1,36,-1
 573.404 121 l 1,28,-1
EndSplineSet
KernsSLIFO: 268 38 0 0 262 38 0 0 286 38 0 0 221 -36 0 0 210 38 0 0 212 38 0 0 211 38 0 0 376 -36 0 0 338 38 0 0 213 38 0 0 216 38 0 0 214 38 0 0 199 38 0 0 89 -36 0 0 79 38 0 0 71 38 0 0 67 38 0 0 45 38 0 0
EndChar
StartChar: C
Encoding: 67 67 67
Width: 1550
Flags: W
Fore
1401.36 426 m 1,0,1
 1307.84 195 1307.84 195 1150.55 83 c 128,-1,2
 993.254 -29 993.254 -29 761.056 -29 c 0,3,4
 420.856 -29 420.856 -29 259.781 179.5 c 128,-1,5
 98.707 388 98.707 388 161.161 745 c 0,6,7
 223.791 1103 223.791 1103 457.817 1311.5 c 128,-1,8
 691.843 1520 691.843 1520 1032.04 1520 c 0,9,10
 1151.74 1520 1151.74 1520 1275.75 1488 c 128,-1,11
 1399.75 1456 1399.75 1456 1533.27 1391 c 1,12,-1
 1469.07 1024 l 1,13,-1
 1354.77 1024 l 1,14,15
 1352.56 1212 1352.56 1212 1276.21 1305.5 c 128,-1,16
 1199.88 1399 1199.88 1399 1047.78 1399 c 0,17,18
 851.573 1399 851.573 1399 728.096 1238.5 c 128,-1,19
 604.618 1078 604.618 1078 546.361 745 c 0,20,21
 488.105 412 488.105 412 555.515 252 c 128,-1,22
 622.925 92 622.925 92 820.925 92 c 0,23,24
 955.025 92 955.025 92 1054.6 175 c 128,-1,25
 1154.17 258 1154.17 258 1222.26 426 c 1,26,-1
 1401.36 426 l 1,0,1
EndSplineSet
KernsSLIFO: 46 -36 0 0 44 -36 0 0
EndChar
StartChar: D
Encoding: 68 68 68
Width: 1681
Flags: W
Fore
578.435 121 m 1,0,-1
 703.534 121 l 2,1,2
 914.134 121 914.134 121 1038.02 271 c 128,-1,3
 1161.92 421 1161.92 421 1219.12 748 c 0,4,5
 1275.97 1073 1275.97 1073 1204.94 1222.5 c 128,-1,6
 1133.88 1372 1133.88 1372 922.387 1372 c 2,7,-1
 797.287 1372 l 1,8,-1
 578.435 121 l 1,0,-1
38.8662 0 m 1,9,-1
 60.0342 121 l 1,10,-1
 231.935 121 l 1,11,-1
 450.787 1372 l 1,12,-1
 278.887 1372 l 1,13,-1
 300.055 1493 l 1,14,-1
 989.45 1493 l 2,15,16
 1351.25 1493 1351.25 1493 1509.36 1301 c 128,-1,17
 1667.47 1109 1667.47 1109 1604.32 748 c 0,18,19
 1540.82 385 1540.82 385 1314.99 192.5 c 128,-1,20
 1089.17 0 1089.17 0 728.267 0 c 2,21,-1
 38.8662 0 l 1,9,-1
EndSplineSet
KernsSLIFO: 86 -36 0 0 46 -73 0 0 45 38 0 0 44 -73 0 0
EndChar
StartChar: E
Encoding: 69 69 69
Width: 1481
Flags: W
Fore
32.5059 0 m 1,0,-1
 53.6729 121 l 1,1,-1
 225.573 121 l 1,2,-1
 444.427 1372 l 1,3,-1
 272.526 1372 l 1,4,-1
 293.693 1493 l 1,5,-1
 1501.49 1493 l 1,6,-1
 1439.91 1141 l 1,7,-1
 1315.71 1141 l 1,8,-1
 1353.32 1356 l 1,9,-1
 788.127 1356 l 1,10,-1
 704.329 877 l 1,11,-1
 1056.23 877 l 1,12,-1
 1089.47 1067 l 1,13,-1
 1212.77 1067 l 1,14,-1
 1122.5 551 l 1,15,-1
 999.2 551 l 1,16,-1
 1032.44 741 l 1,17,-1
 680.538 741 l 1,18,-1
 574.872 137 l 1,19,-1
 1157.18 137 l 1,20,-1
 1194.79 352 l 1,21,-1
 1318.09 352 l 1,22,-1
 1256.51 0 l 1,23,-1
 32.5059 0 l 1,0,-1
EndSplineSet
KernsSLIFO: 45 38 0 0
EndChar
StartChar: F
Encoding: 70 70 70
Width: 1384
Flags: W
Fore
31.9561 0 m 1,0,-1
 53.123 121 l 1,1,-1
 225.023 121 l 1,2,-1
 443.876 1372 l 1,3,-1
 271.977 1372 l 1,4,-1
 293.144 1493 l 1,5,-1
 1491.04 1493 l 1,6,-1
 1429.46 1141 l 1,7,-1
 1306.16 1141 l 1,8,-1
 1343.77 1356 l 1,9,-1
 789.377 1356 l 1,10,-1
 705.579 877 l 1,11,-1
 1046.68 877 l 1,12,-1
 1079.92 1067 l 1,13,-1
 1203.22 1067 l 1,14,-1
 1112.95 551 l 1,15,-1
 989.649 551 l 1,16,-1
 1022.89 741 l 1,17,-1
 681.788 741 l 1,18,-1
 573.323 121 l 1,19,-1
 784.823 121 l 1,20,-1
 763.656 0 l 1,21,-1
 31.9561 0 l 1,0,-1
EndSplineSet
KernsSLIFO: 252 -36 0 0 229 -112 0 0 230 -112 0 0 59 -73 0 0 242 -112 0 0 45 -92 0 0 46 -206 0 0 367 -36 0 0 245 -112 0 0 235 -112 0 0 249 -36 0 0 44 -206 0 0 224 -112 0 0 195 -120 0 0 234 -112 0 0 341 -36 0 0 232 -112 0 0 196 -120 0 0 193 -120 0 0 251 -36 0 0 227 -112 0 0 194 -120 0 0 248 -112 0 0 244 -112 0 0 65 -120 0 0 97 -112 0 0 228 -112 0 0 246 -112 0 0 250 -36 0 0 225 -112 0 0 345 -36 0 0 226 -112 0 0 233 -112 0 0 283 -112 0 0 101 -112 0 0 339 -112 0 0 111 -112 0 0 114 -36 0 0 117 -36 0 0 192 -120 0 0 58 -73 0 0 243 -112 0 0
EndChar
StartChar: G
Encoding: 71 71 71
Width: 1660
Flags: W
Fore
1403.2 1024 m 1,0,1
 1397.34 1222 1397.34 1222 1318.33 1310.5 c 128,-1,2
 1239.31 1399 1239.31 1399 1067.41 1399 c 0,3,4
 858.61 1399 858.61 1399 733.408 1241.5 c 128,-1,5
 608.204 1084 608.204 1084 548.898 745 c 0,6,7
 490.118 409 490.118 409 555.99 250.5 c 128,-1,8
 621.862 92 621.862 92 819.862 92 c 0,9,10
 895.462 92 895.462 92 963.586 111 c 128,-1,11
 1031.71 130 1031.71 130 1091.46 168 c 1,12,-1
 1163.18 578 l 1,13,-1
 1001.18 578 l 1,14,-1
 1022.18 698 l 1,15,-1
 1506.38 698 l 1,16,-1
 1406.14 125 l 1,17,18
 1241.29 47 1241.29 47 1083.89 9 c 128,-1,19
 926.493 -29 926.493 -29 768.993 -29 c 0,20,21
 423.394 -29 423.394 -29 262.057 178 c 128,-1,22
 100.72 385 100.72 385 163.698 745 c 0,23,24
 226.853 1106 226.853 1106 460.616 1313 c 128,-1,25
 694.38 1520 694.38 1520 1039.98 1520 c 0,26,27
 1183.98 1520 1183.98 1520 1317.88 1488 c 128,-1,28
 1451.79 1456 1451.79 1456 1581.71 1391 c 1,29,-1
 1517.5 1024 l 1,30,-1
 1403.2 1024 l 1,0,1
EndSplineSet
KernsSLIFO: 46 -73 0 0 45 38 0 0 44 -73 0 0
EndChar
StartChar: H
Encoding: 72 72 72
Width: 1838
Flags: W
Fore
52.7559 0 m 1,0,-1
 73.9229 121 l 1,1,-1
 245.823 121 l 1,2,-1
 464.677 1372 l 1,3,-1
 292.776 1372 l 1,4,-1
 313.943 1493 l 1,5,-1
 1005.14 1493 l 1,6,-1
 983.977 1372 l 1,7,-1
 811.177 1372 l 1,8,-1
 723.355 870 l 1,9,-1
 1257.96 870 l 1,10,-1
 1345.77 1372 l 1,11,-1
 1173.87 1372 l 1,12,-1
 1195.04 1493 l 1,13,-1
 1886.24 1493 l 1,14,-1
 1865.07 1372 l 1,15,-1
 1692.27 1372 l 1,16,-1
 1473.43 121 l 1,17,-1
 1646.23 121 l 1,18,-1
 1625.06 0 l 1,19,-1
 933.856 0 l 1,20,-1
 955.023 121 l 1,21,-1
 1126.93 121 l 1,22,-1
 1233.99 733 l 1,23,-1
 699.388 733 l 1,24,-1
 592.323 121 l 1,25,-1
 765.123 121 l 1,26,-1
 743.956 0 l 1,27,-1
 52.7559 0 l 1,0,-1
EndSplineSet
EndChar
StartChar: I
Encoding: 73 73 73
Width: 910
Flags: W
Fore
3.80566 0 m 1,0,-1
 24.9736 121 l 1,1,-1
 196.873 121 l 1,2,-1
 415.727 1372 l 1,3,-1
 243.826 1372 l 1,4,-1
 264.993 1493 l 1,5,-1
 956.189 1493 l 1,6,-1
 935.026 1372 l 1,7,-1
 762.227 1372 l 1,8,-1
 543.373 121 l 1,9,-1
 716.173 121 l 1,10,-1
 695.006 0 l 1,11,-1
 3.80566 0 l 1,0,-1
EndSplineSet
EndChar
StartChar: J
Encoding: 74 74 74
Width: 909
Flags: W
Fore
-253.25 -358 m 1,0,-1
 -212.138 -123 l 1,1,-1
 -95.1377 -123 l 1,2,3
 -106.184 -217 -106.184 -217 -79.2314 -261 c 128,-1,4
 -52.2783 -305 -52.2783 -305 16.1211 -305 c 0,5,6
 103.422 -305 103.422 -305 151.104 -230.5 c 128,-1,7
 198.788 -156 198.788 -156 234.65 49 c 2,8,-1
 466.101 1372 l 1,9,-1
 270.8 1372 l 1,10,-1
 291.968 1493 l 1,11,-1
 1007.47 1493 l 1,12,-1
 986.302 1372 l 1,13,-1
 814.4 1372 l 1,14,-1
 581.552 41 l 2,15,16
 539.041 -202 539.041 -202 409.197 -314 c 128,-1,17
 279.354 -426 279.354 -426 39.0537 -426 c 0,18,19
 -35.6465 -426 -35.6465 -426 -108.271 -409 c 128,-1,20
 -180.898 -392 -180.898 -392 -253.25 -358 c 1,0,-1
EndSplineSet
KernsSLIFO: 59 -83 0 0 58 -83 0 0 46 -159 0 0 44 -83 0 0
EndChar
StartChar: K
Encoding: 75 75 75
Width: 1691
Flags: W
Fore
45.7061 0 m 1,0,-1
 66.873 121 l 1,1,-1
 238.773 121 l 1,2,-1
 457.626 1372 l 1,3,-1
 285.727 1372 l 1,4,-1
 306.894 1493 l 1,5,-1
 998.09 1493 l 1,6,-1
 976.927 1372 l 1,7,-1
 804.126 1372 l 1,8,-1
 708.782 827 l 1,9,-1
 1373.82 1372 l 1,10,-1
 1229.82 1372 l 1,11,-1
 1250.99 1493 l 1,12,-1
 1752.29 1493 l 1,13,-1
 1731.12 1372 l 1,14,-1
 1552.02 1372 l 1,15,-1
 988.979 911 l 1,16,-1
 1506.88 121 l 1,17,-1
 1639.18 121 l 1,18,-1
 1618.01 0 l 1,19,-1
 1162.61 0 l 1,20,-1
 690.938 725 l 1,21,-1
 585.273 121 l 1,22,-1
 758.073 121 l 1,23,-1
 736.906 0 l 1,24,-1
 45.7061 0 l 1,0,-1
EndSplineSet
KernsSLIFO: 367 -45 0 0 366 -73 0 0 283 -45 0 0 268 -55 0 0 262 -55 0 0 253 -92 0 0 221 -55 0 0 217 -73 0 0 219 -73 0 0 218 -73 0 0 210 -55 0 0 212 -55 0 0 211 -55 0 0 193 -83 0 0 194 -83 0 0 376 -55 0 0 255 -92 0 0 339 -45 0 0 338 -55 0 0 213 -55 0 0 195 -83 0 0 192 -83 0 0 248 -36 0 0 216 -55 0 0 252 -45 0 0 251 -45 0 0 249 -45 0 0 250 -45 0 0 245 -45 0 0 246 -45 0 0 244 -45 0 0 242 -45 0 0 243 -45 0 0 235 -45 0 0 234 -45 0 0 232 -45 0 0 233 -45 0 0 220 -73 0 0 214 -55 0 0 199 -55 0 0 196 -83 0 0 121 -92 0 0 117 -45 0 0 111 -45 0 0 101 -45 0 0 89 -55 0 0 87 -73 0 0 85 -73 0 0 79 -55 0 0 67 -55 0 0 65 -83 0 0 45 -149 0 0
EndChar
StartChar: L
Encoding: 76 76 76
Width: 1359
Flags: W
Fore
19.4707 0 m 1,0,-1
 40.6387 121 l 1,1,-1
 212.538 121 l 1,2,-1
 431.392 1372 l 1,3,-1
 259.491 1372 l 1,4,-1
 280.658 1493 l 1,5,-1
 971.854 1493 l 1,6,-1
 950.691 1372 l 1,7,-1
 777.892 1372 l 1,8,-1
 561.837 137 l 1,9,-1
 1091.04 137 l 1,10,-1
 1132.33 373 l 1,11,-1
 1253.83 373 l 1,12,-1
 1188.58 0 l 1,13,-1
 19.4707 0 l 1,0,-1
EndSplineSet
KernsSLIFO: 366 -112 0 0 356 -167 0 0 253 -73 0 0 221 -131 0 0 217 -112 0 0 219 -112 0 0 218 -112 0 0 376 -131 0 0 255 -73 0 0 8217 -491 0 0 8216 -491 0 0 8221 -491 0 0 8220 -491 0 0 220 -112 0 0 121 -73 0 0 89 -131 0 0 87 -139 0 0 86 -243 0 0 85 -112 0 0 84 -167 0 0
EndChar
StartChar: M
Encoding: 77 77 77
Width: 2153
Flags: W
Fore
59.6553 0 m 1,0,-1
 80.8232 121 l 1,1,-1
 251.823 121 l 1,2,-1
 470.677 1372 l 1,3,-1
 299.677 1372 l 1,4,-1
 320.844 1493 l 1,5,-1
 875.243 1493 l 1,6,-1
 1091.05 535 l 1,7,-1
 1643.84 1493 l 1,8,-1
 2197.34 1493 l 1,9,-1
 2176.17 1372 l 1,10,-1
 2004.27 1372 l 1,11,-1
 1785.43 121 l 1,12,-1
 1957.33 121 l 1,13,-1
 1936.16 0 l 1,14,-1
 1244.96 0 l 1,15,-1
 1266.13 121 l 1,16,-1
 1437.13 121 l 1,17,-1
 1636.38 1260 l 1,18,-1
 1037.56 219 l 1,19,-1
 809.868 219 l 1,20,-1
 577.082 1260 l 1,21,-1
 377.823 121 l 1,22,-1
 548.823 121 l 1,23,-1
 527.656 0 l 1,24,-1
 59.6553 0 l 1,0,-1
EndSplineSet
EndChar
StartChar: N
Encoding: 78 78 78
Width: 1778
Flags: W
Fore
44.4053 0 m 1,0,-1
 65.5732 121 l 1,1,-1
 237.474 121 l 1,2,-1
 456.326 1372 l 1,3,-1
 284.427 1372 l 1,4,-1
 305.594 1493 l 1,5,-1
 725.894 1493 l 1,6,-1
 1351.88 436 l 1,7,-1
 1515.62 1372 l 1,8,-1
 1344.62 1372 l 1,9,-1
 1365.79 1493 l 1,10,-1
 1835.59 1493 l 1,11,-1
 1814.42 1372 l 1,12,-1
 1642.52 1372 l 1,13,-1
 1402.51 0 l 1,14,-1
 1166.71 0 l 1,15,-1
 531.969 1079 l 1,16,-1
 364.373 121 l 1,17,-1
 535.373 121 l 1,18,-1
 514.206 0 l 1,19,-1
 44.4053 0 l 1,0,-1
EndSplineSet
KernsSLIFO: 59 -73 0 0 58 -73 0 0 46 -131 0 0 44 -131 0 0
EndChar
StartChar: O
Encoding: 79 79 79
Width: 1694
Flags: W
Fore
776.671 92 m 0,0,1
 948.57 92 948.57 92 1060.44 253 c 0,2,3
 1172.3 414 1172.3 414 1230.21 745 c 0,4,5
 1288.29 1077 1288.29 1077 1232.75 1238 c 0,6,7
 1177.22 1399 1177.22 1399 1005.32 1399 c 0,8,9
 834.319 1399 834.319 1399 721.741 1236.5 c 0,10,11
 609.163 1074 609.163 1074 551.606 745 c 0,12,13
 494.227 417 494.227 417 549.949 254.5 c 0,14,15
 605.671 92 605.671 92 776.671 92 c 0,0,1
755.502 -29 m 0,16,17
 416.202 -29 416.202 -29 259.641 177 c 0,18,19
 103.078 383 103.078 383 166.407 745 c 0,20,21
 229.737 1107 229.737 1107 458.912 1313.5 c 0,22,23
 688.088 1520 688.088 1520 1026.49 1520 c 0,24,25
 1365.79 1520 1365.79 1520 1522.34 1314 c 0,26,27
 1678.91 1108 1678.91 1108 1615.41 745 c 0,28,29
 1552.08 383 1552.08 383 1323 177 c 0,30,31
 1093.9 -29 1093.9 -29 755.502 -29 c 0,16,17
EndSplineSet
KernsSLIFO: 88 -36 0 0 86 -36 0 0 46 -120 0 0 45 75 0 0 44 -120 0 0
EndChar
StartChar: P
Encoding: 80 80 80
Width: 1461
Flags: W
Fore
31.2783 0 m 1,0,-1
 52.4463 121 l 1,1,-1
 224.347 121 l 1,2,-1
 443.199 1372 l 1,3,-1
 271.299 1372 l 1,4,-1
 292.467 1493 l 1,5,-1
 1057.46 1493 l 2,6,7
 1281.56 1493 1281.56 1493 1393.14 1374.5 c 128,-1,8
 1504.71 1256 1504.71 1256 1469.9 1057 c 0,9,10
 1434.9 857 1434.9 857 1281.25 737.5 c 128,-1,11
 1127.59 618 1127.59 618 904.393 618 c 2,12,-1
 657.793 618 l 1,13,-1
 570.847 121 l 1,14,-1
 787.746 121 l 1,15,-1
 766.579 0 l 1,16,-1
 31.2783 0 l 1,0,-1
678.961 739 m 1,17,-1
 779.761 739 l 2,18,19
 896.761 739 896.761 739 981.646 825.5 c 128,-1,20
 1066.53 912 1066.53 912 1091.9 1057 c 0,21,22
 1117.09 1201 1117.09 1201 1062.75 1286.5 c 128,-1,23
 1008.39 1372 1008.39 1372 890.499 1372 c 2,24,-1
 789.699 1372 l 1,25,-1
 678.961 739 l 1,17,-1
EndSplineSet
KernsSLIFO: 283 -55 0 0 193 -149 0 0 194 -149 0 0 8222 -264 0 0 8218 -264 0 0 339 -55 0 0 195 -149 0 0 192 -149 0 0 248 -55 0 0 230 -55 0 0 245 -55 0 0 246 -55 0 0 244 -55 0 0 242 -55 0 0 243 -55 0 0 235 -55 0 0 234 -55 0 0 232 -55 0 0 233 -55 0 0 229 -55 0 0 227 -55 0 0 228 -55 0 0 226 -55 0 0 224 -55 0 0 225 -55 0 0 196 -149 0 0 111 -55 0 0 101 -55 0 0 97 -55 0 0 65 -149 0 0 59 -73 0 0 58 -73 0 0 46 -339 0 0 45 -112 0 0 44 -264 0 0
EndChar
StartChar: Q
Encoding: 81 81 81
Width: 1697
Flags: W
Fore
783.144 -29 m 1,0,1
 443.993 -23 443.993 -23 290.231 181 c 128,-1,2
 136.47 385 136.47 385 199.448 745 c 0,3,4
 262.778 1107 262.778 1107 491.954 1313.5 c 128,-1,5
 721.129 1520 721.129 1520 1059.53 1520 c 0,6,7
 1398.83 1520 1398.83 1520 1555.39 1314 c 128,-1,8
 1711.96 1108 1711.96 1108 1648.45 745 c 0,9,10
 1592.81 427 1592.81 427 1410.13 229 c 128,-1,11
 1227.44 31 1227.44 31 945.618 -16 c 1,12,13
 983.346 -73 983.346 -73 1047.37 -98 c 128,-1,14
 1111.4 -123 1111.4 -123 1220.3 -123 c 2,15,-1
 1266.2 -123 l 1,16,-1
 1223.17 -369 l 1,17,-1
 1197.07 -369 l 2,18,19
 1026.07 -369 1026.07 -369 926.108 -287 c 128,-1,20
 826.153 -205 826.153 -205 783.144 -29 c 1,0,1
809.713 92 m 0,21,22
 981.612 92 981.612 92 1093.48 253 c 128,-1,23
 1205.35 414 1205.35 414 1263.25 745 c 0,24,25
 1321.33 1077 1321.33 1077 1265.8 1238 c 128,-1,26
 1210.26 1399 1210.26 1399 1038.36 1399 c 0,27,28
 867.361 1399 867.361 1399 754.783 1236.5 c 128,-1,29
 642.204 1074 642.204 1074 584.648 745 c 0,30,31
 527.268 417 527.268 417 582.99 254.5 c 128,-1,32
 638.713 92 638.713 92 809.713 92 c 0,21,22
EndSplineSet
KernsSLIFO: 46 -102 0 0 45 75 0 0 44 -102 0 0
EndChar
StartChar: R
Encoding: 82 82 82
Width: 1608
Flags: W
Fore
1052.41 729 m 1,0,1
 1130.23 716 1130.23 716 1177.08 670 c 128,-1,2
 1223.94 624 1223.94 624 1249.22 537 c 2,3,-1
 1372.64 121 l 1,4,-1
 1510.34 121 l 1,5,-1
 1489.18 0 l 1,6,-1
 1047.28 0 l 1,7,-1
 911.971 451 l 1,8,9
 874.361 591 874.361 591 837.448 629.5 c 128,-1,10
 800.533 668 800.533 668 723.133 668 c 2,11,-1
 668.232 668 l 1,12,-1
 572.539 121 l 1,13,-1
 745.339 121 l 1,14,-1
 724.172 0 l 1,15,-1
 32.9717 0 l 1,16,-1
 54.1396 121 l 1,17,-1
 226.039 121 l 1,18,-1
 444.893 1372 l 1,19,-1
 272.992 1372 l 1,20,-1
 294.159 1493 l 1,21,-1
 1060.96 1493 l 2,22,23
 1294.96 1493 1294.96 1493 1404.03 1388.5 c 128,-1,24
 1513.1 1284 1513.1 1284 1479.51 1092 c 0,25,26
 1452.21 936 1452.21 936 1345.93 845.5 c 128,-1,27
 1239.65 755 1239.65 755 1052.41 729 c 1,0,1
689.226 788 m 1,28,-1
 807.125 788 l 2,29,30
 933.125 788 933.125 788 1014.37 864 c 128,-1,31
 1095.62 940 1095.62 940 1120.28 1081 c 0,32,33
 1144.95 1222 1144.95 1222 1090.12 1297 c 128,-1,34
 1035.29 1372 1035.29 1372 909.292 1372 c 2,35,-1
 791.393 1372 l 1,36,-1
 689.226 788 l 1,28,-1
EndSplineSet
KernsSLIFO: 356 -36 0 0 253 -36 0 0 221 -63 0 0 376 -63 0 0 255 -36 0 0 8217 -73 0 0 8221 -73 0 0 248 38 0 0 230 47 0 0 229 47 0 0 227 47 0 0 228 47 0 0 226 47 0 0 224 47 0 0 225 47 0 0 121 -36 0 0 97 47 0 0 89 -63 0 0 87 -45 0 0 86 -73 0 0 84 -36 0 0
EndChar
StartChar: S
Encoding: 83 83 83
Width: 1402
Flags: W
Fore
95.5029 72 m 1,0,-1
 157.433 426 l 1,1,-1
 271.732 426 l 1,2,3
 268.441 258 268.441 258 351.122 175 c 128,-1,4
 433.802 92 433.802 92 605.702 92 c 0,5,6
 745.202 92 745.202 92 828.422 151 c 128,-1,7
 911.645 210 911.645 210 931.588 324 c 0,8,9
 947.332 414 947.332 414 906.58 464 c 128,-1,10
 865.827 514 865.827 514 718.55 557 c 2,11,-1
 526.571 612 l 1,12,13
 339.269 668 339.269 668 276.574 767.5 c 128,-1,14
 213.882 867 213.882 867 246.071 1051 c 0,15,16
 284.908 1273 284.908 1273 439.264 1396.5 c 128,-1,17
 593.619 1520 593.619 1520 833.02 1520 c 0,18,19
 950.919 1520 950.919 1520 1074.42 1498 c 128,-1,20
 1197.93 1476 1197.93 1476 1327.02 1432 c 1,21,-1
 1269.3 1102 l 1,22,-1
 1155 1102 l 1,23,24
 1155.83 1256 1155.83 1256 1080.14 1327.5 c 128,-1,25
 1004.45 1399 1004.45 1399 841.551 1399 c 0,26,27
 708.351 1399 708.351 1399 631.392 1347.5 c 128,-1,28
 554.432 1296 554.432 1296 536.588 1194 c 0,29,30
 520.319 1101 520.319 1101 558.634 1052.5 c 128,-1,31
 596.948 1004 596.948 1004 770.553 952 c 1,32,-1
 962.529 897 l 2,33,34
 1140.63 845 1140.63 845 1205.54 735 c 128,-1,35
 1270.45 625 1270.45 625 1236.68 432 c 0,36,37
 1197.14 206 1197.14 206 1036.19 88.5 c 128,-1,38
 875.233 -29 875.233 -29 602.533 -29 c 0,39,40
 471.133 -29 471.133 -29 345.907 -4 c 128,-1,41
 220.681 21 220.681 21 95.5029 72 c 1,0,-1
EndSplineSet
KernsSLIFO: 350 -45 0 0 352 -45 0 0 83 -45 0 0 46 -73 0 0 45 75 0 0 44 -73 0 0
EndChar
StartChar: T
Encoding: 84 84 84
Width: 1458
Flags: W
Fore
290.491 0 m 1,0,-1
 311.658 121 l 1,1,-1
 489.858 121 l 1,2,-1
 705.912 1356 l 1,3,-1
 337.812 1356 l 1,4,-1
 296.526 1120 l 1,5,-1
 173.226 1120 l 1,6,-1
 238.479 1493 l 1,7,-1
 1570.47 1493 l 1,8,-1
 1505.22 1120 l 1,9,-1
 1383.72 1120 l 1,10,-1
 1425.01 1356 l 1,11,-1
 1054.21 1356 l 1,12,-1
 838.158 121 l 1,13,-1
 1017.26 121 l 1,14,-1
 996.095 0 l 1,15,-1
 290.491 0 l 1,0,-1
EndSplineSet
KernsSLIFO: 252 -188 0 0 229 -196 0 0 230 -159 0 0 59 -73 0 0 242 -235 0 0 255 -225 0 0 45 -339 0 0 8222 -149 0 0 367 -188 0 0 245 -235 0 0 235 -235 0 0 249 -188 0 0 44 -225 0 0 224 -196 0 0 195 -112 0 0 234 -235 0 0 231 -235 0 0 341 -149 0 0 232 -235 0 0 196 -112 0 0 193 -112 0 0 269 -235 0 0 345 -149 0 0 233 -235 0 0 251 -188 0 0 253 -225 0 0 8218 -149 0 0 227 -196 0 0 194 -112 0 0 248 -159 0 0 244 -235 0 0 353 -188 0 0 65 -112 0 0 283 -235 0 0 187 -149 0 0 351 -188 0 0 228 -196 0 0 119 -225 0 0 246 -235 0 0 250 -188 0 0 8250 -149 0 0 263 -235 0 0 225 -196 0 0 46 -264 0 0 84 -73 0 0 226 -196 0 0 101 -235 0 0 356 -73 0 0 97 -196 0 0 99 -235 0 0 171 -149 0 0 339 -159 0 0 8249 -149 0 0 111 -235 0 0 115 -188 0 0 114 -149 0 0 117 -188 0 0 192 -112 0 0 121 -225 0 0 58 -73 0 0 243 -235 0 0
EndChar
StartChar: U
Encoding: 85 85 85
Width: 1711
Flags: W
Fore
450.129 1372 m 1,0,-1
 279.129 1372 l 1,1,-1
 300.298 1493 l 1,2,-1
 991.498 1493 l 1,3,-1
 970.329 1372 l 1,4,-1
 798.429 1372 l 1,5,-1
 667.747 625 l 2,6,7
 618.938 346 618.938 346 677.732 234.5 c 128,-1,8
 736.526 123 736.526 123 926.426 123 c 0,9,10
 1111.82 123 1111.82 123 1209.36 235.5 c 128,-1,11
 1306.89 348 1306.89 348 1355.35 625 c 2,12,-1
 1486.03 1372 l 1,13,-1
 1315.03 1372 l 1,14,-1
 1336.19 1493 l 1,15,-1
 1804.19 1493 l 1,16,-1
 1783.03 1372 l 1,17,-1
 1611.13 1372 l 1,18,-1
 1476.77 604 l 2,19,20
 1416.94 262 1416.94 262 1258.29 116.5 c 128,-1,21
 1099.64 -29 1099.64 -29 785.534 -29 c 0,22,23
 473.234 -29 473.234 -29 364.852 118 c 128,-1,24
 256.469 265 256.469 265 316.123 606 c 2,25,-1
 450.129 1372 l 1,0,-1
EndSplineSet
KernsSLIFO: 193 -63 0 0 194 -63 0 0 195 -63 0 0 192 -63 0 0 196 -63 0 0 65 -63 0 0 59 -73 0 0 58 -73 0 0 46 -188 0 0 45 -36 0 0 44 -188 0 0
EndChar
StartChar: V
Encoding: 86 86 86
Width: 1523
Flags: W
Fore
1680.42 1493 m 1,0,-1
 1659.26 1372 l 1,1,-1
 1546.76 1372 l 1,2,-1
 800.041 0 l 1,3,-1
 585.841 0 l 1,4,-1
 319.161 1372 l 1,5,-1
 192.261 1372 l 1,6,-1
 213.428 1493 l 1,7,-1
 843.428 1493 l 1,8,-1
 822.261 1372 l 1,9,-1
 691.761 1372 l 1,10,-1
 881.443 383 l 1,11,-1
 1419.86 1372 l 1,12,-1
 1259.66 1372 l 1,13,-1
 1280.82 1493 l 1,14,-1
 1680.42 1493 l 1,0,-1
EndSplineSet
KernsSLIFO: 367 -131 0 0 283 -188 0 0 253 -83 0 0 210 -36 0 0 212 -36 0 0 211 -36 0 0 193 -159 0 0 194 -159 0 0 8222 -264 0 0 8218 -264 0 0 255 -83 0 0 8217 38 0 0 8221 38 0 0 339 -188 0 0 338 -36 0 0 213 -36 0 0 195 -159 0 0 192 -159 0 0 248 -188 0 0 230 -188 0 0 216 -36 0 0 252 -131 0 0 251 -131 0 0 249 -131 0 0 250 -131 0 0 245 -188 0 0 246 -188 0 0 244 -188 0 0 242 -188 0 0 243 -188 0 0 235 -188 0 0 234 -188 0 0 232 -188 0 0 233 -188 0 0 229 -188 0 0 227 -188 0 0 228 -188 0 0 226 -188 0 0 224 -188 0 0 225 -188 0 0 214 -36 0 0 196 -159 0 0 121 -83 0 0 117 -131 0 0 111 -188 0 0 105 -36 0 0 101 -188 0 0 97 -188 0 0 79 -36 0 0 65 -159 0 0 59 -206 0 0 58 -206 0 0 46 -358 0 0 45 -149 0 0 44 -358 0 0
EndChar
StartChar: W
Encoding: 87 87 87
Width: 2198
Flags: W
Fore
1568.54 0 m 1,0,-1
 1336.34 0 l 1,1,-1
 1222.31 1087 l 1,2,-1
 727.94 0 l 1,3,-1
 495.74 0 l 1,4,-1
 352.36 1372 l 1,5,-1
 221.86 1372 l 1,6,-1
 243.028 1493 l 1,7,-1
 880.228 1493 l 1,8,-1
 859.061 1372 l 1,9,-1
 715.061 1372 l 1,10,-1
 811.139 455 l 1,11,-1
 1282.52 1493 l 1,12,-1
 1538.12 1493 l 1,13,-1
 1648.76 438 l 1,14,-1
 2074.06 1372 l 1,15,-1
 1913.86 1372 l 1,16,-1
 1935.02 1493 l 1,17,-1
 2350.82 1493 l 1,18,-1
 2329.66 1372 l 1,19,-1
 2191.96 1372 l 1,20,-1
 1568.54 0 l 1,0,-1
EndSplineSet
KernsSLIFO: 252 -83 0 0 229 -178 0 0 230 -139 0 0 59 -139 0 0 242 -167 0 0 45 -112 0 0 8222 -225 0 0 367 -83 0 0 245 -167 0 0 235 -167 0 0 249 -83 0 0 44 -319 0 0 224 -178 0 0 195 -131 0 0 234 -167 0 0 341 -92 0 0 8221 38 0 0 232 -167 0 0 196 -131 0 0 193 -131 0 0 8217 38 0 0 251 -83 0 0 253 -45 0 0 8218 -225 0 0 227 -178 0 0 194 -131 0 0 248 -167 0 0 244 -167 0 0 65 -131 0 0 97 -178 0 0 228 -178 0 0 246 -167 0 0 250 -83 0 0 225 -178 0 0 345 -92 0 0 46 -319 0 0 226 -178 0 0 233 -167 0 0 283 -167 0 0 101 -167 0 0 105 -36 0 0 339 -167 0 0 255 -45 0 0 111 -167 0 0 114 -92 0 0 117 -83 0 0 192 -131 0 0 121 -45 0 0 58 -139 0 0 243 -167 0 0
EndChar
StartChar: X
Encoding: 88 88 88
Width: 1507
Flags: W
Fore
671.897 575 m 1,0,-1
 312.573 121 l 1,1,-1
 478.173 121 l 1,2,-1
 457.006 0 l 1,3,-1
 -19.9941 0 l 1,4,-1
 1.17285 121 l 1,5,-1
 166.773 121 l 1,6,-1
 620.365 692 l 1,7,-1
 319.026 1372 l 1,8,-1
 195.727 1372 l 1,9,-1
 216.894 1493 l 1,10,-1
 884.693 1493 l 1,11,-1
 863.526 1372 l 1,12,-1
 715.927 1372 l 1,13,-1
 902.551 952 l 1,14,-1
 1233.42 1372 l 1,15,-1
 1076.82 1372 l 1,16,-1
 1097.99 1493 l 1,17,-1
 1565.99 1493 l 1,18,-1
 1544.82 1372 l 1,19,-1
 1379.22 1372 l 1,20,-1
 953.357 836 l 1,21,-1
 1269.28 121 l 1,22,-1
 1396.18 121 l 1,23,-1
 1375.01 0 l 1,24,-1
 704.506 0 l 1,25,-1
 725.673 121 l 1,26,-1
 875.073 121 l 1,27,-1
 671.897 575 l 1,0,-1
EndSplineSet
KernsSLIFO: 268 -36 0 0 262 -36 0 0 210 -36 0 0 212 -36 0 0 211 -36 0 0 193 -73 0 0 194 -73 0 0 338 -36 0 0 213 -36 0 0 195 -73 0 0 192 -73 0 0 216 -36 0 0 214 -36 0 0 199 -36 0 0 196 -73 0 0 79 -36 0 0 67 -36 0 0 65 -73 0 0 45 -73 0 0
EndChar
StartChar: Y
Encoding: 89 89 89
Width: 1402
Flags: W
Fore
272.69 0 m 1,0,-1
 293.857 121 l 1,1,-1
 474.758 121 l 1,2,-1
 561.704 618 l 1,3,-1
 294.011 1372 l 1,4,-1
 179.711 1372 l 1,5,-1
 200.878 1493 l 1,6,-1
 845.278 1493 l 1,7,-1
 824.11 1372 l 1,8,-1
 674.711 1372 l 1,9,-1
 877.568 803 l 1,10,-1
 1277.71 1372 l 1,11,-1
 1143.61 1372 l 1,12,-1
 1164.77 1493 l 1,13,-1
 1549.97 1493 l 1,14,-1
 1528.81 1372 l 1,15,-1
 1414.51 1372 l 1,16,-1
 919.102 670 l 1,17,-1
 823.058 121 l 1,18,-1
 1003.96 121 l 1,19,-1
 982.791 0 l 1,20,-1
 272.69 0 l 1,0,-1
EndSplineSet
KernsSLIFO: 367 -178 0 0 283 -178 0 0 268 -36 0 0 262 -36 0 0 193 -131 0 0 194 -131 0 0 339 -178 0 0 195 -131 0 0 192 -131 0 0 248 -178 0 0 230 -159 0 0 252 -178 0 0 251 -178 0 0 249 -178 0 0 250 -178 0 0 245 -178 0 0 246 -178 0 0 244 -178 0 0 242 -178 0 0 243 -178 0 0 235 -178 0 0 234 -178 0 0 232 -178 0 0 233 -178 0 0 229 -159 0 0 227 -159 0 0 228 -159 0 0 226 -159 0 0 224 -159 0 0 225 -159 0 0 199 -36 0 0 196 -131 0 0 117 -178 0 0 111 -178 0 0 105 -36 0 0 101 -178 0 0 97 -159 0 0 67 -36 0 0 65 -131 0 0 59 -253 0 0 58 -253 0 0 46 -264 0 0 45 -206 0 0 44 -264 0 0
EndChar
StartChar: Z
Encoding: 90 90 90
Width: 1419
Flags: W
Fore
12.1553 0 m 1,0,-1
 36.8223 141 l 1,1,-1
 1051.27 1356 l 1,2,-1
 407.777 1356 l 1,3,-1
 368.765 1133 l 1,4,-1
 245.465 1133 l 1,5,-1
 308.443 1493 l 1,6,-1
 1474.84 1493 l 1,7,-1
 1450.18 1352 l 1,8,-1
 444.723 137 l 1,9,-1
 1123.33 137 l 1,10,-1
 1159.88 346 l 1,11,-1
 1283.18 346 l 1,12,-1
 1222.66 0 l 1,13,-1
 12.1553 0 l 1,0,-1
EndSplineSet
KernsSLIFO: 46 -36 0 0 44 -36 0 0
EndChar
StartChar: bracketleft
Encoding: 91 91 91
Width: 926
Flags: W
Fore
444.072 1556 m 1,0,-1
 954.373 1556 l 1,1,-1
 933.38 1436 l 1,2,-1
 741.68 1436 l 1,3,-1
 464.221 -150 l 1,4,-1
 655.921 -150 l 1,5,-1
 634.928 -270 l 1,6,-1
 124.628 -270 l 1,7,-1
 444.072 1556 l 1,0,-1
EndSplineSet
EndChar
StartChar: backslash
Encoding: 92 92 92
Width: 710
Flags: W
Fore
383.514 1493 m 1,0,-1
 563.386 -190 l 1,1,-1
 363.586 -190 l 1,2,-1
 184.614 1493 l 1,3,-1
 383.514 1493 l 1,0,-1
EndSplineSet
EndChar
StartChar: bracketright
Encoding: 93 93 93
Width: 915
Flags: W
Fore
844.322 1556 m 1,0,-1
 524.878 -270 l 1,1,-1
 13.6777 -270 l 1,2,-1
 34.6709 -150 l 1,3,-1
 226.37 -150 l 1,4,-1
 503.83 1436 l 1,5,-1
 312.13 1436 l 1,6,-1
 333.122 1556 l 1,7,-1
 844.322 1556 l 1,0,-1
EndSplineSet
EndChar
StartChar: asciicircum
Encoding: 94 94 94
Width: 1624
Flags: W
Fore
1004.8 1493 m 1,0,-1
 1389.77 936 l 1,1,-1
 1198.07 936 l 1,2,-1
 858.973 1251 l 1,3,-1
 409.665 936 l 1,4,-1
 217.965 936 l 1,5,-1
 804.108 1493 l 1,6,-1
 1004.8 1493 l 1,0,-1
EndSplineSet
EndChar
StartChar: underscore
Encoding: 95 95 95
Width: 972
Flags: W
Fore
989.423 -293 m 1,0,-1
 956.177 -483 l 1,1,-1
 34.5811 -483 l 1,2,-1
 67.8193 -293 l 1,3,-1
 989.423 -293 l 1,0,-1
EndSplineSet
EndChar
StartChar: grave
Encoding: 96 96 96
Width: 971
Flags: W
Fore
537.25 1638 m 1,0,-1
 702.85 1262 l 1,1,-1
 555.25 1262 l 1,2,-1
 286.15 1638 l 1,3,-1
 537.25 1638 l 1,0,-1
EndSplineSet
EndChar
StartChar: a
Encoding: 97 97 97
Width: 1255
Flags: W
Fore
1098.01 653 m 2,0,-1
 1004.95 121 l 1,1,-1
 1141.75 121 l 1,2,-1
 1120.58 0 l 1,3,-1
 665.175 0 l 1,4,-1
 688.792 135 l 1,5,6
 611.098 51 611.098 51 526.699 11 c 0,7,8
 442.302 -29 442.302 -29 343.302 -29 c 0,9,10
 196.602 -29 196.602 -29 133.159 58.5 c 0,11,12
 69.7168 146 69.7168 146 98.2314 309 c 0,13,14
 129.547 488 129.547 488 258.067 577 c 0,15,16
 386.587 666 386.587 666 614.287 666 c 2,17,-1
 781.688 666 l 1,18,-1
 792.708 729 l 2,19,20
 815.275 858 815.275 858 771.135 919.5 c 0,21,22
 726.993 981 726.993 981 611.793 981 c 0,23,24
 516.394 981 516.394 981 457.033 937.5 c 0,25,26
 397.674 894 397.674 894 358.754 795 c 1,27,-1
 257.054 795 l 1,28,-1
 297.115 1024 l 1,29,30
 388.563 1058 388.563 1058 483.338 1075 c 0,31,32
 578.111 1092 578.111 1092 679.812 1092 c 0,33,34
 936.312 1092 936.312 1092 1037.02 986 c 0,35,36
 1137.72 880 1137.72 880 1098.01 653 c 2,0,-1
723.605 334 m 2,37,-1
 760.868 547 l 1,38,-1
 641.169 547 l 2,39,40
 552.068 547 552.068 547 494.922 493 c 0,41,42
 437.774 439 437.774 439 420.106 338 c 0,43,44
 402.437 237 402.437 237 428.339 187 c 0,45,46
 454.242 137 454.242 137 525.342 137 c 0,47,48
 599.142 137 599.142 137 653.589 191 c 0,49,50
 708.036 245 708.036 245 723.605 334 c 2,37,-1
EndSplineSet
EndChar
StartChar: b
Encoding: 98 98 98
Width: 1349
Flags: W
Fore
127.725 121 m 1,0,-1
 357.774 1436 l 1,1,-1
 220.974 1436 l 1,2,-1
 241.968 1556 l 1,3,-1
 697.367 1556 l 1,4,-1
 587.504 928 l 1,5,6
 642.523 1011 642.523 1011 718.008 1051.5 c 128,-1,7
 793.494 1092 793.494 1092 894.294 1092 c 0,8,9
 1098.59 1092 1098.59 1092 1189.89 942.5 c 128,-1,10
 1281.18 793 1281.18 793 1235.53 532 c 0,11,12
 1189.87 271 1189.87 271 1046.17 121 c 128,-1,13
 902.482 -29 902.482 -29 698.183 -29 c 0,14,15
 597.383 -29 597.383 -29 536.068 11.5 c 128,-1,16
 474.753 52 474.753 52 448.774 135 c 1,17,-1
 425.157 0 l 1,18,-1
 -30.2432 0 l 1,19,-1
 -9.0752 121 l 1,20,-1
 127.725 121 l 1,0,-1
508.954 479 m 2,21,22
 476.415 293 476.415 293 504.645 210 c 128,-1,23
 532.874 127 532.874 127 628.274 127 c 0,24,25
 726.374 127 726.374 127 781.82 215 c 128,-1,26
 837.265 303 837.265 303 877.326 532 c 0,27,28
 917.388 761 917.388 761 892.645 848.5 c 128,-1,29
 867.902 936 867.902 936 769.802 936 c 0,30,31
 674.402 936 674.402 936 617.133 853 c 128,-1,32
 559.862 770 559.862 770 527.322 584 c 2,33,-1
 508.954 479 l 2,21,22
EndSplineSet
EndChar
StartChar: c
Encoding: 99 99 99
Width: 1186
Flags: W
Fore
1068.68 332 m 1,0,1
 1002.64 150 1002.64 150 881.237 60.5 c 128,-1,2
 759.83 -29 759.83 -29 578.03 -29 c 0,3,4
 322.43 -29 322.43 -29 207.746 118 c 128,-1,5
 93.0625 265 93.0625 265 139.772 532 c 0,6,7
 185.957 796 185.957 796 350.448 944 c 128,-1,8
 514.939 1092 514.939 1092 761.54 1092 c 0,9,10
 861.439 1092 861.439 1092 959.466 1071 c 128,-1,11
 1057.5 1050 1057.5 1050 1155.44 1008 c 1,12,-1
 1103.84 713 l 1,13,-1
 1003.04 713 l 1,14,15
 1012.25 848 1012.25 848 967.01 913.5 c 128,-1,16
 921.771 979 921.771 979 819.171 979 c 0,17,18
 685.972 979 685.972 979 612.228 879 c 128,-1,19
 538.483 779 538.483 779 495.273 532 c 0,20,21
 453.111 291 453.111 291 489.904 187.5 c 128,-1,22
 526.698 84 526.698 84 650.898 84 c 0,23,24
 747.198 84 747.198 84 816.444 148 c 128,-1,25
 885.691 212 885.691 212 919.284 332 c 1,26,-1
 1068.68 332 l 1,0,1
EndSplineSet
EndChar
StartChar: d
Encoding: 100 100 100
Width: 1359
Flags: W
Fore
811.779 479 m 2,0,-1
 830.147 584 l 2,1,2
 862.688 770 862.688 770 834.008 853 c 128,-1,3
 805.328 936 805.328 936 710.828 936 c 0,4,5
 611.828 936 611.828 936 556.471 848.5 c 128,-1,6
 501.113 761 501.113 761 461.052 532 c 0,7,8
 420.99 303 420.99 303 446.096 215 c 128,-1,9
 471.2 127 471.2 127 569.3 127 c 0,10,11
 663.8 127 663.8 127 721.52 210 c 128,-1,12
 779.24 293 779.24 293 811.779 479 c 2,0,-1
1067.75 121 m 1,13,-1
 1203.65 121 l 1,14,-1
 1182.48 0 l 1,15,-1
 727.982 0 l 1,16,-1
 751.6 135 l 1,17,18
 696.579 52 696.579 52 620.645 11.5 c 128,-1,19
 544.708 -29 544.708 -29 443.908 -29 c 0,20,21
 240.509 -29 240.509 -29 150.2 121 c 128,-1,22
 59.8916 271 59.8916 271 105.552 532 c 0,23,24
 151.387 794 151.387 794 294.004 943 c 128,-1,25
 436.619 1092 436.619 1092 640.02 1092 c 0,26,27
 740.819 1092 740.819 1092 802.584 1051.5 c 128,-1,28
 864.349 1011 864.349 1011 890.329 928 c 1,29,-1
 979.198 1436 l 1,30,-1
 842.399 1436 l 1,31,-1
 863.393 1556 l 1,32,-1
 1318.8 1556 l 1,33,-1
 1067.75 121 l 1,13,-1
EndSplineSet
EndChar
StartChar: e
Encoding: 101 101 101
Width: 1236
Flags: W
Fore
815.055 600 m 1,0,1
 851.793 810 851.793 810 831.476 894.5 c 128,-1,2
 811.158 979 811.158 979 726.558 979 c 0,3,4
 644.658 979 644.658 979 594.588 896 c 128,-1,5
 544.518 813 544.518 813 510.403 618 c 2,6,-1
 507.255 600 l 1,7,-1
 815.055 600 l 1,0,1
1144.33 481 m 1,8,-1
 486.438 481 l 1,9,-1
 485.037 473 l 2,10,11
 448.999 267 448.999 267 488.792 175.5 c 128,-1,12
 528.585 84 528.585 84 652.785 84 c 0,13,14
 756.285 84 756.285 84 830.856 145 c 128,-1,15
 905.428 206 905.428 206 943.721 322 c 1,16,-1
 1093.12 322 l 1,17,18
 1022.75 141 1022.75 141 892.687 56 c 128,-1,19
 762.616 -29 762.616 -29 555.616 -29 c 0,20,21
 307.217 -29 307.217 -29 199.92 116.5 c 128,-1,22
 92.624 262 92.624 262 139.859 532 c 0,23,24
 186.044 796 186.044 796 347.835 944 c 128,-1,25
 509.626 1092 509.626 1092 751.727 1092 c 0,26,27
 989.326 1092 989.326 1092 1089.02 936.5 c 128,-1,28
 1188.72 781 1188.72 781 1144.33 481 c 1,8,-1
EndSplineSet
EndChar
StartChar: f
Encoding: 102 102 102
Width: 845
Flags: W
Fore
1034.15 1290 m 1,0,-1
 933.351 1290 l 1,1,2
 939.797 1368 939.797 1368 912.694 1406 c 128,-1,3
 885.592 1444 885.592 1444 823.492 1444 c 0,4,5
 751.492 1444 751.492 1444 709.032 1386.5 c 128,-1,6
 666.574 1329 666.574 1329 644.006 1200 c 2,7,-1
 620.039 1063 l 1,8,-1
 860.339 1063 l 1,9,-1
 839.171 942 l 1,10,-1
 598.871 942 l 1,11,-1
 455.243 121 l 1,12,-1
 639.743 121 l 1,13,-1
 618.575 0 l 1,14,-1
 -20.4238 0 l 1,15,-1
 0.743164 121 l 1,16,-1
 136.644 121 l 1,17,-1
 280.271 942 l 1,18,-1
 138.07 942 l 1,19,-1
 159.239 1063 l 1,20,-1
 301.438 1063 l 1,21,-1
 324.706 1196 l 2,22,23
 355.671 1373 355.671 1373 473.378 1464.5 c 128,-1,24
 591.086 1556 591.086 1556 788.186 1556 c 0,25,26
 864.686 1556 864.686 1556 935.924 1546.5 c 128,-1,27
 1007.16 1537 1007.16 1537 1074.04 1518 c 1,28,-1
 1034.15 1290 l 1,0,-1
EndSplineSet
KernsSLIFO: 8217 151 0 0 8221 151 0 0 8220 65 0 0 46 -73 0 0 45 -73 0 0 44 -45 0 0
EndChar
StartChar: g
Encoding: 103 103 103
Width: 1367
Flags: W
Fore
1297.54 942 m 1,0,-1
 1135.19 14 l 2,1,2
 1096 -210 1096 -210 931.022 -332.5 c 128,-1,3
 766.041 -455 766.041 -455 504.142 -455 c 0,4,5
 408.741 -455 408.741 -455 313.528 -438.5 c 128,-1,6
 218.315 -422 218.315 -422 120.588 -389 c 1,7,-1
 165.023 -135 l 1,8,-1
 266.724 -135 l 1,9,10
 261.854 -240 261.854 -240 315.482 -291 c 128,-1,11
 369.109 -342 369.109 -342 485.21 -342 c 0,12,13
 632.81 -342 632.81 -342 707.294 -263.5 c 128,-1,14
 781.776 -185 781.776 -185 816.591 14 c 2,15,-1
 837.758 135 l 1,16,17
 782.737 52 782.737 52 706.803 11.5 c 128,-1,18
 630.867 -29 630.867 -29 530.067 -29 c 0,19,20
 326.668 -29 326.668 -29 236.358 121 c 128,-1,21
 146.05 271 146.05 271 191.71 532 c 0,22,23
 237.545 794 237.545 794 380.162 943 c 128,-1,24
 522.778 1092 522.778 1092 726.179 1092 c 0,25,26
 826.979 1092 826.979 1092 888.742 1051.5 c 128,-1,27
 950.507 1011 950.507 1011 976.487 928 c 1,28,-1
 1000.11 1063 l 1,29,-1
 1454.61 1063 l 1,30,-1
 1433.44 942 l 1,31,-1
 1297.54 942 l 1,0,-1
916.307 584 m 2,32,33
 948.847 770 948.847 770 920.166 853 c 128,-1,34
 891.486 936 891.486 936 796.986 936 c 0,35,36
 697.986 936 697.986 936 642.629 848.5 c 128,-1,37
 587.272 761 587.272 761 547.21 532 c 0,38,39
 507.148 303 507.148 303 532.254 215 c 128,-1,40
 557.358 127 557.358 127 655.458 127 c 0,41,42
 749.958 127 749.958 127 807.679 210 c 128,-1,43
 865.398 293 865.398 293 897.938 479 c 2,44,-1
 916.307 584 l 2,32,33
EndSplineSet
EndChar
StartChar: h
Encoding: 104 104 104
Width: 1401
Flags: W
Fore
-11.4512 0 m 1,0,-1
 9.71582 121 l 1,1,-1
 145.616 121 l 1,2,-1
 375.665 1436 l 1,3,-1
 233.465 1436 l 1,4,-1
 254.458 1556 l 1,5,-1
 715.259 1556 l 1,6,-1
 602.771 913 l 1,7,8
 676.989 1008 676.989 1008 758.137 1050 c 128,-1,9
 839.284 1092 839.284 1092 951.784 1092 c 0,10,11
 1112.89 1092 1112.89 1092 1176.78 986.5 c 128,-1,12
 1240.67 881 1240.67 881 1204.81 676 c 2,13,-1
 1107.71 121 l 1,14,-1
 1244.51 121 l 1,15,-1
 1223.35 0 l 1,16,-1
 651.848 0 l 1,17,-1
 673.016 121 l 1,18,-1
 789.116 121 l 1,19,-1
 887.958 686 l 2,20,21
 911.575 821 911.575 821 889.71 873.5 c 128,-1,22
 867.845 926 867.845 926 791.345 926 c 0,23,24
 695.045 926 695.045 926 636.312 847.5 c 128,-1,25
 577.579 769 577.579 769 547.664 598 c 2,26,-1
 464.216 121 l 1,27,-1
 581.216 121 l 1,28,-1
 560.048 0 l 1,29,-1
 -11.4512 0 l 1,0,-1
EndSplineSet
EndChar
StartChar: i
Encoding: 105 105 105
Width: 730
Flags: W
Fore
302.105 1364 m 0,0,1
 316.274 1445 316.274 1445 376.384 1500.5 c 128,-1,2
 436.494 1556 436.494 1556 509.395 1556 c 0,3,4
 580.494 1556 580.494 1556 620.734 1500.5 c 128,-1,5
 660.975 1445 660.975 1445 646.806 1364 c 0,6,7
 632.985 1285 632.985 1285 573.325 1229.5 c 128,-1,8
 513.666 1174 513.666 1174 442.566 1174 c 0,9,10
 369.666 1174 369.666 1174 328.888 1229 c 128,-1,11
 288.109 1284 288.109 1284 302.105 1364 c 0,0,1
432.952 121 m 1,12,-1
 569.752 121 l 1,13,-1
 548.584 0 l 1,14,-1
 -42.7158 0 l 1,15,-1
 -21.5479 121 l 1,16,-1
 114.352 121 l 1,17,-1
 257.979 942 l 1,18,-1
 122.079 942 l 1,19,-1
 143.247 1063 l 1,20,-1
 597.747 1063 l 1,21,-1
 432.952 121 l 1,12,-1
EndSplineSet
EndChar
StartChar: j
Encoding: 106 106 106
Width: 686
Flags: W
Fore
321.678 1364 m 0,0,1
 335.848 1445 335.848 1445 395.507 1500.5 c 128,-1,2
 455.166 1556 455.166 1556 528.967 1556 c 0,3,4
 599.166 1556 599.166 1556 639.77 1500 c 128,-1,5
 680.373 1444 680.373 1444 666.378 1364 c 0,6,7
 652.557 1285 652.557 1285 592.897 1229.5 c 128,-1,8
 533.238 1174 533.238 1174 462.139 1174 c 0,9,10
 389.238 1174 389.238 1174 348.461 1229 c 128,-1,11
 307.683 1284 307.683 1284 321.678 1364 c 0,0,1
284.752 942 m 1,12,-1
 148.853 942 l 1,13,-1
 170.021 1063 l 1,14,-1
 624.521 1063 l 1,15,-1
 416.688 -125 l 2,16,17
 388.173 -288 388.173 -288 269.615 -371.5 c 128,-1,18
 151.059 -455 151.059 -455 -51.4424 -455 c 0,19,20
 -105.441 -455 -105.441 -455 -164.894 -445 c 128,-1,21
 -224.344 -435 -224.344 -435 -286.719 -416 c 1,22,-1
 -247.182 -190 l 1,23,-1
 -145.657 -191 l 1,24,25
 -157.854 -271 -157.854 -271 -137.514 -306.5 c 128,-1,26
 -117.173 -342 -117.173 -342 -57.7734 -342 c 0,27,28
 7.92676 -342 7.92676 -342 42.249 -295 c 128,-1,29
 76.5703 -248 76.5703 -248 98.0889 -125 c 2,30,-1
 284.752 942 l 1,12,-1
EndSplineSet
EndChar
StartChar: k
Encoding: 107 107 107
Width: 1343
Flags: W
Fore
568.804 0 m 1,0,-1
 -6.2959 0 l 1,1,-1
 14.8711 121 l 1,2,-1
 150.771 121 l 1,3,-1
 380.82 1436 l 1,4,-1
 244.921 1436 l 1,5,-1
 265.914 1556 l 1,6,-1
 720.414 1556 l 1,7,-1
 545.646 557 l 1,8,-1
 999.101 942 l 1,9,-1
 884.799 942 l 1,10,-1
 905.967 1063 l 1,11,-1
 1342.47 1063 l 1,12,-1
 1321.3 942 l 1,13,-1
 1144 942 l 1,14,-1
 854.363 696 l 1,15,-1
 1156.97 121 l 1,16,-1
 1260.47 121 l 1,17,-1
 1239.3 0 l 1,18,-1
 690.304 0 l 1,19,-1
 711.472 121 l 1,20,-1
 823.972 121 l 1,21,-1
 624.774 500 l 1,22,-1
 520.279 412 l 1,23,-1
 469.371 121 l 1,24,-1
 589.972 121 l 1,25,-1
 568.804 0 l 1,0,-1
EndSplineSet
KernsSLIFO: 45 -83 0 0
EndChar
StartChar: l
Encoding: 108 108 108
Width: 732
Flags: W
Fore
434.812 121 m 1,0,-1
 571.613 121 l 1,1,-1
 550.444 0 l 1,2,-1
 -40.8545 0 l 1,3,-1
 -19.6875 121 l 1,4,-1
 116.213 121 l 1,5,-1
 346.262 1436 l 1,6,-1
 210.362 1436 l 1,7,-1
 231.355 1556 l 1,8,-1
 685.855 1556 l 1,9,-1
 434.812 121 l 1,0,-1
EndSplineSet
EndChar
StartChar: m
Encoding: 109 109 109
Width: 2050
Flags: W
Fore
1278.77 889 m 1,0,1
 1363.92 995 1363.92 995 1449.79 1043.5 c 128,-1,2
 1535.68 1092 1535.68 1092 1639.18 1092 c 0,3,4
 1803.88 1092 1803.88 1092 1867.22 988.5 c 128,-1,5
 1930.56 885 1930.56 885 1894.01 676 c 2,6,-1
 1796.91 121 l 1,7,-1
 1933.71 121 l 1,8,-1
 1912.55 0 l 1,9,-1
 1342.85 0 l 1,10,-1
 1364.01 121 l 1,11,-1
 1478.31 121 l 1,12,-1
 1566.14 623 l 2,13,14
 1600.95 822 1600.95 822 1582.6 874 c 128,-1,15
 1564.24 926 1564.24 926 1489.54 926 c 0,16,17
 1404.94 926 1404.94 926 1345.46 853.5 c 128,-1,18
 1285.97 781 1285.97 781 1262.53 647 c 2,19,-1
 1170.51 121 l 1,20,-1
 1284.81 121 l 1,21,-1
 1263.65 0 l 1,22,-1
 716.444 0 l 1,23,-1
 737.613 121 l 1,24,-1
 851.913 121 l 1,25,-1
 939.733 623 l 2,26,27
 974.547 822 974.547 822 955.744 874 c 128,-1,28
 936.94 926 936.94 926 863.141 926 c 0,29,30
 777.641 926 777.641 926 718.157 853.5 c 128,-1,31
 658.675 781 658.675 781 635.232 647 c 2,32,-1
 543.213 121 l 1,33,-1
 657.513 121 l 1,34,-1
 636.344 0 l 1,35,-1
 67.5439 0 l 1,36,-1
 88.7129 121 l 1,37,-1
 224.613 121 l 1,38,-1
 368.24 942 l 1,39,-1
 232.341 942 l 1,40,-1
 253.508 1063 l 1,41,-1
 708.008 1063 l 1,42,-1
 681.768 913 l 1,43,44
 753.836 1006 753.836 1006 833.358 1049 c 128,-1,45
 912.882 1092 912.882 1092 1011.88 1092 c 0,46,47
 1128.88 1092 1128.88 1092 1193.12 1042.5 c 128,-1,48
 1257.36 993 1257.36 993 1278.77 889 c 1,0,1
EndSplineSet
EndChar
StartChar: n
Encoding: 110 110 110
Width: 1406
Flags: W
Fore
33.6445 0 m 1,0,-1
 54.8125 121 l 1,1,-1
 190.713 121 l 1,2,-1
 334.341 942 l 1,3,-1
 198.44 942 l 1,4,-1
 219.607 1063 l 1,5,-1
 674.107 1063 l 1,6,-1
 647.867 913 l 1,7,8
 722.087 1008 722.087 1008 803.234 1050 c 128,-1,9
 884.382 1092 884.382 1092 996.88 1092 c 0,10,11
 1157.98 1092 1157.98 1092 1221.87 986.5 c 128,-1,12
 1285.77 881 1285.77 881 1249.91 676 c 2,13,-1
 1152.81 121 l 1,14,-1
 1289.61 121 l 1,15,-1
 1268.45 0 l 1,16,-1
 696.944 0 l 1,17,-1
 718.113 121 l 1,18,-1
 834.213 121 l 1,19,-1
 933.055 686 l 2,20,21
 956.673 821 956.673 821 934.806 873.5 c 128,-1,22
 912.94 926 912.94 926 836.44 926 c 0,23,24
 740.141 926 740.141 926 681.407 847.5 c 128,-1,25
 622.675 769 622.675 769 592.759 598 c 2,26,-1
 509.313 121 l 1,27,-1
 626.313 121 l 1,28,-1
 605.145 0 l 1,29,-1
 33.6445 0 l 1,0,-1
EndSplineSet
EndChar
StartChar: o
Encoding: 111 111 111
Width: 1297
Flags: W
Fore
605.729 84 m 0,0,1
 706.529 84 706.529 84 764.274 180 c 0,2,3
 822.019 276 822.019 276 866.804 532 c 0,4,5
 911.588 788 911.588 788 887.796 883.5 c 0,6,7
 864.002 979 864.002 979 762.302 979 c 128,-1,8
 660.603 979 660.603 979 602.321 882.5 c 0,9,10
 544.039 786 544.039 786 499.604 532 c 0,11,12
 455.168 278 455.168 278 479.599 181 c 0,13,14
 504.029 84 504.029 84 605.729 84 c 0,0,1
585.961 -29 m 0,15,16
 333.061 -29 333.061 -29 215.664 120.5 c 0,17,18
 98.2686 270 98.2686 270 144.104 532 c 0,19,20
 190.113 795 190.113 795 359.643 943.5 c 0,21,22
 529.171 1092 529.171 1092 782.07 1092 c 0,23,24
 1035.87 1092 1035.87 1092 1152.99 943.5 c 0,25,26
 1270.11 795 1270.11 795 1224.11 532 c 0,27,28
 1178.27 270 1178.27 270 1008.56 120.5 c 0,29,30
 838.86 -29 838.86 -29 585.961 -29 c 0,15,16
EndSplineSet
KernsSLIFO: 46 -36 0 0
EndChar
StartChar: p
Encoding: 112 112 112
Width: 1354
Flags: W
Fore
606.863 584 m 2,0,-1
 588.495 479 l 2,1,2
 555.956 293 555.956 293 584.185 210 c 128,-1,3
 612.415 127 612.415 127 707.815 127 c 0,4,5
 805.915 127 805.915 127 861.359 215 c 128,-1,6
 916.806 303 916.806 303 956.867 532 c 0,7,8
 996.924 761 996.924 761 972.184 848.5 c 128,-1,9
 947.443 936 947.443 936 849.343 936 c 0,10,11
 753.943 936 753.943 936 696.673 853 c 128,-1,12
 639.402 770 639.402 770 606.863 584 c 2,0,-1
350.894 942 m 1,13,-1
 214.094 942 l 1,14,-1
 235.261 1063 l 1,15,-1
 690.66 1063 l 1,16,-1
 667.044 928 l 1,17,18
 722.064 1011 722.064 1011 797.549 1051.5 c 128,-1,19
 873.034 1092 873.034 1092 973.83 1092 c 0,20,21
 1178.13 1092 1178.13 1092 1269.43 942.5 c 128,-1,22
 1360.73 793 1360.73 793 1315.07 532 c 0,23,24
 1269.41 271 1269.41 271 1125.71 121 c 128,-1,25
 982.021 -29 982.021 -29 777.725 -29 c 0,26,27
 676.925 -29 676.925 -29 615.609 11.5 c 128,-1,28
 554.294 52 554.294 52 528.314 135 c 1,29,-1
 451.34 -305 l 1,30,-1
 598.939 -305 l 1,31,-1
 577.772 -426 l 1,32,-1
 -25.2275 -426 l 1,33,-1
 -4.05957 -305 l 1,34,-1
 132.74 -305 l 1,35,-1
 350.894 942 l 1,13,-1
EndSplineSet
EndChar
StartChar: q
Encoding: 113 113 113
Width: 1370
Flags: W
Fore
1297.82 942 m 1,0,-1
 1079.67 -305 l 1,1,-1
 1215.57 -305 l 1,2,-1
 1194.4 -426 l 1,3,-1
 592.297 -426 l 1,4,-1
 613.464 -305 l 1,5,-1
 761.063 -305 l 1,6,-1
 838.039 135 l 1,7,8
 783.019 52 783.019 52 707.084 11.5 c 128,-1,9
 631.148 -29 631.148 -29 530.349 -29 c 0,10,11
 326.949 -29 326.949 -29 236.639 121 c 128,-1,12
 146.331 271 146.331 271 191.991 532 c 0,13,14
 237.825 794 237.825 794 380.442 943 c 128,-1,15
 523.059 1092 523.059 1092 726.458 1092 c 0,16,17
 827.259 1092 827.259 1092 889.023 1051.5 c 128,-1,18
 950.788 1011 950.788 1011 976.768 928 c 1,19,-1
 1000.39 1063 l 1,20,-1
 1454.89 1063 l 1,21,-1
 1433.72 942 l 1,22,-1
 1297.82 942 l 1,0,-1
916.587 584 m 2,23,24
 949.127 770 949.127 770 920.447 853 c 128,-1,25
 891.768 936 891.768 936 797.268 936 c 0,26,27
 698.268 936 698.268 936 642.91 848.5 c 128,-1,28
 587.552 761 587.552 761 547.491 532 c 0,29,30
 507.43 303 507.43 303 532.534 215 c 128,-1,31
 557.64 127 557.64 127 655.739 127 c 0,32,33
 750.239 127 750.239 127 807.959 210 c 128,-1,34
 865.68 293 865.68 293 898.22 479 c 2,35,-1
 916.587 584 l 2,23,24
EndSplineSet
EndChar
StartChar: r
Encoding: 114 114 114
Width: 1029
Flags: W
Fore
1140.88 1075 m 1,0,-1
 1085.42 758 l 1,1,-1
 983.724 758 l 1,2,3
 993.191 843 993.191 843 964.455 884.5 c 128,-1,4
 935.713 926 935.713 926 867.312 926 c 0,5,6
 762.912 926 762.912 926 684.77 824 c 128,-1,7
 606.625 722 606.625 722 574.96 541 c 2,8,-1
 501.485 121 l 1,9,-1
 675.185 121 l 1,10,-1
 654.016 0 l 1,11,-1
 25.8164 0 l 1,12,-1
 46.9844 121 l 1,13,-1
 182.885 121 l 1,14,-1
 326.513 942 l 1,15,-1
 180.713 942 l 1,16,-1
 201.88 1063 l 1,17,-1
 666.279 1063 l 1,18,-1
 633.216 874 l 1,19,20
 699.435 985 699.435 985 785.744 1038.5 c 128,-1,21
 872.054 1092 872.054 1092 983.652 1092 c 0,22,23
 1011.55 1092 1011.55 1092 1050.82 1087.5 c 128,-1,24
 1090.08 1083 1090.08 1083 1140.88 1075 c 1,0,-1
EndSplineSet
KernsSLIFO: 8217 75 0 0 8216 75 0 0 8221 75 0 0 8220 75 0 0 46 -188 0 0 44 -149 0 0
EndChar
StartChar: s
Encoding: 115 115 115
Width: 1093
Flags: W
Fore
54.3027 31 m 1,0,-1
 106.26 328 l 1,1,-1
 207.96 328 l 1,2,3
 199.742 209 199.742 209 256.309 146.5 c 128,-1,4
 312.875 84 312.875 84 428.975 84 c 0,5,6
 526.175 84 526.175 84 584.484 121.5 c 128,-1,7
 642.796 159 642.796 159 655.041 229 c 0,8,9
 666.238 293 666.238 293 639.51 328 c 128,-1,10
 612.783 363 612.783 363 522.832 389 c 2,11,-1
 397.905 426 l 2,12,13
 256.578 467 256.578 467 203.361 543.5 c 128,-1,14
 150.144 620 150.144 620 172.886 750 c 0,15,16
 203.151 923 203.151 923 325.934 1007.5 c 128,-1,17
 448.716 1092 448.716 1092 673.716 1092 c 0,18,19
 758.316 1092 758.316 1092 851.455 1076.5 c 128,-1,20
 944.594 1061 944.594 1061 1054.92 1028 c 1,21,-1
 1008.04 760 l 1,22,-1
 906.336 760 l 1,23,24
 917.305 869 917.305 869 865.275 924 c 128,-1,25
 813.248 979 813.248 979 698.048 979 c 0,26,27
 600.848 979 600.848 979 544.862 944.5 c 128,-1,28
 488.877 910 488.877 910 477.331 844 c 0,29,30
 467.884 790 467.884 790 491.261 759 c 128,-1,31
 514.637 728 514.637 728 585.663 707 c 2,32,-1
 709.691 670 l 2,33,34
 888.519 617 888.519 617 946.873 539 c 128,-1,35
 1005.23 461 1005.23 461 980.913 322 c 0,36,37
 949.421 142 949.421 142 818.813 56.5 c 128,-1,38
 688.206 -29 688.206 -29 444.306 -29 c 0,39,40
 355.206 -29 355.206 -29 257.931 -14 c 128,-1,41
 160.654 1 160.654 1 54.3027 31 c 1,0,-1
EndSplineSet
EndChar
StartChar: t
Encoding: 116 116 116
Width: 902
Flags: W
Fore
279.465 942 m 1,0,-1
 140.865 942 l 1,1,-1
 162.033 1063 l 1,2,-1
 300.633 1063 l 1,3,-1
 358.363 1393 l 1,4,-1
 676.964 1393 l 1,5,-1
 619.233 1063 l 1,6,-1
 884.733 1063 l 1,7,-1
 863.565 942 l 1,8,-1
 598.065 942 l 1,9,-1
 484.177 291 l 2,10,11
 459.861 152 459.861 152 473.712 118 c 128,-1,12
 487.564 84 487.564 84 539.765 84 c 0,13,14
 597.365 84 597.365 84 632.787 127 c 128,-1,15
 668.21 170 668.21 170 685.755 260 c 1,16,-1
 819.854 260 l 1,17,18
 783.764 100 783.764 100 701.83 35.5 c 128,-1,19
 619.896 -29 619.896 -29 447.097 -29 c 0,20,21
 249.996 -29 249.996 -29 191.779 39.5 c 128,-1,22
 133.563 108 133.563 108 165.577 291 c 2,23,-1
 279.465 942 l 1,0,-1
EndSplineSet
EndChar
StartChar: u
Encoding: 117 117 117
Width: 1415
Flags: W
Fore
1311.9 1063 m 1,0,-1
 1147.11 121 l 1,1,-1
 1283.01 121 l 1,2,-1
 1261.85 0 l 1,3,-1
 806.442 0 l 1,4,-1
 832.683 150 l 1,5,6
 759.363 55 759.363 55 678.216 13 c 128,-1,7
 597.068 -29 597.068 -29 484.568 -29 c 0,8,9
 323.469 -29 323.469 -29 259.574 76.5 c 128,-1,10
 195.682 182 195.682 182 231.544 387 c 2,11,-1
 328.637 942 l 1,12,-1
 191.837 942 l 1,13,-1
 213.006 1063 l 1,14,-1
 668.406 1063 l 1,15,-1
 559.767 442 l 2,16,17
 525.129 244 525.129 244 545.469 190.5 c 128,-1,18
 565.81 137 565.81 137 645.01 137 c 0,19,20
 741.31 137 741.31 137 799.679 216 c 128,-1,21
 858.05 295 858.05 295 888.14 467 c 2,22,-1
 971.237 942 l 1,23,-1
 855.137 942 l 1,24,-1
 876.306 1063 l 1,25,-1
 1311.9 1063 l 1,0,-1
EndSplineSet
EndChar
StartChar: v
Encoding: 118 118 118
Width: 1140
Flags: W
Fore
387.674 0 m 1,0,-1
 213.169 942 l 1,1,-1
 107.869 942 l 1,2,-1
 129.037 1063 l 1,3,-1
 678.037 1063 l 1,4,-1
 656.869 942 l 1,5,-1
 540.769 942 l 1,6,-1
 665.309 270 l 1,7,-1
 1024.07 942 l 1,8,-1
 898.969 942 l 1,9,-1
 920.137 1063 l 1,10,-1
 1279.23 1063 l 1,11,-1
 1258.07 942 l 1,12,-1
 1147.37 942 l 1,13,-1
 643.273 0 l 1,14,-1
 387.674 0 l 1,0,-1
EndSplineSet
KernsSLIFO: 8217 75 0 0 8216 75 0 0 8221 75 0 0 8220 75 0 0 46 -206 0 0 44 -167 0 0
EndChar
StartChar: w
Encoding: 119 119 119
Width: 1685
Flags: W
Fore
1185.03 1063 m 1,0,-1
 1278.8 354 l 1,1,-1
 1561.67 942 l 1,2,-1
 1436.57 942 l 1,3,-1
 1457.73 1063 l 1,4,-1
 1815.03 1063 l 1,5,-1
 1793.87 942 l 1,6,-1
 1681.37 942 l 1,7,-1
 1227.68 0 l 1,8,-1
 1008.08 0 l 1,9,-1
 922.086 666 l 1,10,-1
 601.273 0 l 1,11,-1
 383.474 0 l 1,12,-1
 258.469 942 l 1,13,-1
 154.069 942 l 1,14,-1
 175.237 1063 l 1,15,-1
 717.037 1063 l 1,16,-1
 695.869 942 l 1,17,-1
 583.369 942 l 1,18,-1
 659.177 367 l 1,19,-1
 995.137 1063 l 1,20,-1
 1185.03 1063 l 1,0,-1
EndSplineSet
KernsSLIFO: 8217 75 0 0 8216 75 0 0 8221 75 0 0 8220 75 0 0 46 -206 0 0 44 -167 0 0
EndChar
StartChar: x
Encoding: 120 120 120
Width: 1158
Flags: W
Fore
732.229 678 m 1,0,-1
 947.613 942 l 1,1,-1
 829.714 942 l 1,2,-1
 850.882 1063 l 1,3,-1
 1223.48 1063 l 1,4,-1
 1202.31 942 l 1,5,-1
 1075.41 942 l 1,6,-1
 765.211 563 l 1,7,-1
 972.289 121 l 1,8,-1
 1099.19 121 l 1,9,-1
 1078.02 0 l 1,10,-1
 469.618 0 l 1,11,-1
 490.786 121 l 1,12,-1
 614.086 121 l 1,13,-1
 483.07 401 l 1,14,-1
 253.187 121 l 1,15,-1
 381.886 121 l 1,16,-1
 360.718 0 l 1,17,-1
 -33.4814 0 l 1,18,-1
 -12.3135 121 l 1,19,-1
 124.486 121 l 1,20,-1
 447.738 518 l 1,21,-1
 247.413 942 l 1,22,-1
 140.313 942 l 1,23,-1
 161.481 1063 l 1,24,-1
 745.581 1063 l 1,25,-1
 724.414 942 l 1,26,-1
 608.313 942 l 1,27,-1
 732.229 678 l 1,0,-1
EndSplineSet
KernsSLIFO: 45 -36 0 0
EndChar
StartChar: y
Encoding: 121 121 121
Width: 1138
Flags: W
Fore
547.299 -240 m 1,0,1
 483.631 -357 483.631 -357 413.858 -406 c 128,-1,2
 344.086 -455 344.086 -455 240.587 -455 c 0,3,4
 196.487 -455 196.487 -455 144.411 -444 c 128,-1,5
 92.3359 -433 92.3359 -433 32.1084 -412 c 1,6,-1
 70.9463 -190 l 1,7,-1
 172.472 -191 l 1,8,9
 161.7 -268 161.7 -268 185.378 -305 c 128,-1,10
 209.056 -342 209.056 -342 269.355 -342 c 0,11,12
 327.855 -342 327.855 -342 370.065 -306.5 c 128,-1,13
 412.275 -271 412.275 -271 465.595 -172 c 1,14,-1
 486.468 -135 l 1,15,-1
 258.182 942 l 1,16,-1
 154.681 942 l 1,17,-1
 175.849 1063 l 1,18,-1
 727.548 1063 l 1,19,-1
 706.381 942 l 1,20,-1
 592.081 942 l 1,21,-1
 725.042 313 l 1,22,-1
 1061.88 942 l 1,23,-1
 934.981 942 l 1,24,-1
 956.148 1063 l 1,25,-1
 1315.25 1063 l 1,26,-1
 1294.08 942 l 1,27,-1
 1177.98 942 l 1,28,-1
 547.299 -240 l 1,0,1
EndSplineSet
KernsSLIFO: 8217 75 0 0 8216 75 0 0 8221 75 0 0 8220 75 0 0 46 -235 0 0 44 -196 0 0
EndChar
StartChar: z
Encoding: 122 122 122
Width: 1104
Flags: W
Fore
30.1182 0 m 1,0,-1
 51.2861 121 l 1,1,-1
 744.613 946 l 1,2,-1
 331.513 946 l 1,3,-1
 299.674 764 l 1,4,-1
 192.573 764 l 1,5,-1
 244.882 1063 l 1,6,-1
 1135.88 1063 l 1,7,-1
 1115.06 944 l 1,8,-1
 420.836 119 l 1,9,-1
 863.636 119 l 1,10,-1
 897.225 311 l 1,11,-1
 1004.33 311 l 1,12,-1
 949.918 0 l 1,13,-1
 30.1182 0 l 1,0,-1
EndSplineSet
EndChar
StartChar: braceleft
Encoding: 123 123 123
Width: 1259
Flags: W
Fore
949.399 -213 m 1,0,-1
 928.231 -334 l 1,1,-1
 795.031 -334 l 2,2,3
 582.631 -334 582.631 -334 513.117 -309.5 c 128,-1,4
 443.603 -285 443.603 -285 409.449 -223 c 0,5,6
 389.647 -187 389.647 -187 388.019 -132 c 128,-1,7
 386.392 -77 386.392 -77 405.984 35 c 2,8,-1
 449.72 285 l 2,9,10
 476.136 436 476.136 436 438.045 493.5 c 128,-1,11
 399.955 551 399.955 551 273.055 551 c 2,12,-1
 218.154 551 l 1,13,-1
 239.322 672 l 1,14,-1
 294.223 672 l 2,15,16
 421.123 672 421.123 672 479.332 729.5 c 128,-1,17
 537.541 787 537.541 787 563.957 938 c 2,18,-1
 607.692 1188 l 2,19,20
 627.286 1300 627.286 1300 648.07 1354.5 c 128,-1,21
 668.854 1409 668.854 1409 701.429 1446 c 0,22,23
 757.1 1507 757.1 1507 835.186 1531.5 c 128,-1,24
 913.271 1556 913.271 1556 1125.67 1556 c 2,25,-1
 1258.87 1556 l 1,26,-1
 1237.88 1436 l 1,27,-1
 1145.18 1436 l 2,28,29
 1044.38 1436 1044.38 1436 999.259 1389 c 128,-1,30
 954.134 1342 954.134 1342 930.342 1206 c 2,31,-1
 883.108 936 l 2,32,33
 855.293 777 855.293 777 798.933 709.5 c 128,-1,34
 742.574 642 742.574 642 621.226 612 c 1,35,36
 733.178 578 733.178 578 765.281 512 c 128,-1,37
 797.387 446 797.387 446 769.57 287 c 2,38,-1
 722.161 16 l 2,39,40
 698.544 -119 698.544 -119 727.222 -166 c 128,-1,41
 755.899 -213 755.899 -213 856.699 -213 c 2,42,-1
 949.399 -213 l 1,0,-1
EndSplineSet
EndChar
StartChar: bar
Encoding: 124 124 124
Width: 707
Flags: W
Fore
647.392 1565 m 1,0,-1
 289.108 -483 l 1,1,-1
 95.6084 -483 l 1,2,-1
 453.892 1565 l 1,3,-1
 647.392 1565 l 1,0,-1
EndSplineSet
EndChar
StartChar: braceright
Encoding: 125 125 125
Width: 1243
Flags: W
Fore
81.2061 -213 m 1,0,-1
 172.106 -213 l 2,1,2
 272.007 -213 272.007 -213 317.579 -166 c 128,-1,3
 363.151 -119 363.151 -119 386.769 16 c 2,4,-1
 434.178 287 l 2,5,6
 461.643 444 461.643 444 517.464 511 c 128,-1,7
 573.285 578 573.285 578 698.033 612 c 1,8,9
 586.281 642 586.281 642 553.177 710 c 128,-1,10
 520.074 778 520.074 778 547.715 936 c 2,11,-1
 594.949 1206 l 2,12,13
 618.741 1342 618.741 1342 589.613 1389 c 128,-1,14
 560.485 1436 560.485 1436 460.585 1436 c 2,15,-1
 369.686 1436 l 1,16,-1
 390.679 1556 l 1,17,-1
 522.079 1556 l 2,18,19
 734.479 1556 734.479 1556 803.993 1531.5 c 128,-1,20
 873.507 1507 873.507 1507 907.836 1446 c 0,21,22
 927.462 1409 927.462 1409 929.178 1354.5 c 128,-1,23
 930.894 1300 930.894 1300 911.3 1188 c 2,24,-1
 867.564 938 l 2,25,26
 841.148 787 841.148 787 879.239 729.5 c 128,-1,27
 917.33 672 917.33 672 1043.33 672 c 2,28,-1
 1099.13 672 l 1,29,-1
 1077.96 551 l 1,30,-1
 1022.16 551 l 2,31,32
 896.162 551 896.162 551 837.952 493.5 c 128,-1,33
 779.743 436 779.743 436 753.327 285 c 2,34,-1
 709.592 35 l 2,35,36
 689.999 -77 689.999 -77 669.126 -132 c 128,-1,37
 648.255 -187 648.255 -187 615.856 -223 c 0,38,39
 560.01 -285 560.01 -285 481.924 -309.5 c 128,-1,40
 403.839 -334 403.839 -334 191.438 -334 c 2,41,-1
 60.0381 -334 l 1,42,-1
 81.2061 -213 l 1,0,-1
EndSplineSet
EndChar
StartChar: asciitilde
Encoding: 126 126 126
Width: 1630
Flags: W
Fore
1467.97 831 m 1,0,-1
 1431.93 625 l 1,1,2
 1333.18 539 1333.18 539 1241.86 498 c 128,-1,3
 1150.54 457 1150.54 457 1059.64 457 c 0,4,5
 974.136 457 974.136 457 847.481 515 c 0,6,7
 833.232 521 833.232 521 826.557 524 c 0,8,9
 820.781 527 820.781 527 809.956 532 c 0,10,11
 666.702 598 666.702 598 579.402 598 c 0,12,13
 510.103 598 510.103 598 428.654 562 c 128,-1,14
 347.207 526 347.207 526 248.036 453 c 1,15,-1
 284.074 659 l 1,16,17
 385.694 746 385.694 746 476.029 786.5 c 128,-1,18
 566.364 827 566.364 827 656.364 827 c 0,19,20
 741.864 827 741.864 827 867.793 770 c 0,21,22
 882.769 763 882.769 763 889.443 760 c 2,23,-1
 901.894 754 l 2,24,25
 1045.7 686 1045.7 686 1136.59 686 c 0,26,27
 1205.9 686 1205.9 686 1287.34 722 c 128,-1,28
 1368.79 758 1368.79 758 1467.97 831 c 1,0,-1
EndSplineSet
EndChar
StartChar: exclamdown
Encoding: 161 161 161
Width: 852
Flags: W
Fore
718.027 1329 m 0,0,1
 704.381 1251 704.381 1251 644.359 1196 c 128,-1,2
 584.338 1141 584.338 1141 514.138 1141 c 0,3,4
 443.038 1141 443.038 1141 403.16 1196 c 128,-1,5
 363.28 1251 363.28 1251 376.928 1329 c 0,6,7
 390.747 1408 390.747 1408 450.494 1464 c 128,-1,8
 510.241 1520 510.241 1520 580.44 1520 c 0,9,10
 650.641 1520 650.641 1520 691.156 1463.5 c 128,-1,11
 731.672 1407 731.672 1407 718.027 1329 c 0,0,1
483.729 0 m 1,12,-1
 146.229 0 l 1,13,-1
 398.83 842 l 1,14,-1
 432.068 1032 l 1,15,-1
 557.169 1032 l 1,16,-1
 523.93 842 l 1,17,-1
 483.729 0 l 1,12,-1
EndSplineSet
EndChar
StartChar: cent
Encoding: 162 162 162
Width: 1354
Flags: W
Fore
660.935 94 m 1,0,-1
 814.01 969 l 1,1,2
 720.535 944 720.535 944 663.803 843.5 c 128,-1,3
 607.071 743 607.071 743 570.16 532 c 0,4,5
 533.246 321 533.246 321 554.453 221 c 128,-1,6
 575.658 121 575.658 121 660.935 94 c 1,0,-1
1147.17 332 m 1,7,8
 1090.91 175 1090.91 175 990.198 85.5 c 128,-1,9
 889.489 -4 889.489 -4 749.366 -23 c 1,10,-1
 701.082 -299 l 1,11,-1
 592.182 -299 l 1,12,-1
 639.417 -29 l 1,13,14
 391.166 -23 391.166 -23 280.896 123.5 c 128,-1,15
 170.625 270 170.625 270 216.46 532 c 0,16,17
 262.294 794 262.294 794 423.648 939.5 c 128,-1,18
 585.003 1085 585.003 1085 835.526 1092 c 1,19,-1
 881.712 1356 l 1,20,-1
 990.612 1356 l 1,21,-1
 943.553 1087 l 1,22,23
 995.949 1083 995.949 1083 1065.08 1064 c 128,-1,24
 1134.21 1045 1134.21 1045 1233.94 1008 c 1,25,-1
 1182.32 713 l 1,26,-1
 1080.62 713 l 1,27,28
 1089.17 839 1089.17 839 1050.95 903.5 c 128,-1,29
 1012.73 968 1012.73 968 924.658 979 c 1,30,-1
 768.784 88 l 1,31,32
 853.483 104 853.483 104 910.956 165 c 128,-1,33
 968.427 226 968.427 226 997.767 332 c 1,34,-1
 1147.17 332 l 1,7,8
EndSplineSet
EndChar
StartChar: sterling
Encoding: 163 163 163
Width: 1351
Flags: W
Fore
1268.99 1202 m 1,0,-1
 1160.99 1202 l 1,1,2
 1172.55 1299 1172.55 1299 1137.45 1353 c 128,-1,3
 1102.34 1407 1102.34 1407 1026.74 1407 c 0,4,5
 921.447 1407 921.447 1407 862.515 1332.5 c 128,-1,6
 803.582 1258 803.582 1258 772.967 1083 c 2,7,-1
 726.082 815 l 1,8,-1
 1042.88 815 l 1,9,-1
 1021.71 694 l 1,10,-1
 704.914 694 l 1,11,-1
 607.471 137 l 1,12,-1
 985.47 137 l 1,13,-1
 1025.36 365 l 1,14,-1
 1148.66 365 l 1,15,-1
 1084.8 0 l 1,16,-1
 68.7031 0 l 1,17,-1
 89.8721 121 l 1,18,-1
 263.572 121 l 1,19,-1
 363.813 694 l 1,20,-1
 190.114 694 l 1,21,-1
 211.282 815 l 1,22,-1
 384.982 815 l 1,23,-1
 433.44 1092 l 2,24,25
 471.229 1308 471.229 1308 609.923 1414 c 128,-1,26
 748.616 1520 748.616 1520 995.217 1520 c 0,27,28
 1053.72 1520 1053.72 1520 1133.59 1511 c 128,-1,29
 1213.47 1502 1213.47 1502 1318.5 1485 c 1,30,-1
 1268.99 1202 l 1,0,-1
EndSplineSet
EndChar
StartChar: currency
Encoding: 164 164 164
Width: 1238
Flags: W
Fore
614.738 422 m 0,0,1
 696.638 422 696.638 422 765.346 485.5 c 128,-1,2
 834.056 549 834.056 549 850.15 641 c 0,3,4
 866.245 733 866.245 733 820.204 796.5 c 128,-1,5
 774.162 860 774.162 860 691.362 860 c 0,6,7
 609.462 860 609.462 860 540.755 796.5 c 128,-1,8
 472.045 733 472.045 733 455.95 641 c 0,9,10
 439.681 548 439.681 548 485.359 485 c 128,-1,11
 531.038 422 531.038 422 614.738 422 c 0,0,1
392.497 268 m 1,12,-1
 168.185 61 l 1,13,-1
 59.2256 215 l 1,14,-1
 283.888 424 l 1,15,16
 264.035 470 264.035 470 260.344 523.5 c 128,-1,17
 256.654 577 256.654 577 267.851 641 c 0,18,19
 278.872 704 278.872 704 301.818 758 c 128,-1,20
 324.766 812 324.766 812 359.813 858 c 1,21,-1
 207.575 1063 l 1,22,-1
 372.916 1221 l 1,23,-1
 522.305 1010 l 1,24,25
 570.752 1040 570.752 1040 621.889 1054.5 c 128,-1,26
 673.024 1069 673.024 1069 727.925 1069 c 0,27,28
 777.425 1069 777.425 1069 823.938 1054.5 c 128,-1,29
 870.452 1040 870.452 1040 916.505 1010 c 1,30,-1
 1137.92 1221 l 1,31,-1
 1247.78 1067 l 1,32,-1
 1023.81 862 l 1,33,34
 1041.01 806 1041.01 806 1044.35 750.5 c 128,-1,35
 1047.7 695 1047.7 695 1038.25 641 c 0,36,37
 1027.23 578 1027.23 578 1005 525.5 c 128,-1,38
 982.756 473 982.756 473 947.537 426 c 1,39,-1
 1098.72 215 l 1,40,-1
 931.384 61 l 1,41,-1
 781.996 272 l 1,42,43
 735.348 242 735.348 242 685.112 227.5 c 128,-1,44
 634.876 213 634.876 213 578.176 213 c 0,45,46
 525.976 213 525.976 213 479.823 227 c 128,-1,47
 433.674 241 433.674 241 392.497 268 c 1,12,-1
EndSplineSet
EndChar
StartChar: yen
Encoding: 165 165 165
Width: 1360
Flags: W
Fore
241.095 0 m 1,0,-1
 262.262 121 l 1,1,-1
 433.262 121 l 1,2,-1
 493.792 467 l 1,3,-1
 131.093 467 l 1,4,-1
 151.561 584 l 1,5,-1
 514.26 584 l 1,6,-1
 524.582 643 l 1,7,-1
 493.299 778 l 1,8,-1
 185.499 778 l 1,9,-1
 205.967 895 l 1,10,-1
 463.367 895 l 1,11,-1
 346.115 1372 l 1,12,-1
 222.815 1372 l 1,13,-1
 243.982 1493 l 1,14,-1
 868.582 1493 l 1,15,-1
 847.415 1372 l 1,16,-1
 694.415 1372 l 1,17,-1
 830.222 821 l 1,18,-1
 1157.01 1372 l 1,19,-1
 1021.11 1372 l 1,20,-1
 1042.28 1493 l 1,21,-1
 1434.68 1493 l 1,22,-1
 1413.51 1372 l 1,23,-1
 1292.01 1372 l 1,24,-1
 1009.67 895 l 1,25,-1
 1272.47 895 l 1,26,-1
 1252 778 l 1,27,-1
 936.999 778 l 1,28,-1
 869.006 662 l 1,29,-1
 855.36 584 l 1,30,-1
 1218.06 584 l 1,31,-1
 1197.59 467 l 1,32,-1
 834.893 467 l 1,33,-1
 774.362 121 l 1,34,-1
 945.362 121 l 1,35,-1
 924.195 0 l 1,36,-1
 241.095 0 l 1,0,-1
EndSplineSet
EndChar
StartChar: brokenbar
Encoding: 166 166 166
Width: 707
Flags: W
Fore
624.123 1432 m 1,0,-1
 491.518 674 l 1,1,-1
 298.018 674 l 1,2,-1
 430.623 1432 l 1,3,-1
 624.123 1432 l 1,0,-1
444.982 408 m 1,4,-1
 312.377 -350 l 1,5,-1
 118.877 -350 l 1,6,-1
 251.482 408 l 1,7,-1
 444.982 408 l 1,4,-1
EndSplineSet
EndChar
StartChar: section
Encoding: 167 167 167
Width: 1016
Flags: W
Fore
1002.09 1475 m 1,0,-1
 960.102 1235 l 1,1,-1
 853.005 1235 l 1,2,3
 862.649 1321 862.649 1321 823.371 1364 c 128,-1,4
 784.094 1407 784.094 1407 696.794 1407 c 0,5,6
 623.895 1407 623.895 1407 576.472 1370 c 128,-1,7
 529.049 1333 529.049 1333 517.328 1266 c 0,8,9
 509.105 1219 509.105 1219 527.632 1186 c 128,-1,10
 546.159 1153 546.159 1153 618.938 1106 c 2,11,-1
 727.841 1034 l 1,12,13
 880.797 936 880.797 936 929.552 852 c 128,-1,14
 978.309 768 978.309 768 958.185 653 c 0,15,16
 939.994 549 939.994 549 875.748 475 c 128,-1,17
 811.503 401 811.503 401 701.381 358 c 1,18,19
 767.858 311 767.858 311 791.398 247.5 c 128,-1,20
 814.939 184 814.939 184 799.195 94 c 0,21,22
 775.228 -43 775.228 -43 663.833 -119 c 128,-1,23
 552.437 -195 552.437 -195 372.437 -195 c 0,24,25
 297.737 -195 297.737 -195 218.3 -183.5 c 128,-1,26
 138.861 -172 138.861 -172 50.9092 -150 c 1,27,-1
 92.8945 90 l 1,28,-1
 199.095 90 l 1,29,30
 190.551 0 190.551 0 230.179 -41 c 128,-1,31
 269.806 -82 269.806 -82 365.205 -82 c 0,32,33
 443.506 -82 443.506 -82 491.828 -45 c 128,-1,34
 540.151 -8 540.151 -8 552.222 61 c 0,35,36
 560.444 108 560.444 108 542.368 141 c 128,-1,37
 524.29 174 524.29 174 450.612 221 c 2,38,-1
 341.709 293 l 2,39,40
 189.828 392 189.828 392 140.623 476 c 128,-1,41
 91.418 560 91.418 560 111.361 674 c 0,42,43
 129.381 777 129.381 777 193.901 850 c 128,-1,44
 258.422 923 258.422 923 369.619 967 c 1,45,46
 302.967 1013 302.967 1013 278.701 1077.5 c 128,-1,47
 254.435 1142 254.435 1142 270.004 1231 c 0,48,49
 293.797 1367 293.797 1367 405.279 1443.5 c 128,-1,50
 516.763 1520 516.763 1520 693.163 1520 c 0,51,52
 759.763 1520 759.763 1520 836.051 1508.5 c 128,-1,53
 912.339 1497 912.339 1497 1002.09 1475 c 1,0,-1
449.873 901 m 1,54,55
 404.5 868 404.5 868 376.978 829 c 128,-1,56
 349.454 790 349.454 790 341.582 745 c 0,57,58
 330.911 684 330.911 684 362.939 633 c 128,-1,59
 394.968 582 394.968 582 483.82 524 c 2,60,-1
 619.626 436 l 1,61,62
 666.248 471 666.248 471 694.309 510.5 c 128,-1,63
 722.369 550 722.369 550 729.716 592 c 0,64,65
 740.213 652 740.213 652 707.284 703 c 128,-1,66
 674.357 754 674.357 754 583.879 813 c 2,67,-1
 449.873 901 l 1,54,55
EndSplineSet
EndChar
StartChar: dieresis
Encoding: 168 168 168
Width: 992
Flags: W
Fore
372.118 1468 m 0,0,1
 382.919 1528 382.919 1528 429.719 1571 c 128,-1,2
 476.519 1614 476.519 1614 530.519 1614 c 128,-1,3
 584.519 1614 584.519 1614 616.019 1571 c 0,4,5
 646.618 1528 646.618 1528 635.818 1468 c 128,-1,6
 625.019 1408 625.019 1408 579.118 1364 c 0,7,8
 533.219 1321 533.219 1321 480.118 1321 c 0,9,10
 426.118 1321 426.118 1321 393.719 1365 c 0,11,12
 362.219 1409 362.219 1409 372.118 1468 c 0,0,1
774.419 1468 m 0,13,14
 785.219 1528 785.219 1528 832.019 1571 c 0,15,16
 877.918 1614 877.918 1614 931.919 1614 c 128,-1,17
 985.918 1614 985.918 1614 1018.32 1571 c 128,-1,18
 1050.72 1528 1050.72 1528 1039.92 1468 c 0,19,20
 1030.02 1409 1030.02 1409 982.318 1365 c 0,21,22
 935.519 1321 935.519 1321 881.519 1321 c 128,-1,23
 827.519 1321 827.519 1321 796.019 1365 c 128,-1,24
 764.519 1409 764.519 1409 774.419 1468 c 0,13,14
EndSplineSet
LCarets: 0 65535 '    ' 1 0 
Ligature: 0 1 'liga' space uni0308
EndChar
StartChar: copyright
Encoding: 169 169 169
Width: 1945
Flags: W
Fore
1153.88 1485 m 0,0,1
 1290.68 1485 1290.68 1485 1399.41 1430 c 128,-1,2
 1508.14 1375 1508.14 1375 1587.17 1266 c 0,3,4
 1666.2 1157 1666.2 1157 1691.89 1026 c 128,-1,5
 1717.56 895 1717.56 895 1690.63 741 c 0,6,7
 1664.03 589 1664.03 589 1592.61 458.5 c 128,-1,8
 1521.17 328 1521.17 328 1404 219 c 0,9,10
 1286.83 110 1286.83 110 1158.86 55 c 128,-1,11
 1030.89 0 1030.89 0 894.093 0 c 0,12,13
 757.293 0 757.293 0 648.563 55 c 128,-1,14
 539.836 110 539.836 110 460.805 219 c 0,15,16
 381.773 328 381.773 328 356.003 458.5 c 128,-1,17
 330.233 589 330.233 589 356.824 741 c 0,18,19
 383.766 895 383.766 895 455.282 1026 c 128,-1,20
 526.8 1157 526.8 1157 643.969 1266 c 0,21,22
 761.138 1375 761.138 1375 889.11 1430 c 128,-1,23
 1017.08 1485 1017.08 1485 1153.88 1485 c 0,0,1
1126.94 1331 m 0,24,25
 1018.04 1331 1018.04 1331 916.831 1287.5 c 128,-1,26
 815.62 1244 815.62 1244 722.1 1157 c 0,27,28
 629.655 1071 629.655 1071 572.849 967.5 c 128,-1,29
 516.042 864 516.042 864 494.524 741 c 0,30,31
 473.182 619 473.182 619 493.775 515.5 c 128,-1,32
 514.368 412 514.368 412 576.724 326 c 0,33,34
 639.078 240 639.078 240 725.606 197 c 128,-1,35
 812.133 154 812.133 154 921.033 154 c 0,36,37
 1031.74 154 1031.74 154 1131.87 196.5 c 128,-1,38
 1232 239 1232 239 1325.52 326 c 0,39,40
 1417.97 412 1417.97 412 1474.78 515.5 c 128,-1,41
 1531.58 619 1531.58 619 1552.93 741 c 0,42,43
 1574.45 864 1574.45 864 1553.85 967.5 c 128,-1,44
 1533.25 1071 1533.25 1071 1470.9 1157 c 0,45,46
 1407.1 1245 1407.1 1245 1321.46 1288 c 128,-1,47
 1235.84 1331 1235.84 1331 1126.94 1331 c 0,24,25
1325.86 580 m 1,48,49
 1277.24 441 1277.24 441 1182.65 371 c 128,-1,50
 1088.05 301 1088.05 301 948.55 301 c 0,51,52
 779.35 301 779.35 301 696.118 422 c 128,-1,53
 612.886 543 612.886 543 647.524 741 c 0,54,55
 682.863 943 682.863 943 809.243 1063.5 c 128,-1,56
 935.624 1184 935.624 1184 1112.02 1184 c 0,57,58
 1183.12 1184 1183.12 1184 1251.88 1165.5 c 128,-1,59
 1320.65 1147 1320.65 1147 1392.13 1108 c 1,60,-1
 1353.12 885 l 1,61,-1
 1258.62 885 l 1,62,63
 1264.26 979 1264.26 979 1226.28 1032 c 128,-1,64
 1188.31 1085 1188.31 1085 1115.41 1085 c 0,65,66
 1021.81 1085 1021.81 1085 952.247 993.5 c 128,-1,67
 882.69 902 882.69 902 854.524 741 c 0,68,69
 826.358 580 826.358 580 863.627 489.5 c 128,-1,70
 900.894 399 900.894 399 995.394 399 c 0,71,72
 1061.09 399 1061.09 399 1113.24 445 c 128,-1,73
 1165.39 491 1165.39 491 1201.66 580 c 1,74,-1
 1325.86 580 l 1,48,49
EndSplineSet
EndChar
StartChar: ordfeminine
Encoding: 170 170 170
Width: 944
Flags: W
Fore
83.6348 639 m 1,0,-1
 801.835 639 l 1,1,-1
 778.218 504 l 1,2,-1
 60.0176 504 l 1,3,-1
 83.6348 639 l 1,0,-1
843.577 1212 m 2,4,-1
 780.248 850 l 1,5,-1
 883.748 850 l 1,6,-1
 867.303 756 l 1,7,-1
 526.202 756 l 1,8,-1
 542.298 848 l 1,9,10
 486.426 791 486.426 791 423.653 764 c 128,-1,11
 360.879 737 360.879 737 284.38 737 c 0,12,13
 173.679 737 173.679 737 124.5 798 c 128,-1,14
 75.3223 859 75.3223 859 95.2656 973 c 0,15,16
 117.658 1101 117.658 1101 213.729 1164 c 128,-1,17
 309.801 1227 309.801 1227 482.602 1227 c 2,18,-1
 608.602 1227 l 1,19,-1
 613.499 1255 l 2,20,21
 629.244 1345 629.244 1345 594.729 1389.5 c 128,-1,22
 560.214 1434 560.214 1434 474.714 1434 c 0,23,24
 406.313 1434 406.313 1434 361.028 1401.5 c 128,-1,25
 315.743 1369 315.743 1369 295.896 1307 c 1,26,-1
 209.496 1307 l 1,27,-1
 238.536 1473 l 1,28,29
 308.261 1496 308.261 1496 379.66 1508 c 128,-1,30
 451.059 1520 451.059 1520 526.659 1520 c 0,31,32
 719.259 1520 719.259 1520 795.413 1446 c 128,-1,33
 871.567 1372 871.567 1372 843.577 1212 c 2,4,-1
569.064 1001 m 2,34,-1
 592.156 1133 l 1,35,-1
 501.256 1133 l 2,36,37
 436.456 1133 436.456 1133 392.545 1095.5 c 128,-1,38
 348.635 1058 348.635 1058 337.265 993 c 0,39,40
 326.418 931 326.418 931 348.007 897.5 c 128,-1,41
 369.596 864 369.596 864 420.896 864 c 0,42,43
 477.596 864 477.596 864 517.82 901 c 128,-1,44
 558.043 938 558.043 938 569.064 1001 c 2,34,-1
EndSplineSet
EndChar
StartChar: guillemotleft
Encoding: 171 171 171
Width: 1217
Flags: W
Fore
1126.34 1069 m 1,0,-1
 1100.62 922 l 1,1,-1
 829.191 600 l 1,2,-1
 988.132 279 l 1,3,-1
 962.244 131 l 1,4,-1
 607.496 516 l 1,5,-1
 636.887 684 l 1,6,-1
 1126.34 1069 l 1,0,-1
712.339 1069 m 1,7,-1
 686.623 922 l 1,8,-1
 414.292 600 l 1,9,-1
 574.135 279 l 1,10,-1
 548.244 131 l 1,11,-1
 193.496 516 l 1,12,-1
 222.887 684 l 1,13,-1
 712.339 1069 l 1,7,-1
EndSplineSet
KernsSLIFO: 356 -149 0 0 84 -149 0 0 74 -73 0 0
EndChar
StartChar: logicalnot
Encoding: 172 172 172
Width: 1633
Flags: W
Fore
281.1 903 m 1,0,-1
 1434.9 903 l 1,1,-1
 1434.9 287 l 1,2,-1
 1228.8 287 l 1,3,-1
 1228.8 676 l 1,4,-1
 281.1 676 l 1,5,-1
 281.1 903 l 1,0,-1
EndSplineSet
EndChar
StartChar: sfthyphen
Encoding: 173 173 173
Width: 807
Flags: W
Fore
166.017 684 m 1,0,-1
 731.217 684 l 1,1,-1
 683.983 414 l 1,2,-1
 118.783 414 l 1,3,-1
 166.017 684 l 1,0,-1
EndSplineSet
EndChar
StartChar: registered
Encoding: 174 174 174
Width: 1945
Flags: W
Fore
1153.8 754 m 1,0,1
 1186.98 743 1186.98 743 1209.34 716.5 c 128,-1,2
 1231.7 690 1231.7 690 1241.63 649 c 2,3,-1
 1294.01 434 l 1,4,-1
 1348.01 434 l 1,5,-1
 1333.67 352 l 1,6,-1
 1132.97 352 l 1,7,-1
 1072.11 606 l 1,8,9
 1055.2 674 1055.2 674 1032.41 695.5 c 128,-1,10
 1009.62 717 1009.62 717 960.126 717 c 2,11,-1
 936.726 717 l 1,12,-1
 887.217 434 l 1,13,-1
 964.616 434 l 1,14,-1
 950.272 352 l 1,15,-1
 618.172 352 l 1,16,-1
 632.517 434 l 1,17,-1
 709.917 434 l 1,18,-1
 822.406 1077 l 1,19,-1
 745.006 1077 l 1,20,-1
 759.35 1159 l 1,21,-1
 1167.05 1159 l 2,22,23
 1275.05 1159 1275.05 1159 1327.53 1104 c 128,-1,24
 1380.01 1049 1380.01 1049 1363.39 954 c 0,25,26
 1347.82 865 1347.82 865 1294.35 814 c 128,-1,27
 1240.87 763 1240.87 763 1153.8 754 c 1,0,1
951.07 799 m 1,28,-1
 1011.37 799 l 2,29,30
 1082.47 799 1082.47 799 1127.02 835 c 128,-1,31
 1171.57 871 1171.57 871 1183.29 938 c 0,32,33
 1195 1005 1195 1005 1163.05 1041 c 128,-1,34
 1131.1 1077 1131.1 1077 1060 1077 c 2,35,-1
 999.706 1077 l 1,36,-1
 951.07 799 l 1,28,-1
1153.88 1485 m 0,37,38
 1290.68 1485 1290.68 1485 1399.41 1430 c 128,-1,39
 1508.14 1375 1508.14 1375 1587.17 1266 c 0,40,41
 1666.2 1157 1666.2 1157 1691.89 1026 c 128,-1,42
 1717.56 895 1717.56 895 1690.63 741 c 0,43,44
 1664.03 589 1664.03 589 1592.61 458.5 c 128,-1,45
 1521.17 328 1521.17 328 1404 219 c 0,46,47
 1286.83 110 1286.83 110 1158.86 55 c 128,-1,48
 1030.89 0 1030.89 0 894.093 0 c 0,49,50
 757.293 0 757.293 0 648.563 55 c 128,-1,51
 539.836 110 539.836 110 460.805 219 c 0,52,53
 381.773 328 381.773 328 356.003 458.5 c 128,-1,54
 330.233 589 330.233 589 356.824 741 c 0,55,56
 383.766 895 383.766 895 455.282 1026 c 128,-1,57
 526.8 1157 526.8 1157 643.969 1266 c 0,58,59
 761.138 1375 761.138 1375 889.11 1430 c 128,-1,60
 1017.08 1485 1017.08 1485 1153.88 1485 c 0,37,38
1126.94 1331 m 0,61,62
 1018.04 1331 1018.04 1331 916.831 1287.5 c 128,-1,63
 815.62 1244 815.62 1244 722.1 1157 c 0,64,65
 629.655 1071 629.655 1071 572.849 967.5 c 128,-1,66
 516.042 864 516.042 864 494.524 741 c 0,67,68
 473.182 619 473.182 619 493.775 515.5 c 128,-1,69
 514.368 412 514.368 412 576.724 326 c 0,70,71
 639.078 240 639.078 240 725.606 197 c 128,-1,72
 812.133 154 812.133 154 921.033 154 c 0,73,74
 1031.74 154 1031.74 154 1131.87 196.5 c 128,-1,75
 1232 239 1232 239 1325.52 326 c 0,76,77
 1417.97 412 1417.97 412 1474.78 515.5 c 128,-1,78
 1531.58 619 1531.58 619 1552.93 741 c 0,79,80
 1574.45 864 1574.45 864 1553.85 967.5 c 128,-1,81
 1533.25 1071 1533.25 1071 1470.9 1157 c 0,82,83
 1407.1 1245 1407.1 1245 1321.46 1288 c 128,-1,84
 1235.84 1331 1235.84 1331 1126.94 1331 c 0,61,62
EndSplineSet
EndChar
StartChar: macron
Encoding: 175 175 175
Width: 986
Flags: W
Fore
384.7 1548 m 1,0,-1
 951.7 1548 l 1,1,-1
 919.3 1360 l 1,2,-1
 352.3 1360 l 1,3,-1
 384.7 1548 l 1,0,-1
EndSplineSet
LCarets: 0 65535 '    ' 1 0 
Ligature: 0 1 'liga' space uni0304
EndChar
StartChar: degree
Encoding: 176 176 176
Width: 972
Flags: W
Fore
570.112 1534 m 0,0,1
 629.512 1534 629.512 1534 679.95 1508.5 c 128,-1,2
 730.39 1483 730.39 1483 765.368 1436 c 1,3,4
 799.27 1388 799.27 1388 810.824 1328 c 128,-1,5
 822.377 1268 822.377 1268 810.481 1200 c 0,6,7
 798.76 1133 798.76 1133 766.126 1072.5 c 128,-1,8
 733.492 1012 733.492 1012 685.119 967 c 0,9,10
 633.522 919 633.522 919 573.262 893.5 c 128,-1,11
 513 868 513 868 451.8 868 c 0,12,13
 324.899 868 324.899 868 255.657 963.5 c 128,-1,14
 186.414 1059 186.414 1059 211.081 1200 c 0,15,16
 235.748 1341 235.748 1341 339.479 1437.5 c 128,-1,17
 443.212 1534 443.212 1534 570.112 1534 c 0,0,1
541.771 1372 m 0,18,19
 476.971 1372 476.971 1372 423.224 1322 c 128,-1,20
 369.477 1272 369.477 1272 356.881 1200 c 0,21,22
 344.286 1128 344.286 1128 380.263 1079 c 128,-1,23
 416.241 1030 416.241 1030 481.94 1030 c 0,24,25
 546.741 1030 546.741 1030 600.4 1079.5 c 128,-1,26
 654.061 1129 654.061 1129 666.481 1200 c 0,27,28
 679.077 1272 679.077 1272 642.374 1322 c 128,-1,29
 605.671 1372 605.671 1372 541.771 1372 c 0,18,19
EndSplineSet
EndChar
StartChar: plusminus
Encoding: 177 177 177
Width: 1626
Flags: W
Fore
205.02 227 m 1,0,-1
 1358.82 227 l 1,1,-1
 1319.11 0 l 1,2,-1
 165.308 0 l 1,3,-1
 205.02 227 l 1,0,-1
1070.33 1284 m 1,4,-1
 1007.7 926 l 1,5,-1
 1481.1 926 l 1,6,-1
 1441.22 698 l 1,7,-1
 967.817 698 l 1,8,-1
 905.188 340 l 1,9,-1
 698.188 340 l 1,10,-1
 760.817 698 l 1,11,-1
 287.418 698 l 1,12,-1
 327.304 926 l 1,13,-1
 800.704 926 l 1,14,-1
 863.333 1284 l 1,15,-1
 1070.33 1284 l 1,4,-1
EndSplineSet
EndChar
StartChar: twosuperior
Encoding: 178 178 178
Width: 848
Flags: W
Fore
242.111 1284 m 1,0,-1
 157.511 1284 l 1,1,-1
 191.625 1479 l 1,2,3
 259.924 1499 259.924 1499 329.711 1509.5 c 128,-1,4
 399.498 1520 399.498 1520 471.498 1520 c 0,5,6
 634.397 1520 634.397 1520 713.201 1456 c 128,-1,7
 792.005 1392 792.005 1392 772.062 1278 c 0,8,9
 757.716 1196 757.716 1196 697.383 1131.5 c 128,-1,10
 637.048 1067 637.048 1067 480.004 977 c 2,11,-1
 236.087 838 l 1,12,-1
 608.688 838 l 1,13,-1
 625.481 934 l 1,14,-1
 715.481 934 l 1,15,-1
 671.746 684 l 1,16,-1
 45.3457 684 l 1,17,-1
 68.6133 817 l 1,18,-1
 199.409 901 l 2,19,20
 389.226 1024 389.226 1024 446.473 1094 c 128,-1,21
 503.719 1164 503.719 1164 519.988 1257 c 0,22,23
 534.683 1341 534.683 1341 505.643 1388.5 c 128,-1,24
 476.603 1436 476.603 1436 410.902 1436 c 0,25,26
 354.202 1436 354.202 1436 307.792 1394.5 c 128,-1,27
 261.382 1353 261.382 1353 242.111 1284 c 1,0,-1
EndSplineSet
EndChar
StartChar: threesuperior
Encoding: 179 179 179
Width: 849
Flags: W
Fore
209.613 1481 m 1,0,1
 292.137 1500 292.137 1500 360.937 1510 c 128,-1,2
 429.735 1520 429.735 1520 487.336 1520 c 0,3,4
 649.336 1520 649.336 1520 723.852 1467.5 c 128,-1,5
 798.367 1415 798.367 1415 780.872 1315 c 0,6,7
 768.277 1243 768.277 1243 712.805 1196 c 128,-1,8
 657.332 1149 657.332 1149 562.733 1133 c 1,9,10
 667.935 1117 667.935 1117 714.025 1061.5 c 128,-1,11
 760.116 1006 760.116 1006 743.846 913 c 0,12,13
 722.503 791 722.503 791 619.943 729.5 c 128,-1,14
 517.385 668 517.385 668 336.485 668 c 0,15,16
 264.485 668 264.485 668 194.322 678.5 c 128,-1,17
 124.159 689 124.159 689 56.0078 711 c 1,18,-1
 90.9961 911 l 1,19,-1
 177.396 911 l 1,20,21
 169.7 831 169.7 831 201.49 791.5 c 128,-1,22
 233.279 752 233.279 752 304.379 752 c 0,23,24
 383.579 752 383.579 752 432.952 795 c 128,-1,25
 482.324 838 482.324 838 496.671 920 c 0,26,27
 510.666 1000 510.666 1000 474.176 1043.5 c 128,-1,28
 437.687 1087 437.687 1087 355.786 1087 c 2,29,-1
 318.887 1087 l 1,30,-1
 333.581 1171 l 1,31,-1
 361.48 1171 l 2,32,33
 434.381 1171 434.381 1171 479.479 1205 c 128,-1,34
 524.578 1239 524.578 1239 535.772 1303 c 0,35,36
 546.794 1366 546.794 1366 517.817 1401 c 128,-1,37
 488.842 1436 488.842 1436 424.041 1436 c 0,38,39
 364.642 1436 364.642 1436 322.255 1399.5 c 128,-1,40
 279.869 1363 279.869 1363 264.174 1299 c 1,41,-1
 177.598 1298 l 1,42,-1
 209.613 1481 l 1,0,1
EndSplineSet
EndChar
StartChar: acute
Encoding: 180 180 180
Width: 998
Flags: W
Fore
794.35 1638 m 1,0,-1
 1045.45 1638 l 1,1,-1
 643.15 1262 l 1,2,-1
 495.55 1262 l 1,3,-1
 794.35 1638 l 1,0,-1
EndSplineSet
LCarets: 0 65535 '    ' 1 0 
Ligature: 0 1 'liga' space acutecomb
EndChar
StartChar: mu
Encoding: 181 181 181
Width: 1415
Flags: W
Fore
1347.2 1063 m 1,0,-1
 1182.4 121 l 1,1,-1
 1319.2 121 l 1,2,-1
 1298.03 0 l 1,3,-1
 842.631 0 l 1,4,-1
 864.499 125 l 1,5,6
 800.479 42 800.479 42 745.219 6.5 c 128,-1,7
 689.958 -29 689.958 -29 623.357 -29 c 0,8,9
 595.458 -29 595.458 -29 570.656 -19 c 128,-1,10
 545.857 -9 545.857 -9 519.831 12 c 1,11,-1
 464.374 -305 l 1,12,-1
 601.174 -305 l 1,13,-1
 580.006 -426 l 1,14,-1
 -12.1943 -426 l 1,15,-1
 8.97363 -305 l 1,16,-1
 145.773 -305 l 1,17,-1
 363.927 942 l 1,18,-1
 227.127 942 l 1,19,-1
 248.295 1063 l 1,20,-1
 703.694 1063 l 1,21,-1
 599.429 467 l 2,22,23
 560.942 247 560.942 247 581.92 192 c 128,-1,24
 602.898 137 602.898 137 682.099 137 c 0,25,26
 777.498 137 777.498 137 835.956 216.5 c 128,-1,27
 894.414 296 894.414 296 924.329 467 c 2,28,-1
 1007.43 942 l 1,29,-1
 889.526 942 l 1,30,-1
 910.694 1063 l 1,31,-1
 1347.2 1063 l 1,0,-1
EndSplineSet
EndChar
StartChar: paragraph
Encoding: 182 182 182
Width: 1250
Flags: W
Fore
786.616 1493 m 2,0,-1
 1286.12 1493 l 1,1,-1
 1264.25 1368 l 1,2,-1
 1162.54 1368 l 1,3,-1
 888.765 -197 l 1,4,-1
 751.964 -197 l 1,5,-1
 1025.75 1368 l 1,6,-1
 879.049 1368 l 1,7,-1
 605.265 -197 l 1,8,-1
 468.464 -197 l 1,9,-1
 616.465 649 l 1,10,11
 425.939 666 425.939 666 339.07 776.5 c 128,-1,12
 252.201 887 252.201 887 284.391 1071 c 0,13,14
 317.63 1261 317.63 1261 454.923 1377 c 128,-1,15
 592.216 1493 592.216 1493 786.616 1493 c 2,0,-1
EndSplineSet
EndChar
StartChar: periodcentered
Encoding: 183 183 183
Width: 677
Flags: W
Fore
184.952 711 m 0,0,1
 198.598 789 198.598 789 258.796 845 c 128,-1,2
 318.992 901 318.992 901 389.192 901 c 0,3,4
 460.292 901 460.292 901 500.896 845 c 128,-1,5
 541.498 789 541.498 789 527.853 711 c 0,6,7
 514.207 633 514.207 633 454.099 577.5 c 128,-1,8
 393.989 522 393.989 522 322.889 522 c 0,9,10
 252.689 522 252.689 522 211.998 577.5 c 128,-1,11
 171.308 633 171.308 633 184.952 711 c 0,0,1
EndSplineSet
EndChar
StartChar: cedilla
Encoding: 184 184 184
Width: 968
Flags: W
Fore
616.818 0 m 1,0,1
 661.422 -64 661.422 -64 678.438 -118.5 c 128,-1,2
 695.453 -173 695.453 -173 686.355 -225 c 0,3,4
 671.311 -311 671.311 -311 605.388 -356 c 128,-1,5
 539.466 -401 539.466 -401 430.565 -401 c 0,6,7
 387.365 -401 387.365 -401 342.603 -394.5 c 128,-1,8
 297.841 -388 297.841 -388 253.314 -375 c 1,9,-1
 279.706 -219 l 1,10,11
 317.232 -236 317.232 -236 353.907 -245 c 128,-1,12
 390.583 -254 390.583 -254 422.982 -254 c 0,13,14
 476.982 -254 476.982 -254 509.444 -230.5 c 128,-1,15
 541.904 -207 541.904 -207 549.776 -162 c 0,16,17
 554.676 -134 554.676 -134 545.599 -101 c 128,-1,18
 536.522 -68 536.522 -68 502.519 0 c 1,19,-1
 616.818 0 l 1,0,1
EndSplineSet
Ligature: 0 1 'liga' space uni0327
EndChar
StartChar: onesuperior
Encoding: 185 185 185
Width: 845
Flags: W
Fore
111.362 684 m 1,0,-1
 127.807 778 l 1,1,-1
 275.407 778 l 1,2,-1
 382.646 1391 l 1,3,-1
 200.278 1290 l 1,4,-1
 218.646 1395 l 1,5,-1
 440.314 1520 l 1,6,-1
 644.614 1520 l 1,7,-1
 514.808 778 l 1,8,-1
 662.407 778 l 1,9,-1
 645.963 684 l 1,10,-1
 111.362 684 l 1,0,-1
EndSplineSet
EndChar
StartChar: ordmasculine
Encoding: 186 186 186
Width: 972
Flags: W
Fore
86.9062 639 m 1,0,-1
 805.106 639 l 1,1,-1
 781.489 504 l 1,2,-1
 63.2891 504 l 1,3,-1
 86.9062 639 l 1,0,-1
478.195 823 m 0,4,5
 546.596 823 546.596 823 589.166 894 c 128,-1,6
 631.737 965 631.737 965 660.253 1128 c 0,7,8
 688.944 1292 688.944 1292 671.215 1363 c 128,-1,9
 653.484 1434 653.484 1434 585.085 1434 c 0,10,11
 515.785 1434 515.785 1434 473.84 1364 c 128,-1,12
 431.894 1294 431.894 1294 402.853 1128 c 0,13,14
 373.988 963 373.988 963 391.441 893 c 128,-1,15
 408.896 823 408.896 823 478.195 823 c 0,4,5
463.151 737 m 0,16,17
 272.351 737 272.351 737 182.994 841 c 128,-1,18
 93.6387 945 93.6387 945 125.652 1128 c 0,19,20
 157.668 1311 157.668 1311 283.499 1415.5 c 128,-1,21
 409.33 1520 409.33 1520 600.13 1520 c 0,22,23
 790.93 1520 790.93 1520 880.199 1415.5 c 128,-1,24
 969.468 1311 969.468 1311 937.453 1128 c 0,25,26
 905.438 945 905.438 945 779.694 841 c 128,-1,27
 653.95 737 653.95 737 463.151 737 c 0,16,17
EndSplineSet
EndChar
StartChar: guillemotright
Encoding: 187 187 187
Width: 1214
Flags: W
Fore
317.756 1069 m 1,0,-1
 672.504 684 l 1,1,-1
 643.113 516 l 1,2,-1
 153.661 131 l 1,3,-1
 179.552 279 l 1,4,-1
 450.809 600 l 1,5,-1
 292.04 922 l 1,6,-1
 317.756 1069 l 1,0,-1
731.756 1069 m 1,7,-1
 1086.5 684 l 1,8,-1
 1057.11 516 l 1,9,-1
 567.661 131 l 1,10,-1
 593.552 279 l 1,11,-1
 865.708 600 l 1,12,-1
 706.04 922 l 1,13,-1
 731.756 1069 l 1,7,-1
EndSplineSet
KernsSLIFO: 356 -149 0 0 84 -149 0 0 74 -73 0 0
EndChar
StartChar: questiondown
Encoding: 191 191 191
Width: 1130
Flags: W
Fore
924.441 1329 m 0,0,1
 910.796 1251 910.796 1251 850.773 1196 c 128,-1,2
 790.752 1141 790.752 1141 720.552 1141 c 0,3,4
 649.452 1141 649.452 1141 609.573 1196 c 128,-1,5
 569.695 1251 569.695 1251 583.342 1329 c 0,6,7
 597.162 1408 597.162 1408 656.908 1464 c 128,-1,8
 716.655 1520 716.655 1520 786.855 1520 c 0,9,10
 857.056 1520 857.056 1520 897.571 1463.5 c 128,-1,11
 938.087 1407 938.087 1407 924.441 1329 c 0,0,1
886.865 39 m 1,12,13
 769.318 5 769.318 5 665.544 -12 c 128,-1,14
 561.77 -29 561.77 -29 467.27 -29 c 0,15,16
 240.47 -29 240.47 -29 138.301 81.5 c 128,-1,17
 36.1318 192 36.1318 192 71.9951 397 c 0,18,19
 107.334 599 107.334 599 245.165 715.5 c 128,-1,20
 382.994 832 382.994 832 606.644 850 c 1,21,-1
 642.508 1055 l 1,22,-1
 767.607 1055 l 1,23,-1
 715.3 756 l 1,24,25
 582.677 713 582.677 713 507.544 620.5 c 128,-1,26
 432.413 528 432.413 528 405.646 375 c 0,27,28
 380.28 230 380.28 230 422.409 157 c 128,-1,29
 464.538 84 464.538 84 572.538 84 c 0,30,31
 670.638 84 670.638 84 735.733 150 c 128,-1,32
 800.83 216 800.83 216 832.573 346 c 1,33,-1
 940.573 346 l 1,34,-1
 886.865 39 l 1,12,13
EndSplineSet
EndChar
StartChar: Aring
Encoding: 197 197 197
Width: 1492
Flags: W
Fore
770.224 1616 m 0,0,1
 760.776 1562 760.776 1562 789.142 1523.5 c 128,-1,2
 817.507 1485 817.507 1485 865.206 1485 c 0,3,4
 914.706 1485 914.706 1485 956.092 1523.5 c 128,-1,5
 997.474 1562 997.474 1562 1006.92 1616 c 0,6,7
 1016.37 1670 1016.37 1670 988.006 1708.5 c 128,-1,8
 959.642 1747 959.642 1747 911.042 1747 c 0,9,10
 863.342 1747 863.342 1747 821.506 1708.5 c 128,-1,11
 779.671 1670 779.671 1670 770.224 1616 c 0,0,1
-118.183 0 m 1,12,-1
 -97.0137 121 l 1,13,-1
 12.7852 121 l 1,14,-1
 700.838 1384 l 1,15,16
 655.11 1421 655.11 1421 637.345 1481.5 c 128,-1,17
 619.578 1542 619.578 1542 632.524 1616 c 0,18,19
 652.993 1733 652.993 1733 742.838 1817 c 128,-1,20
 832.684 1901 832.684 1901 937.983 1901 c 0,21,22
 1044.18 1901 1044.18 1901 1104.64 1817 c 128,-1,23
 1165.09 1733 1165.09 1733 1144.62 1616 c 0,24,25
 1131.68 1542 1131.68 1542 1093.91 1483 c 128,-1,26
 1056.14 1424 1056.14 1424 995.134 1384 c 1,27,-1
 1240.38 121 l 1,28,-1
 1368.18 121 l 1,29,-1
 1347.02 0 l 1,30,-1
 717.917 0 l 1,31,-1
 739.086 121 l 1,32,-1
 870.486 121 l 1,33,-1
 813.144 426 l 1,34,-1
 308.243 426 l 1,35,-1
 142.386 121 l 1,36,-1
 302.586 121 l 1,37,-1
 281.417 0 l 1,38,-1
 -118.183 0 l 1,12,-1
373.511 547 m 1,39,-1
 790.21 547 l 1,40,-1
 684.903 1118 l 1,41,-1
 373.511 547 l 1,39,-1
EndSplineSet
Ligature: 0 0 'liga' A uni030A
EndChar
StartChar: AE
Encoding: 198 198 198
Width: 2002
Flags: W
Fore
422.148 545 m 1,0,-1
 840.648 545 l 1,1,-1
 985.326 1372 l 1,2,-1
 917.826 1372 l 1,3,-1
 422.148 545 l 1,0,-1
574.307 0 m 1,4,-1
 595.474 121 l 1,5,-1
 766.474 121 l 1,6,-1
 819.48 424 l 1,7,-1
 349.681 424 l 1,8,-1
 167.974 121 l 1,9,-1
 315.573 121 l 1,10,-1
 294.406 0 l 1,11,-1
 -90.7939 0 l 1,12,-1
 -69.627 121 l 1,13,-1
 32.9736 121 l 1,14,-1
 784.626 1372 l 1,15,-1
 603.727 1372 l 1,16,-1
 624.894 1493 l 1,17,-1
 2020.79 1493 l 1,18,-1
 1959.21 1141 l 1,19,-1
 1835.01 1141 l 1,20,-1
 1872.62 1356 l 1,21,-1
 1330.82 1356 l 1,22,-1
 1247.03 877 l 1,23,-1
 1577.33 877 l 1,24,-1
 1610.57 1067 l 1,25,-1
 1732.07 1067 l 1,26,-1
 1641.8 551 l 1,27,-1
 1520.3 551 l 1,28,-1
 1553.54 741 l 1,29,-1
 1223.24 741 l 1,30,-1
 1117.58 137 l 1,31,-1
 1678.28 137 l 1,32,-1
 1715.89 352 l 1,33,-1
 1837.39 352 l 1,34,-1
 1775.81 0 l 1,35,-1
 574.307 0 l 1,4,-1
EndSplineSet
KernsSLIFO: 45 38 0 0
EndChar
StartChar: Eth
Encoding: 208 208 208
Width: 1695
Flags: W
Fore
592.291 121 m 1,0,-1
 717.391 121 l 2,1,2
 927.99 121 927.99 121 1050.89 270.5 c 128,-1,3
 1173.8 420 1173.8 420 1231.18 748 c 0,4,5
 1288.21 1074 1288.21 1074 1217.53 1223 c 128,-1,6
 1146.84 1372 1146.84 1372 936.244 1372 c 2,7,-1
 811.144 1372 l 1,8,-1
 719.823 850 l 1,9,-1
 1018.62 850 l 1,10,-1
 994.658 713 l 1,11,-1
 695.856 713 l 1,12,-1
 592.291 121 l 1,0,-1
51.8232 0 m 1,13,-1
 72.9912 121 l 1,14,-1
 245.791 121 l 1,15,-1
 349.356 713 l 1,16,-1
 157.656 713 l 1,17,-1
 181.623 850 l 1,18,-1
 373.323 850 l 1,19,-1
 464.644 1372 l 1,20,-1
 291.844 1372 l 1,21,-1
 313.011 1493 l 1,22,-1
 1004.21 1493 l 2,23,24
 1364.21 1493 1364.21 1493 1521.96 1301.5 c 128,-1,25
 1679.71 1110 1679.71 1110 1616.38 748 c 0,26,27
 1552.87 385 1552.87 385 1327.95 192.5 c 128,-1,28
 1103.03 0 1103.03 0 743.023 0 c 2,29,-1
 51.8232 0 l 1,13,-1
EndSplineSet
KernsSLIFO: 221 -36 0 0 193 -36 0 0 194 -36 0 0 376 -36 0 0 195 -36 0 0 192 -36 0 0 196 -36 0 0 89 -36 0 0 86 -36 0 0 65 -36 0 0 46 -73 0 0 45 75 0 0 44 -73 0 0
EndChar
StartChar: multiply
Encoding: 215 215 215
Width: 1630
Flags: W
Fore
1469.38 1081 m 1,0,-1
 996.409 641 l 1,1,-1
 1315.43 201 l 1,2,-1
 1149.89 47 l 1,3,-1
 830.864 487 l 1,4,-1
 357.89 47 l 1,5,-1
 246.23 201 l 1,6,-1
 720.105 641 l 1,7,-1
 400.18 1081 l 1,8,-1
 566.071 1237 l 1,9,-1
 885.097 797 l 1,10,-1
 1358.07 1237 l 1,11,-1
 1469.38 1081 l 1,0,-1
EndSplineSet
EndChar
StartChar: Oslash
Encoding: 216 216 216
Width: 1694
Flags: W
Fore
523.978 479 m 1,0,-1
 1251.89 1157 l 1,1,2
 1234.91 1276 1234.91 1276 1172.31 1337.5 c 128,-1,3
 1109.73 1399 1109.73 1399 1005.33 1399 c 0,4,5
 834.324 1399 834.324 1399 721.746 1236.5 c 128,-1,6
 609.169 1074 609.169 1074 551.612 745 c 0,7,8
 538.317 669 538.317 669 531.271 603 c 128,-1,9
 524.225 537 524.225 537 523.978 479 c 1,0,-1
531.012 334 m 1,10,11
 550.168 212 550.168 212 611.223 152 c 128,-1,12
 672.275 92 672.275 92 776.676 92 c 0,13,14
 952.176 92 952.176 92 1064.19 259 c 128,-1,15
 1176.21 426 1176.21 426 1238.83 784 c 0,16,17
 1250.21 849 1250.21 849 1253.64 899.5 c 128,-1,18
 1257.08 950 1257.08 950 1252.9 993 c 1,19,-1
 531.012 334 l 1,10,11
1547.01 1280 m 1,20,21
 1609.81 1176 1609.81 1176 1626.96 1042.5 c 128,-1,22
 1644.1 909 1644.1 909 1615.41 745 c 0,23,24
 1552.09 383 1552.09 383 1323 177 c 128,-1,25
 1093.91 -29 1093.91 -29 755.507 -29 c 0,26,27
 613.307 -29 613.307 -29 500.88 10 c 128,-1,28
 388.453 49 388.453 49 306.697 127 c 1,29,-1
 87.2354 -78 l 1,30,-1
 21.9795 12 l 1,31,-1
 237.143 213 l 1,32,33
 173.088 315 173.088 315 155.492 448.5 c 128,-1,34
 137.897 582 137.897 582 166.412 745 c 0,35,36
 229.742 1107 229.742 1107 458.917 1313.5 c 128,-1,37
 688.094 1520 688.094 1520 1026.5 1520 c 0,38,39
 1170.5 1520 1170.5 1520 1283.45 1481.5 c 128,-1,40
 1396.42 1443 1396.42 1443 1476.55 1366 c 1,41,-1
 1694.76 1569 l 1,42,-1
 1760.02 1479 l 1,43,-1
 1547.01 1280 l 1,20,21
EndSplineSet
KernsSLIFO: 88 -36 0 0 86 -36 0 0 46 -120 0 0 45 75 0 0 44 -120 0 0
EndChar
StartChar: Thorn
Encoding: 222 222 222
Width: 1467
Flags: W
Fore
28.4502 0 m 1,0,-1
 49.6182 121 l 1,1,-1
 221.518 121 l 1,2,-1
 440.371 1372 l 1,3,-1
 268.471 1372 l 1,4,-1
 289.638 1493 l 1,5,-1
 1023.13 1493 l 1,6,-1
 1001.97 1372 l 1,7,-1
 786.871 1372 l 1,8,-1
 757.13 1202 l 1,9,-1
 1003.73 1202 l 2,10,11
 1227.83 1202 1227.83 1202 1339.4 1083.5 c 128,-1,12
 1450.97 965 1450.97 965 1416.16 766 c 0,13,14
 1381.34 567 1381.34 567 1227.69 447.5 c 128,-1,15
 1074.03 328 1074.03 328 850.83 328 c 2,16,-1
 604.23 328 l 1,17,-1
 568.018 121 l 1,18,-1
 784.918 121 l 1,19,-1
 763.751 0 l 1,20,-1
 28.4502 0 l 1,0,-1
625.399 449 m 1,21,-1
 726.199 449 l 2,22,23
 843.199 449 843.199 449 927.994 535 c 128,-1,24
 1012.79 621 1012.79 621 1038.16 766 c 0,25,26
 1063.35 910 1063.35 910 1009 995.5 c 128,-1,27
 954.663 1081 954.663 1081 836.763 1081 c 2,28,-1
 735.963 1081 l 1,29,-1
 625.399 449 l 1,21,-1
EndSplineSet
KernsSLIFO: 46 -301 0 0 45 38 0 0 44 -264 0 0
EndChar
StartChar: germandbls
Encoding: 223 223 223
Width: 1466
Flags: W
Fore
1043.67 1221 m 1,0,1
 1059.06 1345 1059.06 1345 1024.52 1394.5 c 128,-1,2
 989.987 1444 989.987 1444 889.183 1444 c 0,3,4
 791.083 1444 791.083 1444 736.574 1384.5 c 128,-1,5
 682.065 1325 682.065 1325 658.447 1190 c 2,6,-1
 450.267 0 l 1,7,-1
 -4.2334 0 l 1,8,-1
 16.9346 121 l 1,9,-1
 152.834 121 l 1,10,-1
 332.325 1147 l 2,11,12
 367.488 1348 367.488 1348 511.683 1452 c 128,-1,13
 655.877 1556 655.877 1556 897.978 1556 c 0,14,15
 1134.68 1556 1134.68 1556 1237.27 1450.5 c 128,-1,16
 1339.86 1345 1339.86 1345 1324.1 1116 c 1,17,-1
 1304.3 1116 l 2,18,19
 1164.8 1116 1164.8 1116 1085.29 1070.5 c 128,-1,20
 1005.78 1025 1005.78 1025 990.212 936 c 0,21,22
 983.219 896 983.219 896 998.051 862.5 c 128,-1,23
 1012.89 829 1012.89 829 1076.93 768 c 2,24,-1
 1145.1 705 l 2,25,26
 1282.01 577 1282.01 577 1312.29 498 c 128,-1,27
 1342.57 419 1342.57 419 1323.67 311 c 0,28,29
 1295.68 151 1295.68 151 1167.89 61 c 128,-1,30
 1040.09 -29 1040.09 -29 838.493 -29 c 0,31,32
 766.493 -29 766.493 -29 690.367 -14 c 128,-1,33
 614.241 1 614.241 1 529.489 31 c 1,34,-1
 574.625 289 l 1,35,-1
 683.525 289 l 1,36,37
 676.506 182 676.506 182 712.034 133 c 128,-1,38
 747.562 84 747.562 84 832.162 84 c 0,39,40
 900.562 84 900.562 84 950.56 128 c 128,-1,41
 1000.55 172 1000.55 172 1013.15 244 c 0,42,43
 1031.52 349 1031.52 349 904.39 466 c 0,44,45
 888.114 481 888.114 481 879.613 489 c 2,46,-1
 810.71 553 l 2,47,48
 731.855 627 731.855 627 705.089 705.5 c 128,-1,49
 678.32 784 678.32 784 696.69 889 c 0,50,51
 720.132 1023 720.132 1023 806.566 1105.5 c 128,-1,52
 892.998 1188 892.998 1188 1043.67 1221 c 1,0,1
EndSplineSet
EndChar
StartChar: ae
Encoding: 230 230 230
Width: 1894
Flags: W
Fore
1470.68 600 m 1,0,1
 1507.41 810 1507.41 810 1487.09 894.5 c 128,-1,2
 1466.78 979 1466.78 979 1382.18 979 c 0,3,4
 1300.28 979 1300.28 979 1250.21 896 c 128,-1,5
 1200.14 813 1200.14 813 1166.02 618 c 2,6,-1
 1162.88 600 l 1,7,-1
 1470.68 600 l 1,0,1
1045.26 936 m 1,8,9
 1128.2 1014 1128.2 1014 1218.27 1053 c 128,-1,10
 1308.34 1092 1308.34 1092 1408.25 1092 c 0,11,12
 1644.95 1092 1644.95 1092 1744.73 937 c 128,-1,13
 1844.51 782 1844.51 782 1799.95 481 c 1,14,-1
 1142.05 481 l 1,15,-1
 1140.66 473 l 2,16,17
 1104.62 267 1104.62 267 1144.41 175.5 c 128,-1,18
 1184.2 84 1184.2 84 1309.3 84 c 0,19,20
 1411.9 84 1411.9 84 1485.48 144.5 c 128,-1,21
 1559.08 205 1559.08 205 1597.54 322 c 1,22,-1
 1748.74 322 l 1,23,24
 1678.37 141 1678.37 141 1548.75 56 c 128,-1,25
 1419.13 -29 1419.13 -29 1212.13 -29 c 0,26,27
 1091.54 -29 1091.54 -29 1004.67 9.5 c 128,-1,28
 917.807 48 917.807 48 861.426 127 c 1,29,30
 767.681 49 767.681 49 665.908 10 c 128,-1,31
 564.135 -29 564.135 -29 452.535 -29 c 0,32,33
 267.135 -29 267.135 -29 185.967 57.5 c 128,-1,34
 104.8 144 104.8 144 133.665 309 c 0,35,36
 165.155 489 165.155 489 295.387 577.5 c 128,-1,37
 425.62 666 425.62 666 658.721 666 c 2,38,-1
 826.12 666 l 1,39,-1
 837.141 729 l 2,40,41
 857.435 845 857.435 845 805.706 912 c 128,-1,42
 753.977 979 753.977 979 643.276 979 c 0,43,44
 550.576 979 550.576 979 491.666 935.5 c 128,-1,45
 432.757 892 432.757 892 394.188 795 c 1,46,-1
 292.487 795 l 1,47,-1
 332.549 1024 l 1,48,49
 423.997 1058 423.997 1058 518.771 1075 c 128,-1,50
 613.545 1092 613.545 1092 715.245 1092 c 0,51,52
 838.545 1092 838.545 1092 920.011 1053.5 c 128,-1,53
 1001.47 1015 1001.47 1015 1045.26 936 c 1,8,9
767.339 330 m 2,54,-1
 805.302 547 l 1,55,-1
 685.602 547 l 2,56,57
 587.502 547 587.502 547 530.18 492 c 128,-1,58
 472.858 437 472.858 437 453.09 324 c 0,59,60
 433.321 211 433.321 211 460.474 163 c 128,-1,61
 487.627 115 487.627 115 567.727 115 c 0,62,63
 645.127 115 645.127 115 697.224 171 c 128,-1,64
 749.321 227 749.321 227 767.339 330 c 2,54,-1
EndSplineSet
EndChar
StartChar: eth
Encoding: 240 240 240
Width: 1295
Flags: W
Fore
970.888 1337 m 1,0,1
 1114.02 1188 1114.02 1188 1169.22 986.5 c 128,-1,2
 1224.42 785 1224.42 785 1184.54 557 c 0,3,4
 1136.42 282 1136.42 282 966.118 126.5 c 128,-1,5
 795.819 -29 795.819 -29 542.02 -29 c 0,6,7
 294.52 -29 294.52 -29 173.898 117.5 c 128,-1,8
 53.2773 264 53.2773 264 95.9629 508 c 0,9,10
 136.2 738 136.2 738 306.166 889 c 128,-1,11
 476.132 1040 476.132 1040 695.732 1040 c 0,12,13
 733.532 1040 733.532 1040 771.183 1034 c 128,-1,14
 808.833 1028 808.833 1028 846.334 1016 c 1,15,16
 838.455 1079 838.455 1079 818.828 1134 c 128,-1,17
 799.199 1189 799.199 1189 765.995 1241 c 1,18,-1
 452.829 1092 l 1,19,-1
 425.323 1192 l 1,20,-1
 699.341 1323 l 1,21,22
 659.189 1361 659.189 1361 595.762 1392 c 128,-1,23
 532.335 1423 532.335 1423 446.359 1446 c 1,24,-1
 490.803 1556 l 1,25,26
 613.828 1539 613.828 1539 712.743 1502.5 c 128,-1,27
 811.658 1466 811.658 1466 883.936 1411 c 1,28,-1
 1207.88 1565 l 1,29,-1
 1232.16 1462 l 1,30,-1
 970.888 1337 l 1,0,1
841.566 891 m 1,31,32
 802.59 910 802.59 910 770.415 919 c 128,-1,33
 738.239 928 738.239 928 709.439 928 c 0,34,35
 609.539 928 609.539 928 550.531 832.5 c 128,-1,36
 491.525 737 491.525 737 451.463 508 c 0,37,38
 410.527 274 410.527 274 436.207 179 c 128,-1,39
 461.888 84 461.888 84 561.788 84 c 0,40,41
 661.688 84 661.688 84 719.531 178 c 128,-1,42
 777.376 272 777.376 272 818.663 508 c 0,43,44
 837.382 615 837.382 615 842.839 710.5 c 128,-1,45
 848.297 806 848.297 806 841.566 891 c 1,31,32
EndSplineSet
KernsSLIFO: 46 -36 0 0
EndChar
StartChar: divide
Encoding: 247 247 247
Width: 1630
Flags: W
CounterMasks: 1 00
Fore
788.629 1012 m 0,0,1
 799.3 1073 799.3 1073 846.598 1117 c 128,-1,2
 893.896 1161 893.896 1161 948.796 1161 c 0,3,4
 1004.59 1161 1004.59 1161 1036.5 1117 c 128,-1,5
 1068.4 1073 1068.4 1073 1057.73 1012 c 0,6,7
 1046.88 950 1046.88 950 999.588 906 c 128,-1,8
 952.288 862 952.288 862 896.487 862 c 0,9,10
 841.588 862 841.588 862 809.685 906 c 128,-1,11
 777.782 950 777.782 950 788.629 1012 c 0,0,1
659.171 272 m 0,12,13
 670.018 334 670.018 334 717.315 378 c 128,-1,14
 764.612 422 764.612 422 819.513 422 c 0,15,16
 875.312 422 875.312 422 907.216 378 c 128,-1,17
 939.118 334 939.118 334 928.271 272 c 0,18,19
 917.6 211 917.6 211 870.302 167 c 128,-1,20
 823.005 123 823.005 123 767.204 123 c 0,21,22
 712.305 123 712.305 123 680.402 167 c 128,-1,23
 648.5 211 648.5 211 659.171 272 c 0,12,13
301.043 756 m 1,24,-1
 1454.84 756 l 1,25,-1
 1414.96 528 l 1,26,-1
 261.157 528 l 1,27,-1
 301.043 756 l 1,24,-1
EndSplineSet
EndChar
StartChar: oslash
Encoding: 248 248 248
Width: 1297
Flags: W
Fore
481.344 416 m 1,0,-1
 896.996 801 l 1,1,2
 897.441 891 897.441 891 864.639 935 c 128,-1,3
 831.836 979 831.836 979 762.536 979 c 0,4,5
 663.536 979 663.536 979 604.979 883.5 c 128,-1,6
 546.422 788 546.422 788 505.311 553 c 2,7,-1
 481.344 416 l 1,0,-1
471.503 262 m 1,8,9
 469.433 173 469.433 173 503.049 128.5 c 128,-1,10
 536.662 84 536.662 84 605.963 84 c 0,11,12
 704.062 84 704.062 84 761.908 178 c 128,-1,13
 819.752 272 819.752 272 861.039 508 c 2,14,-1
 885.706 649 l 1,15,-1
 471.503 262 l 1,8,9
1171.29 913 m 1,16,17
 1218.09 841 1218.09 841 1231.54 745.5 c 128,-1,18
 1244.98 650 1244.98 650 1224.34 532 c 0,19,20
 1178.5 270 1178.5 270 1008.8 120.5 c 128,-1,21
 839.094 -29 839.094 -29 586.194 -29 c 0,22,23
 486.294 -29 486.294 -29 406.881 -4.5 c 128,-1,24
 327.467 20 327.467 20 264.215 70 c 1,25,-1
 79.3242 -102 l 1,26,-1
 18.7686 -16 l 1,27,-1
 194.884 147 l 1,28,29
 149.506 222 149.506 222 136.687 318.5 c 128,-1,30
 123.869 415 123.869 415 144.338 532 c 0,31,32
 190.347 795 190.347 795 359.876 943.5 c 128,-1,33
 529.405 1092 529.405 1092 782.305 1092 c 0,34,35
 886.705 1092 886.705 1092 967.381 1067 c 128,-1,36
 1048.06 1042 1048.06 1042 1104.29 993 c 1,37,-1
 1284.88 1161 l 1,38,-1
 1347.23 1075 l 1,39,-1
 1171.29 913 l 1,16,17
EndSplineSet
KernsSLIFO: 46 -36 0 0
EndChar
StartChar: thorn
Encoding: 254 254 254
Width: 1349
Flags: W
Fore
561.768 584 m 2,0,-1
 543.398 479 l 2,1,2
 510.859 293 510.859 293 539.089 210 c 128,-1,3
 567.318 127 567.318 127 662.719 127 c 0,4,5
 760.818 127 760.818 127 816.264 215 c 128,-1,6
 871.708 303 871.708 303 911.771 532 c 0,7,8
 951.833 761 951.833 761 927.089 848.5 c 128,-1,9
 902.347 936 902.347 936 804.247 936 c 0,10,11
 708.847 936 708.847 936 651.576 853 c 128,-1,12
 594.307 770 594.307 770 561.768 584 c 2,0,-1
392.219 1436 m 1,13,-1
 255.419 1436 l 1,14,-1
 276.411 1556 l 1,15,-1
 731.812 1556 l 1,16,-1
 621.947 928 l 1,17,18
 676.967 1011 676.967 1011 752.453 1051.5 c 128,-1,19
 827.938 1092 827.938 1092 928.737 1092 c 0,20,21
 1133.04 1092 1133.04 1092 1224.34 942.5 c 128,-1,22
 1315.63 793 1315.63 793 1269.97 532 c 0,23,24
 1224.31 271 1224.31 271 1080.62 121 c 128,-1,25
 936.928 -29 936.928 -29 732.628 -29 c 0,26,27
 631.828 -29 631.828 -29 570.513 11.5 c 128,-1,28
 509.198 52 509.198 52 483.218 135 c 1,29,-1
 406.244 -305 l 1,30,-1
 553.844 -305 l 1,31,-1
 532.676 -426 l 1,32,-1
 -70.3242 -426 l 1,33,-1
 -49.1562 -305 l 1,34,-1
 87.6436 -305 l 1,35,-1
 392.219 1436 l 1,13,-1
EndSplineSet
KernsSLIFO: 46 -102 0 0 44 -36 0 0
EndChar
StartChar: Dcroat
Encoding: 272 272 272
Width: 1695
Flags: W
Fore
592.291 121 m 1,0,-1
 717.391 121 l 2,1,2
 927.99 121 927.99 121 1050.89 270.5 c 128,-1,3
 1173.8 420 1173.8 420 1231.18 748 c 0,4,5
 1288.21 1074 1288.21 1074 1217.53 1223 c 128,-1,6
 1146.84 1372 1146.84 1372 936.244 1372 c 2,7,-1
 811.144 1372 l 1,8,-1
 719.823 850 l 1,9,-1
 1018.62 850 l 1,10,-1
 994.658 713 l 1,11,-1
 695.856 713 l 1,12,-1
 592.291 121 l 1,0,-1
51.8232 0 m 1,13,-1
 72.9912 121 l 1,14,-1
 245.791 121 l 1,15,-1
 349.356 713 l 1,16,-1
 157.656 713 l 1,17,-1
 181.623 850 l 1,18,-1
 373.323 850 l 1,19,-1
 464.644 1372 l 1,20,-1
 291.844 1372 l 1,21,-1
 313.011 1493 l 1,22,-1
 1004.21 1493 l 2,23,24
 1364.21 1493 1364.21 1493 1521.96 1301.5 c 128,-1,25
 1679.71 1110 1679.71 1110 1616.38 748 c 0,26,27
 1552.87 385 1552.87 385 1327.95 192.5 c 128,-1,28
 1103.03 0 1103.03 0 743.023 0 c 2,29,-1
 51.8232 0 l 1,13,-1
EndSplineSet
EndChar
StartChar: dcroat
Encoding: 273 273 273
Width: 1365
Flags: W
Fore
818.31 479 m 2,0,-1
 836.678 584 l 2,1,2
 869.218 770 869.218 770 840.537 853 c 128,-1,3
 811.857 936 811.857 936 717.357 936 c 0,4,5
 618.357 936 618.357 936 563 848.5 c 128,-1,6
 507.643 761 507.643 761 467.581 532 c 0,7,8
 427.52 303 427.52 303 452.625 215 c 128,-1,9
 477.729 127 477.729 127 575.829 127 c 0,10,11
 670.329 127 670.329 127 728.049 210 c 128,-1,12
 785.77 293 785.77 293 818.31 479 c 2,0,-1
1074.28 121 m 1,13,-1
 1210.18 121 l 1,14,-1
 1189.01 0 l 1,15,-1
 734.512 0 l 1,16,-1
 758.129 135 l 1,17,18
 703.108 52 703.108 52 627.174 11.5 c 128,-1,19
 551.238 -29 551.238 -29 450.438 -29 c 0,20,21
 247.038 -29 247.038 -29 156.729 121 c 128,-1,22
 66.4209 271 66.4209 271 112.081 532 c 0,23,24
 157.916 794 157.916 794 300.533 943 c 128,-1,25
 443.148 1092 443.148 1092 646.549 1092 c 0,26,27
 747.349 1092 747.349 1092 809.113 1051.5 c 128,-1,28
 870.878 1011 870.878 1011 896.858 928 c 1,29,-1
 948.466 1223 l 1,30,-1
 656.865 1223 l 1,31,-1
 677.859 1343 l 1,32,-1
 969.46 1343 l 1,33,-1
 985.729 1436 l 1,34,-1
 848.929 1436 l 1,35,-1
 869.923 1556 l 1,36,-1
 1325.33 1556 l 1,37,-1
 1288.06 1343 l 1,38,-1
 1442.86 1343 l 1,39,-1
 1421.87 1223 l 1,40,-1
 1267.07 1223 l 1,41,-1
 1074.28 121 l 1,13,-1
EndSplineSet
EndChar
StartChar: Hbar
Encoding: 294 294 294
Width: 1838
Flags: W
Fore
52.8496 0 m 1,0,-1
 73.5498 121 l 1,1,-1
 245.45 121 l 1,2,-1
 409.25 1053 l 1,0,0
 237.35 1053 l 1,0,0
 260.75 1190 l 1,0,0
 432.65 1190 l 1,0,0
 465.05 1372 l 1,3,-1
 293.15 1372 l 1,4,-1
 313.85 1493 l 1,5,-1
 1005.05 1493 l 1,6,-1
 984.35 1372 l 1,7,-1
 811.55 1372 l 1,8,-1
 779.15 1190 l 1,0,0
 1313.75 1190 l 1,0,0
 1346.15 1372 l 1,11,-1
 1174.25 1372 l 1,12,-1
 1194.95 1493 l 1,13,-1
 1886.15 1493 l 1,14,-1
 1865.45 1372 l 1,15,-1
 1692.65 1372 l 1,16,-1
 1660.25 1190 l 1,0,0
 1833.05 1190 l 1,0,0
 1809.65 1053 l 1,0,0
 1636.85 1053 l 1,0,0
 1473.05 121 l 1,17,-1
 1645.85 121 l 1,18,-1
 1625.15 0 l 1,19,-1
 933.95 0 l 1,20,-1
 954.65 121 l 1,21,-1
 1126.55 121 l 1,22,-1
 1233.65 733 l 1,23,-1
 699.05 733 l 1,24,-1
 591.95 121 l 1,25,-1
 764.75 121 l 1,26,-1
 744.05 0 l 1,27,-1
 52.8496 0 l 1,0,-1
723.35 870 m 1,9,-1
 1257.95 870 l 1,10,-1
 1290.35 1053 l 1,0,0
 755.75 1053 l 1,0,0
 723.35 870 l 1,9,-1
EndSplineSet
EndChar
StartChar: hbar
Encoding: 295 295 295
Width: 1401
Flags: W
Fore
-11.25 0 m 1,0,-1
 9.4502 121 l 1,1,-1
 145.35 121 l 1,2,-1
 333.45 1196 l 1,0,0
 191.25 1196 l 1,0,0
 215.55 1333 l 1,0,0
 357.75 1333 l 1,0,0
 375.75 1436 l 1,3,-1
 233.55 1436 l 1,4,-1
 254.25 1556 l 1,5,-1
 715.05 1556 l 1,6,-1
 676.35 1333 l 1,0,0
 999.45 1333 l 1,0,0
 975.15 1196 l 1,0,0
 652.05 1196 l 1,0,0
 602.55 913 l 1,7,8
 677.25 1008 677.25 1008 757.8 1050 c 128,-1,9
 839.25 1092 839.25 1092 951.75 1092 c 0,10,11
 1112.85 1092 1112.85 1092 1176.75 986.5 c 128,-1,12
 1217.7 919 1217.7 919 1217.7 810.5 c 0,0,0
 1217.7 749.5 1217.7 749.5 1204.65 676 c 2,13,-1
 1107.45 121 l 1,14,-1
 1244.25 121 l 1,15,-1
 1223.55 0 l 1,16,-1
 652.05 0 l 1,17,-1
 672.75 121 l 1,18,-1
 788.85 121 l 1,19,-1
 887.85 686 l 17,20,21
 900.45 758 900.45 758 900.45 804 c 0,0,0
 900.45 848 900.45 848 889.65 873.5 c 128,-1,22
 868.05 926 868.05 926 791.55 926 c 0,23,24
 695.25 926 695.25 926 636.3 847.5 c 128,-1,25
 577.8 769 577.8 769 547.65 598 c 9,26,-1
 463.95 121 l 1,27,-1
 580.95 121 l 1,28,-1
 560.25 0 l 1,29,-1
 -11.25 0 l 1,0,-1
EndSplineSet
EndChar
StartChar: dotlessi
Encoding: 305 305 305
Width: 732
Flags: W
Fore
477.937 121 m 1,0,-1
 614.736 121 l 1,1,-1
 593.568 0 l 1,2,-1
 2.26758 0 l 1,3,-1
 23.4365 121 l 1,4,-1
 159.336 121 l 1,5,-1
 302.964 942 l 1,6,-1
 167.063 942 l 1,7,-1
 188.231 1063 l 1,8,-1
 642.731 1063 l 1,9,-1
 477.937 121 l 1,0,-1
EndSplineSet
EndChar
StartChar: kgreenlandic
Encoding: 312 312 312
Width: 1348
Flags: W
Fore
616.981 0 m 1,0,-1
 41.8809 0 l 1,1,-1
 63.0479 121 l 1,2,-1
 198.948 121 l 1,3,-1
 342.052 939 l 1,4,-1
 206.151 939 l 1,5,-1
 227.318 1060 l 1,6,-1
 681.818 1060 l 1,7,-1
 593.648 556 l 1,8,-1
 1046.75 939 l 1,9,-1
 932.452 939 l 1,10,-1
 953.619 1060 l 1,11,-1
 1390.12 1060 l 1,12,-1
 1368.95 939 l 1,13,-1
 1191.65 939 l 1,14,-1
 902.365 695 l 1,15,-1
 1205.15 121 l 1,16,-1
 1308.65 121 l 1,17,-1
 1287.48 0 l 1,18,-1
 738.481 0 l 1,19,-1
 759.648 121 l 1,20,-1
 872.148 121 l 1,21,-1
 672.777 499 l 1,22,-1
 568.282 411 l 1,23,-1
 517.548 121 l 1,24,-1
 638.148 121 l 1,25,-1
 616.981 0 l 1,0,-1
EndSplineSet
EndChar
StartChar: Lslash
Encoding: 321 321 321
Width: 1373
Flags: W
Fore
32.5205 0 m 1,0,-1
 53.6885 121 l 1,1,-1
 226.488 121 l 1,2,-1
 301.364 549 l 1,3,-1
 85.6465 422 l 1,4,-1
 43.1143 539 l 1,5,-1
 329.005 707 l 1,6,-1
 445.341 1372 l 1,7,-1
 272.541 1372 l 1,8,-1
 293.708 1493 l 1,9,-1
 984.904 1493 l 1,10,-1
 963.741 1372 l 1,11,-1
 791.841 1372 l 1,12,-1
 715.916 938 l 1,13,-1
 1057.08 1139 l 1,14,-1
 1099.61 1022 l 1,15,-1
 687.926 778 l 1,16,-1
 575.787 137 l 1,17,-1
 1104.99 137 l 1,18,-1
 1146.27 373 l 1,19,-1
 1267.77 373 l 1,20,-1
 1202.52 0 l 1,21,-1
 32.5205 0 l 1,0,-1
EndSplineSet
KernsSLIFO: 366 -112 0 0 356 -167 0 0 253 -73 0 0 221 -131 0 0 217 -112 0 0 219 -112 0 0 218 -112 0 0 376 -131 0 0 255 -73 0 0 8217 -311 0 0 8221 -301 0 0 220 -112 0 0 121 -73 0 0 89 -131 0 0 87 -139 0 0 86 -243 0 0 85 -112 0 0 84 -167 0 0
EndChar
StartChar: lslash
Encoding: 322 322 322
Width: 747
Flags: W
Fore
445.222 121 m 1,0,-1
 581.121 121 l 1,1,-1
 559.953 0 l 1,2,-1
 -31.3457 0 l 1,3,-1
 -10.1787 121 l 1,4,-1
 125.722 121 l 1,5,-1
 218.791 653 l 1,6,-1
 62.4971 557 l 1,7,-1
 25.0654 662 l 1,8,-1
 243.633 795 l 1,9,-1
 355.771 1436 l 1,10,-1
 219.87 1436 l 1,11,-1
 240.864 1556 l 1,12,-1
 696.264 1556 l 1,13,-1
 598.821 999 l 1,14,-1
 755.29 1096 l 1,15,-1
 794.521 991 l 1,16,-1
 574.154 858 l 1,17,-1
 445.222 121 l 1,0,-1
EndSplineSet
EndChar
StartChar: Eng
Encoding: 330 330 330
Width: 1778
Flags: MW
Fore
44.5254 0 m 1,0,-1
 66.125 121 l 1,1,-1
 238.025 121 l 1,2,-1
 456.725 1372 l 1,3,-1
 284.825 1372 l 1,4,-1
 305.525 1493 l 1,5,-1
 725.825 1493 l 1,6,-1
 1351.78 436 l 1,7,-1
 1516.03 1372 l 1,8,-1
 1345.03 1372 l 1,9,-1
 1365.72 1493 l 1,10,-1
 1835.97 1493 l 1,11,-1
 1814.38 1372 l 1,12,-1
 1642.92 1372 l 1,13,-1
 1402.62 0 l 2,16,17
 1352.22 -290 1352.22 -290 1261.78 -367.5 c 128,-1,18
 1158.72 -455 1158.72 -455 962.075 -455 c 0,19,20
 908.075 -455 908.075 -455 848.675 -445 c 128,-1,21
 789.725 -435 789.725 -435 726.725 -416 c 1,22,-1
 766.325 -191 l 1,23,-1
 868.025 -191 l 1,24,25
 863.525 -221 863.525 -221 863.525 -244.5 c 0,0,0
 863.525 -284.5 863.525 -284.5 876.125 -306.5 c 128,-1,26
 896.375 -342 896.375 -342 955.775 -342 c 0,27,28
 1045.33 -342 1045.33 -342 1088.53 -289 c 128,-1,29
 1125.42 -243 1125.42 -243 1166.83 0 c 1,15,-1
 532.325 1079 l 1,16,-1
 364.925 121 l 1,17,-1
 535.925 121 l 1,18,-1
 514.325 0 l 1,19,-1
 44.5254 0 l 1,0,-1
EndSplineSet
EndChar
StartChar: eng
Encoding: 331 331 331
Width: 1409
Flags: W
Fore
76.2959 0 m 1,0,-1
 97.4453 121 l 1,1,-1
 233.346 121 l 1,2,-1
 376.896 942 l 1,3,-1
 240.996 942 l 1,4,-1
 262.146 1063 l 1,5,-1
 716.646 1063 l 1,6,-1
 690.546 913 l 1,7,8
 764.796 1008 764.796 1008 845.796 1050 c 128,-1,9
 927.246 1092 927.246 1092 1039.75 1092 c 0,10,11
 1200.85 1092 1200.85 1092 1264.75 986.5 c 128,-1,12
 1328.65 881 1328.65 881 1292.65 676 c 2,13,-1
 1152.25 -125 l 2,16,17
 1123.9 -288 1123.9 -288 1005.55 -371.5 c 128,-1,18
 886.746 -455 886.746 -455 684.246 -455 c 0,19,20
 630.246 -455 630.246 -455 570.846 -445 c 128,-1,21
 511.445 -435 511.445 -435 449.346 -416 c 1,22,-1
 488.496 -191 l 1,23,-1
 590.195 -191 l 1,24,25
 578.046 -271 578.046 -271 598.296 -306.5 c 128,-1,26
 618.546 -342 618.546 -342 677.945 -342 c 0,27,28
 743.646 -342 743.646 -342 777.846 -295 c 128,-1,29
 812.046 -248 812.046 -248 833.646 -125 c 2,30,-1
 975.846 686 l 2,20,21
 999.246 821 999.246 821 977.646 873.5 c 128,-1,22
 955.596 926 955.596 926 879.096 926 c 0,23,24
 782.796 926 782.796 926 723.846 847.5 c 128,-1,25
 665.346 769 665.346 769 635.646 598 c 2,26,-1
 551.945 121 l 1,27,-1
 668.945 121 l 1,28,-1
 647.796 0 l 1,29,-1
 76.2959 0 l 1,0,-1
EndSplineSet
EndChar
StartChar: OE
Encoding: 338 338 338
Width: 2300
Flags: W
Fore
1064.38 121 m 1,0,-1
 1283.22 1372 l 1,1,-1
 1168.92 1372 l 2,2,3
 931.327 1372 931.327 1372 783.261 1215 c 128,-1,4
 635.195 1058 635.195 1058 580.963 748 c 0,5,6
 526.03 434 526.03 434 618.353 277.5 c 128,-1,7
 710.674 121 710.674 121 950.074 121 c 2,8,-1
 1064.38 121 l 1,0,-1
2075.51 0 m 1,9,-1
 886.606 0 l 2,10,11
 700.307 0 700.307 0 582.904 26 c 128,-1,12
 465.503 52 465.503 52 384.575 109 c 1,13,14
 258.319 195 258.319 195 211.311 361 c 128,-1,15
 164.301 527 164.301 527 202.963 748 c 0,16,17
 241.451 968 241.451 968 346.278 1132.5 c 128,-1,18
 451.105 1297 451.105 1297 607.626 1384 c 1,19,20
 707.772 1442 707.772 1442 832.834 1467.5 c 128,-1,21
 957.894 1493 957.894 1493 1147.79 1493 c 2,22,-1
 2320.49 1493 l 1,23,-1
 2258.91 1141 l 1,24,-1
 2135.61 1141 l 1,25,-1
 2173.22 1356 l 1,26,-1
 1628.72 1356 l 1,27,-1
 1544.93 877 l 1,28,-1
 1875.23 877 l 1,29,-1
 1908.47 1067 l 1,30,-1
 2031.77 1067 l 1,31,-1
 1941.5 551 l 1,32,-1
 1818.2 551 l 1,33,-1
 1851.44 741 l 1,34,-1
 1521.14 741 l 1,35,-1
 1415.48 137 l 1,36,-1
 1976.18 137 l 1,37,-1
 2013.79 352 l 1,38,-1
 2137.09 352 l 1,39,-1
 2075.51 0 l 1,9,-1
EndSplineSet
KernsSLIFO: 45 38 0 0
EndChar
StartChar: oe
Encoding: 339 339 339
Width: 1999
Flags: W
Fore
641.816 84 m 0,0,1
 742.616 84 742.616 84 800.361 180 c 128,-1,2
 858.105 276 858.105 276 902.891 532 c 0,3,4
 947.675 788 947.675 788 923.883 883.5 c 128,-1,5
 900.089 979 900.089 979 798.39 979 c 0,6,7
 696.689 979 696.689 979 638.408 882.5 c 128,-1,8
 580.126 786 580.126 786 535.69 532 c 0,9,10
 491.255 278 491.255 278 515.686 181 c 128,-1,11
 540.116 84 540.116 84 641.816 84 c 0,0,1
1578.09 600 m 1,12,13
 1614.82 810 1614.82 810 1594.06 894.5 c 128,-1,14
 1573.29 979 1573.29 979 1489.59 979 c 0,15,16
 1408.59 979 1408.59 979 1359.15 897 c 128,-1,17
 1309.7 815 1309.7 815 1275.23 618 c 2,18,-1
 1272.09 600 l 1,19,-1
 1578.09 600 l 1,12,13
1151.77 936 m 1,20,21
 1233.26 1016 1233.26 1016 1323.61 1054 c 128,-1,22
 1413.96 1092 1413.96 1092 1520.16 1092 c 0,23,24
 1754.16 1092 1754.16 1092 1853.59 935 c 128,-1,25
 1953.03 778 1953.03 778 1909.34 482 c 1,26,-1
 1251.26 481 l 1,27,-1
 1249.87 473 l 2,28,29
 1213.65 266 1213.65 266 1252.63 175 c 128,-1,30
 1291.61 84 1291.61 84 1415.81 84 c 0,31,32
 1519.31 84 1519.31 84 1593.89 145 c 128,-1,33
 1668.46 206 1668.46 206 1706.75 322 c 1,34,-1
 1856.15 322 l 1,35,36
 1790.62 148 1790.62 148 1661.73 59.5 c 128,-1,37
 1532.85 -29 1532.85 -29 1344.75 -29 c 0,38,39
 1225.95 -29 1225.95 -29 1143.58 9.5 c 128,-1,40
 1061.22 48 1061.22 48 1010.24 127 c 1,41,42
 933.768 50 933.768 50 831.458 10.5 c 128,-1,43
 729.147 -29 729.147 -29 607.647 -29 c 0,44,45
 364.647 -29 364.647 -29 249.764 122 c 128,-1,46
 134.88 273 134.88 273 180.19 532 c 0,47,48
 226.2 795 226.2 795 395.729 943.5 c 128,-1,49
 565.258 1092 565.258 1092 818.157 1092 c 0,50,51
 932.458 1092 932.458 1092 1015.28 1053.5 c 128,-1,52
 1098.08 1015 1098.08 1015 1151.77 936 c 1,20,21
EndSplineSet
EndChar
StartChar: Tbar
Encoding: 358 358 358
Width: 1458
Flags: W
TeX: 0 0 0 0
Fore
290.6 0 m 1,0,-1
 311.3 121 l 1,1,-1
 489.5 121 l 1,2,-1
 584 659 l 1,0,0
 361.7 659 l 1,0,0
 395 851 l 1,0,0
 617.3 851 l 1,0,0
 705.5 1356 l 1,3,-1
 337.4 1356 l 1,4,-1
 296.9 1120 l 1,5,-1
 173.6 1120 l 1,6,-1
 238.4 1493 l 1,7,-1
 1570.4 1493 l 1,8,-1
 1505.6 1120 l 1,9,-1
 1384.1 1120 l 1,10,-1
 1424.6 1356 l 1,11,-1
 1053.8 1356 l 1,12,-1
 965.6 851 l 1,0,0
 1187.9 851 l 1,0,0
 1154.6 659 l 1,0,0
 932.3 659 l 1,0,0
 837.8 121 l 1,13,-1
 1016.9 121 l 1,14,-1
 996.2 0 l 1,15,-1
 290.6 0 l 1,0,-1
EndSplineSet
EndChar
StartChar: tbar
Encoding: 359 359 359
Width: 898
Flags: W
TeX: 0 0 0 0
Fore
275.6 942 m 1,0,-1
 137 942 l 1,1,-1
 157.7 1063 l 1,2,-1
 296.3 1063 l 1,3,-1
 353.9 1393 l 1,4,-1
 672.5 1393 l 1,5,-1
 614.9 1063 l 1,6,-1
 880.4 1063 l 1,7,-1
 859.7 942 l 1,8,-1
 594.2 942 l 1,9,-1
 545.6 665 l 1,0,0
 711.2 665 l 1,0,0
 677 473 l 1,0,0
 511.4 473 l 1,0,0
 479.9 291 l 2,10,11
 464.6 202 464.6 202 464.6 157 c 0,0,0
 464.6 130 464.6 130 469.1 118 c 128,-1,12
 483.5 84 483.5 84 535.7 84 c 0,13,14
 593.3 84 593.3 84 628.4 127 c 128,-1,15
 663.5 170 663.5 170 681.5 260 c 1,16,-1
 815.6 260 l 1,17,18
 779.6 100 779.6 100 696.8 36 c 128,-1,19
 615.8 -29 615.8 -29 443 -29 c 0,20,21
 245.9 -29 245.9 -29 187.4 40 c 128,-1,22
 149.6 84 149.6 84 149.6 176 c 0,0,0
 149.6 226 149.6 226 161.3 291 c 2,23,-1
 192.8 473 l 1,0,0
 59.5996 473 l 1,0,0
 93.7998 665 l 1,0,0
 227 665 l 1,0,0
 275.6 942 l 1,0,-1
EndSplineSet
EndChar
StartChar: longs
Encoding: 383 383 383
Width: 845
Flags: W
TeX: 0 0 0 0
Fore
455.243 121 m 1,12,-1
 639.743 121 l 1,13,-1
 618.575 0 l 1,14,-1
 -20.4238 0 l 1,15,-1
 0.743164 121 l 1,16,-1
 136.644 121 l 1,17,-1
 280.271 942 l 1,18,-1
 138.07 942 l 1,19,-1
 159.239 1063 l 1,20,-1
 301.438 1063 l 1,21,-1
 324.706 1196 l 2,22,23
 355.672 1373 355.672 1373 473.378 1464.5 c 128,-1,24
 591.086 1556 591.086 1556 788.186 1556 c 0,25,26
 864.686 1556 864.686 1556 935.924 1546.5 c 128,-1,27
 1007.16 1537 1007.16 1537 1074.04 1518 c 1,28,-1
 1034.15 1290 l 1,0,-1
 933.351 1290 l 1,1,2
 939.797 1368 939.797 1368 912.694 1406 c 128,-1,3
 885.592 1444 885.592 1444 823.492 1444 c 0,4,5
 751.492 1444 751.492 1444 709.032 1386.5 c 128,-1,6
 666.572 1329 666.572 1329 644.006 1200 c 2,7,-1
 455.243 121 l 1,12,-1
EndSplineSet
EndChar
StartChar: florin
Encoding: 402 402 402
Width: 1349
Flags: W
Fore
675.541 1135 m 1,0,1
 729.13 1323 729.13 1323 850.762 1421.5 c 128,-1,2
 972.389 1520 972.389 1520 1152.39 1520 c 0,3,4
 1212.69 1520 1212.69 1520 1279.44 1508 c 128,-1,5
 1346.2 1496 1346.2 1496 1422.27 1473 c 1,6,-1
 1381.33 1239 l 1,7,-1
 1272.43 1239 l 1,8,9
 1288.18 1329 1288.18 1329 1271.6 1368 c 128,-1,10
 1255.03 1407 1255.03 1407 1201.03 1407 c 0,11,12
 1133.53 1407 1133.53 1407 1092.05 1350 c 128,-1,13
 1050.58 1293 1050.58 1293 1000.02 1112 c 1,14,-1
 917.609 821 l 1,15,-1
 1153.41 821 l 1,16,-1
 1132.24 700 l 1,17,-1
 883.841 700 l 1,18,-1
 671.259 -47 l 1,19,20
 619.645 -234 619.645 -234 496.575 -333 c 128,-1,21
 373.507 -432 373.507 -432 193.507 -432 c 0,22,23
 131.407 -432 131.407 -432 64.5684 -420.5 c 128,-1,24
 -2.26953 -409 -2.26953 -409 -77.2715 -385 c 1,25,-1
 -36.5098 -152 l 1,26,-1
 72.3896 -152 l 1,27,28
 56.8203 -241 56.8203 -241 74.2979 -280 c 128,-1,29
 91.7754 -319 91.7754 -319 144.875 -319 c 0,30,31
 213.275 -319 213.275 -319 254.659 -262.5 c 128,-1,32
 296.044 -206 296.044 -206 347.508 -25 c 2,33,-1
 553.541 700 l 1,34,-1
 335.741 700 l 1,35,-1
 356.909 821 l 1,36,-1
 587.31 821 l 1,37,-1
 675.541 1135 l 1,0,1
EndSplineSet
EndChar
StartChar: uni0194
Encoding: 404 404 404
Width: 1514
Flags: W
TeX: 0 0 0 0
Fore
711.542 710 m 0,0,0
 397.533 1386 l 1,8,-1
 231.934 1386 l 1,9,-1
 250.652 1493 l 1,10,-1
 863.372 1493 l 1,11,-1
 844.653 1386 l 1,12,-1
 794.434 1386 l 1,13,-1
 961.527 966 l 1,14,-1
 1314.68 1386 l 1,15,-1
 1135.49 1386 l 1,16,-1
 1154.21 1493 l 1,17,-1
 1660.33 1493 l 1,18,-1
 1641.6 1386 l 1,19,-1
 1467.72 1386 l 1,20,-1
 1011.41 855 l 0,0,0
 1386.08 90 1386.08 90 1192.71 -44 c 0,0,0
 985.939 -188 985.939 -188 641.743 -188 c 16,0,0
 275.354 -188 275.354 -188 246.171 12 c 0,0,0
 219.582 193 219.582 193 711.542 710 c 0,0,0
767.924 595 m 1,0,0
 415.331 212.406 415.331 212.406 394.329 80 c 24,0,0
 370.582 -69.7031 370.582 -69.7031 662.911 -67 c 16,0,0
 922.929 -64.5957 922.929 -64.5957 935.203 85 c 16,0,0
 944.82 202.221 944.82 202.221 767.924 595 c 1,0,0
EndSplineSet
EndChar
StartChar: dotlessj
Encoding: 567 567 567
Width: 688
Flags: W
Fore
330.143 942 m 1,12,-1
 194.242 942 l 1,13,-1
 215.409 1063 l 1,14,-1
 669.909 1063 l 1,15,-1
 462.079 -125 l 2,16,17
 433.563 -288 433.563 -288 315.006 -371.5 c 128,-1,18
 196.448 -455 196.448 -455 -6.05176 -455 c 0,19,20
 -60.0518 -455 -60.0518 -455 -119.503 -445 c 128,-1,21
 -178.953 -435 -178.953 -435 -241.33 -416 c 1,22,-1
 -201.792 -190 l 1,23,-1
 -100.268 -191 l 1,24,25
 -112.463 -271 -112.463 -271 -92.123 -306.5 c 128,-1,26
 -71.7832 -342 -71.7832 -342 -12.3838 -342 c 0,27,28
 53.3164 -342 53.3164 -342 87.6387 -295 c 128,-1,29
 121.961 -248 121.961 -248 143.479 -125 c 2,30,-1
 330.143 942 l 1,12,-1
EndSplineSet
EndChar
StartChar: uni0250
Encoding: 592 592 592
Width: 1269
Flags: W
Fore
265.988 410 m 2,0,-1
 359.057 942 l 1,1,-1
 222.257 942 l 1,2,-1
 243.425 1063 l 1,3,-1
 698.825 1063 l 1,4,-1
 675.208 928 l 1,5,6
 752.902 1012 752.902 1012 837.301 1052 c 128,-1,7
 921.698 1092 921.698 1092 1020.7 1092 c 0,8,9
 1167.4 1092 1167.4 1092 1230.84 1004.5 c 128,-1,10
 1294.28 917 1294.28 917 1265.77 754 c 0,11,12
 1234.46 575 1234.46 575 1105.94 486 c 128,-1,13
 977.417 397 977.417 397 749.713 397 c 2,14,-1
 582.312 397 l 1,15,-1
 571.292 334 l 2,16,17
 548.725 205 548.725 205 592.865 143.5 c 128,-1,18
 637.007 82 637.007 82 752.207 82 c 0,19,20
 847.606 82 847.606 82 906.967 125.5 c 128,-1,21
 966.326 169 966.326 169 1005.25 268 c 1,22,-1
 1106.95 268 l 1,23,-1
 1066.89 39 l 1,24,25
 975.438 5 975.438 5 880.662 -12 c 128,-1,26
 785.889 -29 785.889 -29 684.188 -29 c 0,27,28
 427.688 -29 427.688 -29 326.981 77 c 128,-1,29
 226.276 183 226.276 183 265.988 410 c 2,0,-1
640.395 729 m 2,30,-1
 603.132 516 l 1,31,-1
 722.832 516 l 2,32,33
 811.932 516 811.932 516 869.078 570 c 128,-1,34
 926.226 624 926.226 624 943.895 725 c 0,35,36
 961.563 826 961.563 826 935.661 876 c 128,-1,37
 909.758 926 909.758 926 838.658 926 c 0,38,39
 764.858 926 764.858 926 710.411 872 c 128,-1,40
 655.964 818 655.964 818 640.395 729 c 2,30,-1
EndSplineSet
EndChar
StartChar: uni0251
Encoding: 593 593 593
Width: 1366
Flags: W
TeX: 0 0 0 0
Fore
859.644 479 m 2,0,-1
 878.013 584 l 2,1,2
 910.552 770 910.552 770 881.872 853 c 128,-1,3
 853.193 936 853.193 936 758.692 936 c 0,4,5
 659.693 936 659.693 936 604.335 848.5 c 128,-1,6
 548.978 761 548.978 761 508.917 532 c 0,7,8
 468.854 303 468.854 303 493.96 215 c 128,-1,9
 519.064 127 519.064 127 617.164 127 c 0,10,11
 711.664 127 711.664 127 769.385 210 c 128,-1,12
 827.105 293 827.105 293 859.644 479 c 2,0,-1
961.985 1064 m 1,32,-1
 1416.49 1064 l 1,15,-1
 1395.32 943 l 1,14,-1
 1259.42 943 l 1,33,-1
 1115.62 121 l 1,13,-1
 1251.52 121 l 1,14,-1
 1230.35 0 l 1,15,-1
 775.847 0 l 1,16,-1
 799.464 135 l 1,17,18
 744.444 52 744.444 52 668.509 11.5 c 128,-1,19
 592.573 -29 592.573 -29 491.773 -29 c 0,20,21
 288.374 -29 288.374 -29 198.064 121 c 128,-1,22
 107.757 271 107.757 271 153.416 532 c 0,23,24
 199.25 794 199.25 794 341.867 943 c 128,-1,25
 484.483 1092 484.483 1092 687.884 1092 c 0,26,27
 788.684 1092 788.684 1092 850.449 1051.5 c 128,-1,28
 912.213 1011 912.213 1011 938.193 928 c 1,29,-1
 940.992 944 l 1,31,-1
 961.985 1064 l 1,32,-1
EndSplineSet
EndChar
StartChar: uni0252
Encoding: 594 594 594
Width: 1357
Flags: W
TeX: 0 0 0 0
Fore
608.356 584 m 2,0,-1
 589.987 479 l 2,1,2
 557.448 293 557.448 293 586.128 210 c 128,-1,3
 614.808 127 614.808 127 709.308 127 c 0,4,5
 808.308 127 808.308 127 863.665 214.5 c 128,-1,6
 919.022 302 919.022 302 959.083 531 c 0,7,8
 999.149 760 999.149 760 974.04 848 c 128,-1,9
 948.936 936 948.936 936 850.836 936 c 0,10,11
 756.336 936 756.336 936 698.615 853 c 128,-1,12
 640.895 770 640.895 770 608.356 584 c 2,0,-1
506.015 -1 m 1,32,-1
 51.5146 -1 l 1,15,-1
 72.6826 120 l 1,14,-1
 208.583 120 l 1,33,-1
 352.386 942 l 1,13,-1
 216.485 942 l 1,14,-1
 237.653 1063 l 1,15,-1
 692.153 1063 l 1,16,-1
 668.536 928 l 1,17,18
 723.556 1011 723.556 1011 799.492 1051.5 c 128,-1,19
 875.427 1092 875.427 1092 976.227 1092 c 0,20,21
 1179.63 1092 1179.63 1092 1269.93 942 c 128,-1,22
 1360.25 792 1360.25 792 1314.58 531 c 0,23,24
 1268.75 269 1268.75 269 1126.13 120 c 128,-1,25
 983.517 -29 983.517 -29 780.116 -29 c 0,26,27
 679.316 -29 679.316 -29 617.552 11.5 c 128,-1,28
 555.787 52 555.787 52 529.807 135 c 1,29,-1
 527.008 119 l 1,31,-1
 506.015 -1 l 1,32,-1
EndSplineSet
EndChar
StartChar: uni0253
Encoding: 595 595 595
Width: 1349
Flags: W
TeX: 0 0 0 0
Fore
508.954 479 m 2,0,1
 476.415 293 476.415 293 504.645 210 c 0,2,3
 532.874 127 532.874 127 628.274 127 c 0,4,5
 726.374 127 726.374 127 781.82 215 c 0,6,7
 837.265 303 837.265 303 877.326 532 c 0,8,9
 917.388 761 917.388 761 892.645 848.5 c 0,10,11
 867.902 936 867.902 936 769.802 936 c 0,12,13
 674.402 936 674.402 936 617.133 853 c 0,14,15
 559.862 770 559.862 770 527.322 584 c 2,16,-1
 508.954 479 l 2,0,1
127.725 121 m 1,17,-1
 310.19 1164 l 1,18,-1
 311.09 1164 l 1,19,-1
 321.937 1226 l 2,20,21
 350.453 1389.01 350.453 1389.01 469.009 1472.5 c 0,22,23
 587.574 1556 587.574 1556 790.067 1556 c 0,24,25
 844.067 1556 844.067 1556 903.518 1546 c 0,26,27
 962.969 1536 962.969 1536 1025.35 1517 c 1,28,-1
 985.982 1292 l 1,29,-1
 884.282 1292 l 1,30,31
 896.478 1372 896.478 1372 876.138 1407.5 c 0,32,33
 855.798 1443 855.798 1443 796.398 1443 c 0,34,35
 730.698 1443 730.698 1443 696.376 1396 c 0,36,37
 662.038 1348.91 662.038 1348.91 640.536 1226 c 2,38,-1
 588.724 929.832 l 1,39,40
 643.359 1011.45 643.359 1011.45 718.008 1051.5 c 0,41,42
 793.494 1092 793.494 1092 894.294 1092 c 0,43,44
 1098.59 1092 1098.59 1092 1189.89 942.5 c 0,45,46
 1281.18 793 1281.18 793 1235.53 532 c 0,47,48
 1189.87 271 1189.87 271 1046.17 121 c 0,49,50
 902.482 -29 902.482 -29 698.183 -29 c 0,51,52
 597.383 -29 597.383 -29 536.068 11.5 c 0,53,54
 474.753 52 474.753 52 448.774 135 c 1,55,-1
 425.157 0 l 1,56,-1
 -30.2432 0 l 1,57,-1
 -9.0752 121 l 1,58,-1
 127.725 121 l 1,17,-1
EndSplineSet
EndChar
StartChar: uni0254
Encoding: 596 596 596
Width: 1183
Flags: W
Fore
101.46 332 m 1,0,1
 250.86 332 l 1,26,-1
 242.468 212 242.468 212 289.321 148 c 128,-1,25
 336.175 84 336.175 84 432.476 84 c 0,23,24
 556.675 84 556.675 84 629.682 187.5 c 128,-1,22
 702.688 291 702.688 291 744.85 532 c 0,20,21
 788.06 779 788.06 779 749.304 879 c 128,-1,19
 710.548 979 710.548 979 577.349 979 c 0,17,18
 474.748 979 474.748 979 406.59 913.5 c 128,-1,16
 338.431 848 338.431 848 300.414 713 c 1,14,15
 199.613 713 l 1,13,-1
 251.222 1008 l 1,12,-1
 363.869 1050 363.869 1050 469.243 1071 c 128,-1,11
 574.617 1092 574.617 1092 674.517 1092 c 0,9,10
 921.117 1092 921.117 1092 1033.82 944 c 128,-1,8
 1146.53 796 1146.53 796 1100.35 532 c 0,6,7
 1053.64 265 1053.64 265 887.523 118 c 128,-1,5
 721.406 -29 721.406 -29 465.807 -29 c 0,3,4
 284.007 -29 284.007 -29 193.914 60.5 c 128,-1,2
 103.821 150 103.821 150 101.46 332 c 1,0,1
EndSplineSet
EndChar
StartChar: uni0255
Encoding: 597 597 597
Width: 1187
Flags: W
TeX: 0 0 0 0
Fore
508.02 222 m 1,0,1
 564.953 69 564.953 69 705.528 70 c 0,2,3
 829.58 69.1465 829.58 69.1465 848.271 176 c 0,4,5
 870.106 300.811 870.106 300.811 788.966 300 c 0,6,7
 558.83 298 558.83 298 508.02 222 c 1,0,1
491.164 316 m 1,8,9
 633.36 388 633.36 388 853.311 390 c 0,10,11
 1094.59 390.211 1094.59 390.211 1049.43 158 c 0,12,13
 1011.01 -41 1011.01 -41 608.35 -41 c 0,14,15
 443.11 -41 443.11 -41 339.971 30 c 1,16,17
 324.652 -2 324.652 -2 310.862 -87 c 1,18,-1
 285.671 -231 l 1,19,-1
 162.551 -231 l 1,20,-1
 188.823 -87 l 1,21,22
 209.731 14 209.731 14 249.473 93 c 1,23,24
 240.422 103 240.422 103 232.276 112 c 0,25,26
 106.937 266 106.937 266 151.372 520 c 0,27,28
 195.982 775 195.982 775 375.028 928 c 0,29,30
 553.9 1080 553.9 1080 804.461 1080 c 0,31,32
 949.396 1080 949.396 1080 1024.4 1056 c 0,33,34
 1099.57 1033 1099.57 1033 1171.17 985 c 1,35,-1
 1123.59 713 l 1,36,-1
 1038.84 713 l 1,37,38
 1046.7 853 1046.7 853 1002.45 917 c 0,39,40
 957.421 981 957.421 981 854.102 981 c 0,41,42
 720.001 981 720.001 981 631.482 866 c 0,43,44
 539.979 746.326 539.979 746.326 502.552 520 c 0,45,46
 487.009 426 487.009 426 491.164 316 c 1,8,9
EndSplineSet
EndChar
StartChar: uni0256
Encoding: 598 598 598
Width: 1364
Flags: W
TeX: 0 0 0 0
Fore
854.704 479 m 2,0,-1
 873.072 584 l 2,1,2
 905.611 770 905.611 770 876.932 853 c 0,3,4
 848.253 936 848.253 936 753.753 936 c 0,5,6
 654.753 936 654.753 936 599.396 848.5 c 0,7,8
 544.037 761 544.037 761 503.976 532 c 0,9,10
 463.914 303 463.914 303 489.019 215 c 0,11,12
 514.124 127 514.124 127 612.224 127 c 0,13,14
 706.724 127 706.724 127 764.443 210 c 0,15,16
 822.164 293 822.164 293 854.704 479 c 2,0,-1
793.303 133.168 m 1,17,18
 738.662 51.5518 738.662 51.5518 663.568 11.5 c 0,19,20
 587.632 -29 587.632 -29 486.832 -29 c 0,21,22
 283.433 -29 283.433 -29 193.124 121 c 0,23,24
 102.815 271 102.815 271 148.476 532 c 0,25,26
 194.311 794 194.311 794 336.927 943 c 0,27,28
 479.543 1092 479.543 1092 682.943 1092 c 0,29,30
 783.743 1092 783.743 1092 845.509 1051.5 c 0,31,32
 907.272 1011 907.272 1011 933.253 928 c 1,33,-1
 1022.12 1436 l 1,34,-1
 885.323 1436 l 1,35,-1
 906.316 1556 l 1,36,-1
 1361.72 1556 l 1,37,-1
 1089.5 0 l 1,38,-1
 1088.6 0 l 1,39,-1
 1066.74 -125 l 2,40,41
 1045.23 -247.91 1045.23 -247.91 1063.1 -295 c 0,42,43
 1080.98 -342 1080.98 -342 1146.68 -342 c 0,44,45
 1206.08 -342 1206.08 -342 1238.84 -306.5 c 0,46,47
 1271.6 -271 1271.6 -271 1287.39 -191 c 1,48,-1
 1389.09 -191 l 1,49,-1
 1349.73 -416 l 1,50,51
 1280.71 -435 1280.71 -435 1217.75 -445 c 0,52,53
 1154.81 -455 1154.81 -455 1100.81 -455 c 0,54,55
 898.308 -455 898.308 -455 808.965 -371.5 c 0,56,57
 719.623 -288.003 719.623 -288.003 748.139 -125 c 2,58,-1
 793.303 133.168 l 1,17,18
EndSplineSet
EndChar
StartChar: uni0257
Encoding: 599 599 599
Width: 1434
Flags: W
TeX: 0 0 0 0
Fore
1085.97 121 m 1,0,-1
 1221.87 121 l 1,1,-1
 1200.7 0 l 1,2,-1
 746.203 0 l 1,3,-1
 769.82 135 l 1,4,5
 714.8 52 714.8 52 638.865 11.5 c 0,6,7
 562.93 -29 562.93 -29 462.13 -29 c 0,8,9
 258.729 -29 258.729 -29 168.421 121 c 0,10,11
 78.1123 271 78.1123 271 123.772 532 c 0,12,13
 169.607 794 169.607 794 312.225 943 c 0,14,15
 454.84 1092 454.84 1092 658.24 1092 c 0,16,17
 759.04 1092 759.04 1092 820.805 1051.5 c 0,18,19
 882.57 1011 882.57 1011 908.55 928 c 1,20,-1
 941.439 1116 l 1,21,-1
 942.34 1116 l 1,22,-1
 961.583 1226 l 2,23,24
 990.094 1389 990.094 1389 1108.66 1472.5 c 0,25,26
 1227.23 1556 1227.23 1556 1429.72 1556 c 0,27,28
 1483.72 1556 1483.72 1556 1543.16 1546 c 0,29,30
 1602.62 1536 1602.62 1536 1665 1517 c 1,31,-1
 1625.63 1292 l 1,32,-1
 1523.93 1292 l 1,33,34
 1536.12 1372 1536.12 1372 1515.78 1407.5 c 0,35,36
 1495.44 1443 1495.44 1443 1436.04 1443 c 0,37,38
 1370.34 1443 1370.34 1443 1336.03 1396 c 0,39,40
 1301.68 1348.91 1301.68 1348.91 1280.18 1226 c 2,41,-1
 1208.46 816 l 1,42,-1
 1207.56 816 l 1,43,-1
 1085.97 121 l 1,0,-1
830.001 479 m 2,44,-1
 848.369 584 l 2,45,46
 880.909 770 880.909 770 852.229 853 c 0,47,48
 823.549 936 823.549 936 729.049 936 c 0,49,50
 630.049 936 630.049 936 574.691 848.5 c 0,51,52
 519.334 761 519.334 761 479.272 532 c 0,53,54
 439.211 303 439.211 303 464.316 215 c 0,55,56
 489.421 127 489.421 127 587.521 127 c 0,57,58
 682.021 127 682.021 127 739.74 210 c 0,59,60
 797.461 293 797.461 293 830.001 479 c 2,44,-1
EndSplineSet
EndChar
StartChar: uni0258
Encoding: 600 600 600
Width: 1237
Flags: W
Fore
502.411 600 m 1,0,1
 810.211 600 l 1,7,-1
 813.359 618 l 2,6,-1
 847.474 813 847.474 813 826.444 896 c 128,-1,5
 805.414 979 805.414 979 723.514 979 c 0,3,4
 638.914 979 638.914 979 589.031 894.5 c 128,-1,2
 539.148 810 539.148 810 502.411 600 c 1,0,1
131.492 481 m 1,8,-1
 192.075 781 192.075 781 346.179 936.5 c 128,-1,28
 500.282 1092 500.282 1092 737.883 1092 c 0,26,27
 979.982 1092 979.982 1092 1089.99 944 c 128,-1,25
 1200 796 1200 796 1153.82 532 c 0,23,24
 1106.58 262 1106.58 262 948.376 116.5 c 128,-1,22
 790.172 -29 790.172 -29 541.772 -29 c 0,20,21
 334.772 -29 334.772 -29 234.442 56 c 128,-1,19
 134.112 141 134.112 141 127.077 322 c 1,17,18
 276.477 322 l 1,16,-1
 274.184 206 274.184 206 327.412 145 c 128,-1,15
 380.641 84 380.641 84 484.141 84 c 0,13,14
 608.341 84 608.341 84 680.148 175.5 c 128,-1,12
 751.955 267 751.955 267 787.993 473 c 2,10,11
 789.393 481 l 1,9,-1
 131.492 481 l 1,8,-1
EndSplineSet
EndChar
StartChar: uni0259
Encoding: 601 601 601
Width: 1237
Flags: W
Fore
478.945 463 m 1,0,1
 442.207 253 442.207 253 462.524 168.5 c 128,-1,2
 482.842 84 482.842 84 567.442 84 c 0,3,4
 649.342 84 649.342 84 699.412 167 c 128,-1,5
 749.482 250 749.482 250 783.597 445 c 2,6,-1
 786.745 463 l 1,7,-1
 478.945 463 l 1,0,1
149.663 582 m 1,8,-1
 807.562 582 l 1,9,-1
 808.963 590 l 2,10,11
 845.001 796 845.001 796 805.208 887.5 c 128,-1,12
 765.415 979 765.415 979 641.215 979 c 0,13,14
 537.715 979 537.715 979 463.144 918 c 128,-1,15
 388.572 857 388.572 857 350.279 741 c 1,16,-1
 200.879 741 l 1,17,18
 271.243 922 271.243 922 401.313 1007 c 128,-1,19
 531.384 1092 531.384 1092 738.384 1092 c 0,20,21
 986.783 1092 986.783 1092 1094.08 946.5 c 128,-1,22
 1201.38 801 1201.38 801 1154.14 531 c 0,23,24
 1107.96 267 1107.96 267 946.165 119 c 128,-1,25
 784.374 -29 784.374 -29 542.273 -29 c 0,26,27
 304.674 -29 304.674 -29 204.977 126.5 c 128,-1,28
 105.28 282 105.28 282 149.663 582 c 1,8,-1
EndSplineSet
EndChar
StartChar: uni025A
Encoding: 602 602 602
Width: 1770
Flags: W
TeX: 0 0 0 0
Fore
844.977 606 m 1,0,-1
 503.216 408.85 l 1,1,2
 478.082 241.827 478.082 241.827 495.739 168.5 c 0,3,4
 516.087 84 516.087 84 600.657 84 c 0,5,6
 682.557 84 682.557 84 732.627 167 c 0,7,8
 782.186 249.161 782.186 249.161 816.812 445 c 2,9,-1
 844.977 606 l 1,0,-1
858.927 737.559 m 1,10,11
 862.18 832.893 862.18 832.893 838.423 887.5 c 0,12,13
 798.615 979 798.615 979 674.43 979 c 0,14,15
 570.93 979 570.93 979 496.358 918 c 0,16,17
 421.787 857 421.787 857 383.494 741 c 1,18,-1
 234.094 741 l 1,19,20
 304.458 922 304.458 922 434.528 1007 c 0,21,22
 564.599 1092 564.599 1092 771.599 1092 c 0,23,24
 1020 1092 1020 1092 1127.3 946.5 c 0,25,26
 1140.96 927.975 1140.96 927.975 1152.11 907.431 c 1,27,-1
 1357.48 1025 l 1,28,-1
 1514.45 1022.43 l 1,29,-1
 1506.82 978.82 l 2,30,31
 1490.45 885.226 1490.45 885.226 1525.21 842.97 c 0,32,33
 1561.7 798.64 1561.7 798.64 1614.54 798.64 c 0,34,35
 1703.56 798.64 1703.56 798.64 1716.87 830.815 c 1,36,-1
 1796.45 679 l 1,37,38
 1718.84 631.119 1718.84 631.119 1715.88 630 c 0,39,40
 1670.81 613 1670.81 613 1585.24 613 c 0,41,42
 1480.77 613 1480.77 613 1413.18 706 c 0,43,44
 1354.37 787.302 1354.37 787.302 1365.63 907 c 1,45,-1
 1189.57 805.075 l 1,46,47
 1215.08 689.486 1215.08 689.486 1187.35 531 c 0,48,49
 1141.17 267 1141.17 267 979.38 119 c 0,50,51
 817.588 -29 817.588 -29 575.488 -29 c 0,52,53
 337.889 -29 337.889 -29 238.191 126.5 c 0,54,55
 183.942 211.902 183.942 211.902 172.422 341.602 c 1,56,-1
 350.926 444.558 l 1,57,-1
 858.927 737.559 l 1,10,11
EndSplineSet
EndChar
StartChar: uni025B
Encoding: 603 603 603
Width: 1093
Flags: W
TeX: 0 0 0 0
Fore
566.382 -36 m 0,3,4
 292.691 -36 292.691 -36 177.372 41 c 128,-1,5
 62.0527 118 62.0527 118 86.7197 259 c 0,6,7
 104.738 362 104.738 362 208.285 433 c 128,-1,8
 313.046 504 313.046 504 481.27 528 c 1,9,10
 321.442 552 321.442 552 241.698 624 c 128,-1,8
 162.995 695 162.995 695 180.838 797 c 0,6,7
 205.506 938 205.506 938 347.767 1015 c 128,-1,5
 490.026 1092 490.026 1092 738.517 1092 c 0,3,4
 816.322 1092 816.322 1092 902.773 1073 c 128,-1,2
 989.4 1055 989.4 1055 1081.21 1018 c 1,0,1
 1043.59 803 l 1,42,-1
 939.059 803 l 1,41,-1
 946.328 896 946.328 896 898.4 941 c 128,-1,40
 850.648 987 850.648 987 745.348 987 c 0,38,39
 648.148 987 648.148 987 586.851 935 c 128,-1,37
 526.628 884 526.628 884 510.009 789 c 0,35,36
 496.783 713.4 496.783 713.4 548.867 651 c 128,-1,34
 601.641 587.4 601.641 587.4 725.841 587.4 c 2,32,33
 760.04 587.4 l 1,31,-1
 739.048 467.4 l 17,0,0
 704.848 467.4 l 2,32,33
 578.559 467.4 578.559 467.4 505.832 405 c 128,-1,34
 431.704 341.4 431.704 341.4 418.864 268 c 0,35,36
 402.07 172 402.07 172 444.448 121 c 128,-1,37
 487 71 487 71 584.925 70 c 0,23,24
 688.25 69 688.25 69 752.098 115 c 128,-1,25
 815.946 161 815.946 161 855.638 285 c 1,26,-1
 1008.73 285 l 1,0,1
 965.37 156 965.37 156 862.406 59 c 128,-1,2
 761.682 -36 761.682 -36 566.382 -36 c 0,3,4
EndSplineSet
EndChar
StartChar: uni025C
Encoding: 604 604 604
Width: 1094
Flags: W
TeX: 0 0 0 0
Fore
422.984 -36 m 0,3,4
 227.685 -36 227.685 -36 160.197 59 c 128,-1,2
 91.1729 156 91.1729 156 92.9512 285 c 1,0,1
 246.04 285 l 1,26,-1
 242.349 161 242.349 161 290.101 115 c 128,-1,25
 337.854 69 337.854 69 441.528 70 c 0,23,24
 539.804 71 539.804 71 599.851 121 c 128,-1,37
 660.072 172 660.072 172 676.867 268 c 0,35,36
 689.707 341.4 689.707 341.4 637.834 405 c 128,-1,34
 586.938 467.4 586.938 467.4 460.649 467.4 c 2,32,33
 426.45 467.4 l 9,0,0
 447.443 587.4 l 1,31,-1
 481.644 587.4 l 2,32,33
 605.843 587.4 605.843 587.4 680.87 651 c 128,-1,34
 754.786 713.4 754.786 713.4 768.012 789 c 0,35,36
 784.632 884 784.632 884 742.254 935 c 128,-1,37
 699.149 987 699.149 987 601.95 987 c 0,38,39
 496.649 987 496.649 987 432.803 941 c 128,-1,40
 369.131 896 369.131 896 343.861 803 c 1,41,-1
 239.324 803 l 1,42,-1
 276.938 1018 l 1,0,1
 381.691 1055 381.691 1055 474.614 1073 c 128,-1,2
 567.713 1092 567.713 1092 645.519 1092 c 0,3,4
 894.008 1092 894.008 1092 1009.33 1015 c 128,-1,5
 1124.65 938 1124.65 938 1099.98 797 c 0,6,7
 1082.14 695 1082.14 695 978.591 624 c 128,-1,8
 873.655 552 873.655 552 705.432 528 c 1,9,10
 865.258 504 865.258 504 945.178 433 c 128,-1,8
 1023.88 362 1023.88 362 1005.86 259 c 0,6,7
 981.191 118 981.191 118 838.936 41 c 128,-1,5
 696.673 -36 696.673 -36 422.984 -36 c 0,3,4
EndSplineSet
EndChar
StartChar: uni025D
Encoding: 605 605 605
Width: 1768
Flags: W
TeX: 0 0 0 0
Fore
459.326 -36 m 0,0,1
 264.083 -36 264.083 -36 196.539 59 c 0,2,3
 127.516 156.081 127.516 156.081 129.292 285 c 1,4,-1
 282.382 285 l 1,5,6
 278.69 161 278.69 161 326.442 115 c 0,7,8
 374.195 69 374.195 69 477.87 70 c 0,9,10
 576.146 71 576.146 71 636.191 121 c 0,11,12
 696.413 172 696.413 172 713.209 268 c 0,13,14
 726.049 341.4 726.049 341.4 674.175 405 c 0,15,16
 623.28 467.4 623.28 467.4 496.991 467.4 c 2,17,-1
 462.791 467.4 l 1,18,-1
 483.785 587.4 l 1,19,-1
 517.984 587.4 l 2,20,21
 642.03 587.4 642.03 587.4 717.211 651 c 0,22,23
 791.154 713.552 791.154 713.552 804.353 789 c 0,24,25
 820.963 883.948 820.963 883.948 778.595 935 c 0,26,27
 735.439 987 735.439 987 638.291 987 c 0,28,29
 532.991 987 532.991 987 469.145 941 c 0,30,31
 405.472 896 405.472 896 380.203 803 c 1,32,-1
 275.666 803 l 1,33,-1
 313.279 1018 l 1,34,35
 418.032 1055 418.032 1055 510.956 1073 c 0,36,37
 604.055 1092 604.055 1092 681.86 1092 c 0,38,39
 930.35 1092 930.35 1092 1045.67 1015 c 0,40,41
 1138.08 953.296 1138.08 953.296 1140.6 850.492 c 1,42,-1
 1355.85 1025 l 1,43,-1
 1512.82 1022.43 l 1,44,-1
 1505.19 978.82 l 2,45,46
 1488.82 885.226 1488.82 885.226 1523.58 842.97 c 0,47,48
 1560.07 798.64 1560.07 798.64 1612.91 798.64 c 0,49,50
 1701.93 798.64 1701.93 798.64 1715.24 830.815 c 1,51,-1
 1794.82 679 l 1,52,53
 1717.21 631.119 1717.21 631.119 1714.25 630 c 0,54,55
 1669.18 613 1669.18 613 1583.62 613 c 0,56,57
 1479.14 613 1479.14 613 1411.55 706 c 0,58,59
 1352.74 787.302 1352.74 787.302 1364.01 907 c 1,60,-1
 1062.57 662.614 l 2,61,62
 1041.58 642.281 1041.58 642.281 1014.93 624 c 0,63,64
 909.953 551.994 909.953 551.994 741.773 528 c 1,65,66
 901.6 504 901.6 504 981.519 433 c 0,67,68
 1060.22 362 1060.22 362 1042.2 259 c 0,69,70
 1017.53 118 1017.53 118 875.276 41 c 0,71,72
 733.015 -36 733.015 -36 459.326 -36 c 0,0,1
EndSplineSet
EndChar
StartChar: uni025E
Encoding: 606 606 606
Width: 1402
Flags: W
TeX: 0 0 0 0
Fore
707.321 70 m 24,3,4
 805.596 71 805.596 71 865.643 121 c 128,-1,37
 925.865 172 925.865 172 942.659 268 c 0,35,36
 955.501 341.4 955.501 341.4 903.627 405 c 128,-1,34
 852.731 467.4 852.731 467.4 726.443 467.4 c 2,32,33
 692.243 467.4 l 9,0,0
 713.236 587.4 l 1,31,-1
 747.437 587.4 l 2,32,33
 871.636 587.4 871.636 587.4 946.662 651 c 128,-1,34
 1020.58 713.4 1020.58 713.4 1033.8 789 c 0,35,36
 1050.42 884 1050.42 884 1008.04 935 c 128,-1,37
 964.943 987 964.943 987 867.743 987 c 24,3,4
 853.164 987 853.164 987 783.595 969 c 128,-1,2
 748.81 960 748.81 960 684.827 923 c 0,0,0
 468.908 800 468.908 800 420.799 525 c 0,0,0
 376.793 273.449 376.793 273.449 545.572 127 c 0,0,0
 575.347 101.165 575.347 101.165 628.245 81 c 128,-1,2
 657.102 70 657.102 70 707.321 70 c 24,3,4
911.312 1092 m 24,3,4
 1159.8 1092 1159.8 1092 1275.12 1015 c 128,-1,5
 1390.44 938 1390.44 938 1365.78 797 c 0,6,7
 1347.93 695 1347.93 695 1244.38 624 c 128,-1,8
 1139.45 552 1139.45 552 971.225 528 c 1,9,10
 1131.05 504 1131.05 504 1210.97 433 c 128,-1,8
 1289.67 362 1289.67 362 1271.65 259 c 0,6,7
 1246.98 118 1246.98 118 1104.73 41 c 128,-1,5
 962.468 -36 962.468 -36 685.988 -36 c 24,3,4
 667.027 -36 667.027 -36 541.846 -17 c 128,-1,2
 490.323 -9.17969 490.323 -9.17969 396.919 38 c 0,0,0
 92.3799 191.829 92.3799 191.829 151.189 528 c 0,0,0
 205.072 836 205.072 836 568.363 1018 c 0,0,0
 636.1 1051.98 636.1 1051.98 732.709 1074 c 128,-1,2
 811.674 1092 811.674 1092 911.312 1092 c 24,3,4
EndSplineSet
EndChar
StartChar: uni025F
Encoding: 607 607 607
Width: 734
Flags: W
Fore
330.143 942 m 1,0,-1
 194.242 942 l 1,1,-1
 215.409 1063 l 1,2,-1
 669.909 1063 l 1,3,-1
 505.115 121 l 1,4,-1
 656.315 121 l 1,5,-1
 635.146 0 l 1,6,-1
 483.946 0 l 1,7,-1
 462.079 -125 l 2,8,9
 433.563 -288 433.563 -288 315.006 -371.5 c 0,10,11
 196.448 -455 196.448 -455 -6.05176 -455 c 0,12,13
 -60.0518 -455 -60.0518 -455 -119.503 -445 c 0,14,15
 -178.953 -435 -178.953 -435 -241.33 -416 c 1,16,-1
 -201.792 -190 l 1,17,-1
 -100.268 -191 l 1,18,19
 -112.463 -271 -112.463 -271 -92.123 -306.5 c 0,20,21
 -71.7832 -342 -71.7832 -342 -12.3838 -342 c 0,22,23
 53.3164 -342 53.3164 -342 87.6387 -295 c 0,24,25
 121.961 -248 121.961 -248 143.479 -125 c 2,26,-1
 165.347 0 l 1,27,-1
 31.2461 0 l 1,28,-1
 52.415 121 l 1,29,-1
 186.515 121 l 1,30,-1
 330.143 942 l 1,0,-1
EndSplineSet
EndChar
StartChar: uni0260
Encoding: 608 608 608
Width: 1378
Flags: W
TeX: 0 0 0 0
Fore
949.153 936 m 1,0,-1
 767.354 936 l 2,1,2
 668.354 936 668.354 936 612.996 848.5 c 0,3,4
 557.638 761 557.638 761 517.576 532 c 0,5,6
 477.515 303 477.515 303 502.619 215 c 0,7,8
 527.725 127 527.725 127 625.824 127 c 0,9,10
 720.324 127 720.324 127 778.044 210 c 0,11,12
 835.765 293 835.765 293 868.305 479 c 2,13,-1
 886.673 584 l 1,14,-1
 949.153 936 l 1,0,-1
1245.86 816 m 1,15,-1
 1105.55 14 l 2,16,17
 1066.37 -210 1066.37 -210 901.389 -332.5 c 0,18,19
 736.408 -455 736.408 -455 474.509 -455 c 0,20,21
 379.108 -455 379.108 -455 283.895 -438.5 c 0,22,23
 188.681 -422 188.681 -422 90.9541 -389 c 1,24,-1
 135.39 -135 l 1,25,-1
 237.089 -135 l 1,26,27
 232.222 -240 232.222 -240 285.849 -291 c 0,28,29
 339.477 -342 339.477 -342 455.577 -342 c 0,30,31
 603.177 -342 603.177 -342 677.659 -263.5 c 0,32,33
 752.143 -185 752.143 -185 786.956 14 c 2,34,-1
 808.124 135 l 1,35,36
 753.104 52 753.104 52 677.169 11.5 c 0,37,38
 601.233 -29 601.233 -29 500.433 -29 c 0,39,40
 297.033 -29 297.033 -29 206.726 121 c 0,41,42
 116.416 271 116.416 271 162.076 532 c 0,43,44
 202.233 761.548 202.233 761.548 348.154 914 c 0,45,46
 490.771 1063 490.771 1063 694.171 1063 c 2,47,-1
 971.37 1063 l 1,48,-1
 999.883 1226 l 2,49,50
 1028.4 1389 1028.4 1389 1146.96 1472.5 c 0,51,52
 1265.53 1556 1265.53 1556 1468.02 1556 c 0,53,54
 1522.02 1556 1522.02 1556 1581.47 1546 c 0,55,56
 1640.92 1536 1640.92 1536 1703.3 1517 c 1,57,-1
 1663.93 1292 l 1,58,-1
 1562.23 1292 l 1,59,60
 1574.42 1372 1574.42 1372 1554.08 1407.5 c 0,61,62
 1533.74 1443 1533.74 1443 1474.34 1443 c 0,63,64
 1408.64 1443 1408.64 1443 1374.33 1396 c 0,65,66
 1339.99 1348.91 1339.99 1348.91 1318.48 1226 c 2,67,-1
 1246.76 816 l 1,68,-1
 1245.86 816 l 1,15,-1
EndSplineSet
EndChar
StartChar: uni0261
Encoding: 609 609 609
Width: 1367
Flags: W
TeX: 0 0 0 0
Fore
726.622 1063 m 0,25,26
 1457.42 1063 l 1,30,-1
 1436.25 942 l 1,31,-1
 1300.35 942 l 1,0,-1
 1138.01 14 l 2,1,2
 1098.82 -210 1098.82 -210 933.841 -332.5 c 128,-1,3
 768.859 -455 768.859 -455 506.961 -455 c 0,4,5
 411.56 -455 411.56 -455 316.347 -438.5 c 128,-1,6
 221.133 -422 221.133 -422 123.406 -389 c 1,7,-1
 167.842 -135 l 1,8,-1
 269.542 -135 l 1,9,10
 264.673 -240 264.673 -240 318.301 -291 c 128,-1,11
 371.929 -342 371.929 -342 488.029 -342 c 0,12,13
 635.629 -342 635.629 -342 710.111 -263.5 c 128,-1,14
 784.595 -185 784.595 -185 819.408 14 c 2,15,-1
 840.575 135 l 1,16,17
 785.557 52 785.557 52 709.621 11.5 c 128,-1,18
 633.686 -29 633.686 -29 532.885 -29 c 0,19,20
 329.485 -29 329.485 -29 239.178 121 c 128,-1,21
 148.868 271 148.868 271 194.527 532 c 0,22,23
 234.686 761.548 234.686 761.548 380.606 914 c 128,-1,24
 523.223 1063 523.223 1063 726.622 1063 c 0,25,26
919.126 584 m 2,32,33
 981.606 936 l 129,-1,34
 799.806 936 l 1,35,36
 700.806 936 700.806 936 645.447 848.5 c 128,-1,37
 590.09 761 590.09 761 550.027 532 c 0,38,39
 509.967 303 509.967 303 535.071 215 c 128,-1,40
 560.177 127 560.177 127 658.276 127 c 0,41,42
 752.776 127 752.776 127 810.497 210 c 128,-1,43
 868.217 293 868.217 293 900.757 479 c 2,44,-1
 919.126 584 l 2,32,33
EndSplineSet
EndChar
StartChar: uni0262
Encoding: 610 610 610
Width: 1221
Flags: W
TeX: 0 0 0 0
Fore
1005.73 720 m 1,0,1
 1005.65 834.618 1005.65 834.618 930.745 919 c 128,-1,2
 876.596 980 876.596 980 807.316 980 c 0,3,4
 702.917 980 702.917 980 616.349 871 c 128,-1,5
 528.879 762 528.879 762 487.767 527 c 0,6,7
 446.933 293.58 446.933 293.58 492.737 185 c 128,-1,8
 539.141 75 539.141 75 636.394 75 c 0,9,10
 680.494 75 680.494 75 739.691 115 c 1,12,-1
 792.374 411 l 1,13,-1
 661.874 411 l 1,14,-1
 676.57 495 l 1,15,-1
 1112.17 495 l 1,16,-1
 1042.71 98 l 1,17,18
 927.972 44 927.972 44 818.848 17 c 128,-1,19
 709.898 -9 709.898 -9 600.999 -9 c 0,20,21
 361.599 -9 361.599 -9 249.816 134 c 128,-1,22
 138.207 278 138.207 278 181.767 527 c 0,23,24
 225.504 777 225.504 777 387.32 920 c 128,-1,25
 549.312 1064 549.312 1064 788.712 1064 c 0,26,27
 888.611 1064 888.611 1064 981.064 1042 c 128,-1,28
 1073.34 1019 1073.34 1019 1163.57 974 c 1,29,-1
 1119.13 720 l 1,30,-1
 1005.73 720 l 1,0,1
EndSplineSet
EndChar
StartChar: uni0263
Encoding: 611 611 611
Width: 1394
Flags: W
TeX: 0 0 0 0
Fore
712.713 305 m 1,0,0
 416.722 -44.207 416.722 -44.207 394.366 -172 c 0,0,0
 372.074 -299.423 372.074 -299.423 548.373 -300 c 0,0,0
 772.733 -301.065 772.733 -301.065 792.565 -180 c 0,0,0
 835.462 82.4023 835.462 82.4023 712.713 305 c 1,0,0
675.133 404 m 0,0,0
 413.751 942 l 1,22,-1
 306.651 942 l 1,23,-1
 327.819 1063 l 1,24,-1
 911.919 1063 l 1,25,-1
 890.751 942 l 1,26,-1
 774.651 942 l 1,27,-1
 898.566 678 l 1,0,-1
 1113.96 942 l 1,1,-1
 996.055 942 l 1,2,-1
 1017.22 1063 l 1,3,-1
 1389.82 1063 l 1,4,-1
 1368.65 942 l 1,5,-1
 1241.75 942 l 1,6,-1
 931.548 563 l 0,0,0
 1144.81 92.998 1144.81 92.998 1081.77 -276 c 0,0,0
 1052.85 -445.703 1052.85 -445.703 558.481 -448 c 0,0,0
 135.457 -450.6 135.457 -450.6 302.387 -101 c 0,0,0
 403.545 110.856 403.545 110.856 675.133 404 c 0,0,0
EndSplineSet
EndChar
StartChar: uni0264
Encoding: 612 612 612
Width: 1230
Flags: W
TeX: 0 0 0 0
Fore
813.971 692 m 1,0,0
 1129.81 1049.76 1129.81 1049.76 1213.13 1065 c 0,0,0
 1275.91 1076.48 1275.91 1076.48 1272.1 970 c 1,0,0
 1244.61 818 l 25,0,0
 1150.11 818 l 25,0,0
 1153.44 837 l 26,0,0
 1165.68 922.043 1165.68 922.043 1143.36 908 c 0,0,0
 1098.86 880 1098.86 880 853.376 588 c 1,0,0
 1062.48 143.177 1062.48 143.177 964.607 56 c 16,0,0
 815.247 -77.04 815.247 -77.04 622.015 -76 c 0,0,0
 339.946 -74.4814 339.946 -74.4814 271.711 0 c 0,0,0
 190.189 86.8184 190.189 86.8184 578.059 465 c 1,0,0
 525.93 645.146 525.93 645.146 386.061 880 c 0,0,0
 334.582 966.438 334.582 966.438 312.463 840 c 26,0,0
 308.613 818 l 25,0,0
 206.014 818 l 25,0,0
 233.305 974 l 17,0,0
 258.075 1061.5 258.075 1061.5 438.05 1064 c 0,0,0
 644.744 1067 644.744 1067 813.971 692 c 1,0,0
613.391 348 m 1,0,0
 451.112 197.548 451.112 197.548 443.002 156 c 0,0,0
 427.043 78.2627 427.043 78.2627 547.807 76 c 0,0,0
 634.583 74.3535 634.583 74.3535 669.103 152 c 0,0,0
 696.081 216.206 696.081 216.206 613.391 348 c 1,0,0
EndSplineSet
EndChar
StartChar: uni0265
Encoding: 613 613 613
Width: 1419
Flags: W
Fore
1350.49 1063 m 1,0,-1
 1111 -306 l 1,3,-1
 1253.19 -306 l 1,4,-1
 1232.2 -426 l 1,5,-1
 771.401 -426 l 1,6,-1
 872.168 150 l 1,7,8
 797.949 55 797.949 55 716.801 13 c 128,-1,9
 635.653 -29 635.653 -29 523.153 -29 c 0,10,11
 362.054 -29 362.054 -29 298.16 76.5 c 128,-1,12
 234.266 182 234.266 182 270.129 387 c 2,13,-1
 367.223 942 l 1,14,-1
 230.422 942 l 1,15,-1
 251.59 1063 l 1,16,-1
 823.09 1063 l 1,17,-1
 801.922 942 l 1,18,-1
 685.822 942 l 1,19,-1
 586.979 377 l 2,20,21
 563.363 242 563.363 242 585.229 189.5 c 128,-1,22
 607.094 137 607.094 137 683.594 137 c 0,23,24
 779.894 137 779.894 137 838.627 215.5 c 128,-1,25
 897.359 294 897.359 294 927.275 465 c 2,26,-1
 1010.73 942 l 1,27,-1
 893.723 942 l 1,28,-1
 914.891 1063 l 1,29,-1
 1350.49 1063 l 1,0,-1
EndSplineSet
EndChar
StartChar: uni0266
Encoding: 614 614 614
Width: 1401
Flags: W
Fore
-11.4512 0 m 1,0,-1
 9.71582 121 l 1,1,-1
 145.616 121 l 1,2,-1
 314.436 1086 l 1,3,-1
 315.335 1086 l 1,4,-1
 339.827 1226 l 2,5,6
 368.346 1389.01 368.346 1389.01 486.9 1472.5 c 0,7,8
 605.465 1556 605.465 1556 807.958 1556 c 0,9,10
 861.958 1556 861.958 1556 921.409 1546 c 0,11,12
 980.859 1536 980.859 1536 1043.24 1517 c 1,13,-1
 1003.87 1292 l 1,14,-1
 902.173 1292 l 1,15,16
 914.369 1372 914.369 1372 894.029 1407.5 c 0,17,18
 873.689 1443 873.689 1443 814.29 1443 c 0,19,20
 748.59 1443 748.59 1443 714.268 1396 c 0,21,22
 679.93 1348.91 679.93 1348.91 658.427 1226 c 2,23,-1
 603.93 914.479 l 1,24,25
 677.624 1008.33 677.624 1008.33 758.137 1050 c 0,26,27
 839.284 1092 839.284 1092 951.784 1092 c 0,28,29
 1112.89 1092 1112.89 1092 1176.78 986.5 c 0,30,31
 1240.67 881 1240.67 881 1204.81 676 c 2,32,-1
 1107.71 121 l 1,33,-1
 1244.51 121 l 1,34,-1
 1223.35 0 l 1,35,-1
 651.848 0 l 1,36,-1
 673.016 121 l 1,37,-1
 789.116 121 l 1,38,-1
 887.958 686 l 2,39,40
 911.575 821 911.575 821 889.71 873.5 c 0,41,42
 867.845 926 867.845 926 791.345 926 c 0,43,44
 695.045 926 695.045 926 636.312 847.5 c 0,45,46
 577.579 769 577.579 769 547.664 598 c 2,47,-1
 464.216 121 l 1,48,-1
 581.216 121 l 1,49,-1
 560.048 0 l 1,50,-1
 -11.4512 0 l 1,0,-1
EndSplineSet
EndChar
StartChar: uni0267
Encoding: 615 615 615
Width: 1404
Flags: W
Fore
31.2793 0 m 1,0,-1
 52.4482 121 l 1,1,-1
 188.348 121 l 1,2,-1
 357.167 1086 l 1,3,-1
 358.067 1086 l 1,4,-1
 382.56 1226 l 2,5,6
 411.076 1389.01 411.076 1389.01 529.633 1472.5 c 0,7,8
 648.196 1556 648.196 1556 850.689 1556 c 0,9,10
 904.689 1556 904.689 1556 964.141 1546 c 0,11,12
 1023.59 1536 1023.59 1536 1085.97 1517 c 1,13,-1
 1046.6 1292 l 1,14,-1
 944.905 1292 l 1,15,16
 957.102 1372 957.102 1372 936.761 1407.5 c 0,17,18
 916.421 1443 916.421 1443 857.021 1443 c 0,19,20
 791.321 1443 791.321 1443 757 1396 c 0,21,22
 722.661 1348.91 722.661 1348.91 701.159 1226 c 2,23,-1
 646.66 914.479 l 1,24,25
 720.355 1008.33 720.355 1008.33 800.869 1050 c 0,26,27
 882.017 1092 882.017 1092 994.52 1092 c 0,28,29
 1155.62 1092 1155.62 1092 1219.51 986.5 c 0,30,31
 1283.4 881 1283.4 881 1247.54 676 c 2,32,-1
 1179.14 285 l 1,33,-1
 1150.44 121 l 1,34,-1
 1129.28 0 l 1,35,-1
 1107.42 -125 l 2,36,37
 1078.89 -288.003 1078.89 -288.003 960.339 -371.5 c 0,38,39
 841.781 -455 841.781 -455 639.281 -455 c 0,40,41
 585.281 -455 585.281 -455 525.83 -445 c 0,42,43
 466.38 -435 466.38 -435 404.004 -416 c 1,44,-1
 443.366 -191 l 1,45,-1
 545.065 -191 l 1,46,47
 532.87 -271 532.87 -271 553.21 -306.5 c 0,48,49
 573.55 -342 573.55 -342 632.95 -342 c 0,50,51
 698.65 -342 698.65 -342 732.972 -295 c 0,52,53
 767.31 -247.91 767.31 -247.91 788.812 -125 c 2,54,-1
 810.679 0 l 1,55,-1
 831.848 121 l 1,56,-1
 860.538 285 l 1,57,-1
 930.69 686 l 2,58,59
 954.308 821 954.308 821 932.442 873.5 c 0,60,61
 910.576 926 910.576 926 834.076 926 c 0,62,63
 737.776 926 737.776 926 679.043 847.5 c 0,64,65
 620.311 769 620.311 769 590.396 598 c 2,66,-1
 506.948 121 l 1,67,-1
 623.948 121 l 1,68,-1
 602.779 0 l 1,69,-1
 31.2793 0 l 1,0,-1
EndSplineSet
EndChar
StartChar: uni0268
Encoding: 616 616 616
Width: 730
Flags: W
Fore
433.121 121 m 1,0,-1
 569.922 121 l 1,1,-1
 548.753 0 l 1,2,-1
 -42.5459 0 l 1,3,-1
 -21.3789 121 l 1,4,-1
 114.521 121 l 1,5,-1
 177.15 479 l 1,6,-1
 41.251 479 l 1,7,-1
 62.4189 600 l 1,8,-1
 198.318 600 l 1,9,-1
 258.148 942 l 1,10,-1
 122.249 942 l 1,11,-1
 143.417 1063 l 1,12,-1
 597.917 1063 l 1,13,-1
 516.919 600 l 1,14,-1
 653.719 600 l 1,15,-1
 632.551 479 l 1,16,-1
 495.751 479 l 1,17,-1
 433.121 121 l 1,0,-1
302.275 1364 m 0,18,19
 316.444 1445 316.444 1445 376.554 1500.5 c 0,20,21
 436.664 1556 436.664 1556 509.563 1556 c 0,22,23
 580.664 1556 580.664 1556 620.903 1500.5 c 0,24,25
 661.145 1445 661.145 1445 646.975 1364 c 0,26,27
 633.154 1285 633.154 1285 573.495 1229.5 c 0,28,29
 513.836 1174 513.836 1174 442.736 1174 c 0,30,31
 369.836 1174 369.836 1174 329.058 1229 c 0,32,33
 288.279 1284 288.279 1284 302.275 1364 c 0,18,19
EndSplineSet
EndChar
StartChar: uni0269
Encoding: 617 617 617
Width: 730
Flags: W
TeX: 0 0 0 0
Fore
302.105 1364 m 0,0,1
 316.274 1445 316.274 1445 376.384 1500.5 c 128,-1,2
 436.494 1556 436.494 1556 509.395 1556 c 0,3,4
 580.494 1556 580.494 1556 620.734 1500.5 c 128,-1,5
 660.975 1445 660.975 1445 646.806 1364 c 0,6,7
 632.985 1285 632.985 1285 573.325 1229.5 c 128,-1,8
 513.666 1174 513.666 1174 442.566 1174 c 0,9,10
 369.666 1174 369.666 1174 328.888 1229 c 128,-1,11
 288.109 1284 288.109 1284 302.105 1364 c 0,0,1
432.952 121 m 1,12,-1
 569.752 121 l 1,13,-1
 548.584 0 l 1,14,-1
 -42.7158 0 l 1,15,-1
 -21.5479 121 l 1,16,-1
 114.352 121 l 1,17,-1
 257.979 942 l 1,18,-1
 122.079 942 l 1,19,-1
 143.247 1063 l 1,20,-1
 597.747 1063 l 1,21,-1
 432.952 121 l 1,12,-1
EndSplineSet
EndChar
StartChar: uni026A
Encoding: 618 618 618
Width: 740
Flags: W
TeX: 0 0 0 0
Fore
310.563 942 m 1,18,-1
195.832 1063 m 1,20,-1
 787.132 1063 l 1,15,-1
 765.964 942 l 1,16,-1
 630.063 942 l 1,21,-1
 485.536 121 l 1,12,-1
 622.336 121 l 1,13,-1
 601.168 0 l 1,14,-1
 9.86816 0 l 1,15,-1
 31.0361 121 l 1,16,-1
 166.937 121 l 1,17,-1
 310.563 942 l 1,18,-1
 174.664 942 l 1,19,-1
 195.832 1063 l 1,20,-1
EndSplineSet
EndChar
StartChar: uni026B
Encoding: 619 619 619
Width: 792
Flags: W
Fore
475.879 121 m 1,0,-1
 612.679 121 l 1,1,-1
 591.511 0 l 1,2,-1
 0.210938 0 l 1,3,-1
 21.3789 121 l 1,4,-1
 157.278 121 l 1,5,-1
 279.866 821.736 l 1,6,7
 246.865 818.959 246.865 818.959 221.14 787 c 0,8,9
 192.967 752 192.967 752 182.296 691 c 1,10,-1
 83.2959 691 l 1,11,-1
 86.0947 707 l 2,12,13
 111.636 853 111.636 853 172.544 928.5 c 0,14,15
 228.893 998.347 228.893 998.347 311.68 1003.58 c 1,16,-1
 387.327 1436 l 1,17,-1
 251.428 1436 l 1,18,-1
 272.421 1556 l 1,19,-1
 726.921 1556 l 1,20,-1
 608.125 876.948 l 1,21,22
 627.699 885.429 627.699 885.429 644.259 906 c 0,23,24
 672.432 941 672.432 941 683.103 1002 c 1,25,-1
 782.103 1002 l 1,26,-1
 779.304 986 l 2,27,28
 753.763 840 753.763 840 692.854 764.5 c 0,29,30
 644.181 704.166 644.181 704.166 575.778 692.046 c 1,31,-1
 475.879 121 l 1,0,-1
EndSplineSet
EndChar
StartChar: uni026C
Encoding: 620 620 620
Width: 1001
Flags: W
TeX: 0 0 0 0
Fore
681.972 121 m 1,0,-1
 818.771 121 l 1,1,-1
 797.604 0 l 1,2,-1
 206.304 0 l 1,3,-1
 227.472 121 l 1,4,-1
 363.371 121 l 1,5,-1
 457.14 657 l 1,6,-1
 315.84 657 l 2,7,8
 92.2197 659.742 92.2197 659.742 122.181 831 c 0,9,10
 166.092 1082 166.092 1082 427.991 1082 c 0,11,12
 487.033 1082 487.033 1082 529.322 1069.6 c 1,13,-1
 593.421 1436 l 1,14,-1
 457.521 1436 l 1,15,-1
 478.514 1556 l 1,16,-1
 933.014 1556 l 1,17,-1
 796.734 777 l 1,18,-1
 951.534 777 l 1,19,-1
 930.54 657 l 1,20,-1
 775.74 657 l 1,21,-1
 681.972 121 l 1,0,-1
502.72 917.535 m 2,22,23
 506.571 991.235 506.571 991.235 404.397 978 c 0,24,25
 277.317 961.537 277.317 961.537 260.778 867 c 0,26,27
 243.939 770.746 243.939 770.746 347.634 777 c 2,28,-1
 478.134 777 l 1,29,-1
 502.72 917.535 l 2,22,23
EndSplineSet
EndChar
StartChar: uni026D
Encoding: 621 621 621
Width: 744
Flags: W
Fore
147.788 0 m 1,0,-1
 146.889 0 l 1,1,-1
 398.106 1436 l 1,2,-1
 262.206 1436 l 1,3,-1
 283.199 1556 l 1,4,-1
 737.699 1556 l 1,5,-1
 516.248 285 l 1,6,-1
 444.521 -125 l 2,7,8
 423.02 -247.91 423.02 -247.91 440.881 -295 c 0,9,10
 458.759 -342 458.759 -342 524.459 -342 c 0,11,12
 583.859 -342 583.859 -342 616.619 -306.5 c 0,13,14
 649.379 -271 649.379 -271 665.175 -191 c 1,15,-1
 766.875 -191 l 1,16,-1
 727.514 -416 l 1,17,18
 658.489 -435 658.489 -435 595.539 -445 c 0,19,20
 532.591 -455 532.591 -455 478.591 -455 c 0,21,22
 276.095 -455 276.095 -455 186.748 -371.5 c 0,23,24
 97.4053 -288.003 97.4053 -288.003 125.922 -125 c 2,25,-1
 147.788 0 l 1,0,-1
EndSplineSet
EndChar
StartChar: uni026E
Encoding: 622 622 622
Width: 1404
Flags: W
TeX: 0 0 0 0
Fore
31.2793 0 m 1,0,-1
 52.4482 121 l 1,1,-1
 188.348 121 l 1,2,-1
 418.397 1436 l 1,3,-1
 276.197 1436 l 1,4,-1
 297.189 1556 l 1,5,-1
 757.989 1556 l 1,6,-1
 645.502 913 l 1,7,8
 719.722 1008 719.722 1008 800.869 1050 c 0,9,10
 882.017 1092 882.017 1092 994.52 1092 c 0,11,12
 1155.62 1092 1155.62 1092 1219.51 986.5 c 0,13,14
 1283.4 881 1283.4 881 1247.54 676 c 2,15,-1
 1179.14 285 l 1,16,-1
 1129.28 0 l 1,17,-1
 1107.42 -125 l 2,18,19
 1078.89 -288.003 1078.89 -288.003 960.339 -371.5 c 0,20,21
 841.781 -455 841.781 -455 639.281 -455 c 0,22,23
 585.281 -455 585.281 -455 525.83 -445 c 0,24,25
 466.38 -435 466.38 -435 404.004 -416 c 1,26,-1
 443.366 -191 l 1,27,-1
 545.065 -191 l 1,28,29
 532.87 -271 532.87 -271 553.21 -306.5 c 0,30,31
 573.55 -342 573.55 -342 632.95 -342 c 0,32,33
 698.65 -342 698.65 -342 732.972 -295 c 0,34,35
 767.31 -247.91 767.31 -247.91 788.812 -125 c 2,36,-1
 810.679 0 l 1,37,-1
 860.538 285 l 1,38,-1
 930.69 686 l 2,39,40
 954.308 821 954.308 821 932.442 873.5 c 0,41,42
 910.576 926 910.576 926 834.076 926 c 0,43,44
 737.776 926 737.776 926 679.043 847.5 c 0,45,46
 620.311 769 620.311 769 590.396 598 c 2,47,-1
 506.948 121 l 1,48,-1
 623.948 121 l 1,49,-1
 602.779 0 l 1,50,-1
 31.2793 0 l 1,0,-1
EndSplineSet
EndChar
StartChar: uni026F
Encoding: 623 623 623
Width: 2066
Flags: W
Fore
888.231 174 m 1,0,1
 803.089 68 803.089 68 717.203 19.5 c 128,-1,2
 631.318 -29 631.318 -29 527.818 -29 c 0,3,4
 363.118 -29 363.118 -29 299.774 74.5 c 128,-1,5
 236.432 178 236.432 178 272.994 387 c 2,6,-1
 370.087 942 l 1,7,-1
 233.287 942 l 1,8,-1
 254.456 1063 l 1,9,-1
 824.156 1063 l 1,10,-1
 802.987 942 l 1,11,-1
 688.687 942 l 1,12,-1
 600.867 440 l 2,13,14
 566.053 241 566.053 241 584.405 189 c 128,-1,15
 602.76 137 602.76 137 677.459 137 c 0,16,17
 762.06 137 762.06 137 821.543 209.5 c 128,-1,18
 881.025 282 881.025 282 904.468 416 c 2,19,-1
 996.487 942 l 1,20,-1
 882.187 942 l 1,21,-1
 903.355 1063 l 1,22,-1
 1450.55 1063 l 1,23,-1
 1429.39 942 l 1,24,-1
 1315.09 942 l 1,25,-1
 1227.26 440 l 2,26,27
 1192.45 241 1192.45 241 1211.25 189 c 128,-1,28
 1230.06 137 1230.06 137 1303.86 137 c 0,29,30
 1389.36 137 1389.36 137 1448.84 209.5 c 128,-1,31
 1508.33 282 1508.33 282 1531.77 416 c 2,32,-1
 1623.79 942 l 1,33,-1
 1509.49 942 l 1,34,-1
 1530.65 1063 l 1,35,-1
 2099.45 1063 l 1,36,-1
 2078.29 942 l 1,37,-1
 1942.39 942 l 1,38,-1
 1798.76 121 l 1,39,-1
 1934.66 121 l 1,40,-1
 1913.5 0 l 1,41,-1
 1459 0 l 1,42,-1
 1485.23 150 l 1,43,44
 1413.16 57 1413.16 57 1333.64 14 c 128,-1,45
 1254.12 -29 1254.12 -29 1155.12 -29 c 0,46,47
 1038.12 -29 1038.12 -29 973.878 20.5 c 128,-1,48
 909.638 70 909.638 70 888.231 174 c 1,0,1
EndSplineSet
EndChar
StartChar: uni0270
Encoding: 624 624 624
Width: 2070
Flags: W
Fore
926.816 174 m 1,0,1
 841.673 68 841.673 68 755.788 19.5 c 128,-1,2
 669.903 -29 669.903 -29 566.403 -29 c 0,3,4
 401.703 -29 401.703 -29 338.359 74.5 c 128,-1,5
 275.016 178 275.016 178 311.579 387 c 2,6,-1
 408.672 942 l 1,7,-1
 271.872 942 l 1,8,-1
 293.04 1063 l 1,9,-1
 862.74 1063 l 1,10,-1
 841.572 942 l 1,11,-1
 727.272 942 l 1,12,-1
 639.451 440 l 2,13,14
 604.639 241 604.639 241 622.991 189 c 128,-1,15
 641.344 137 641.344 137 716.044 137 c 0,16,17
 800.644 137 800.644 137 860.127 209.5 c 128,-1,18
 919.61 282 919.61 282 943.053 416 c 2,19,-1
 1035.08 942 l 1,20,-1
 920.772 942 l 1,21,-1
 941.94 1063 l 1,22,-1
 1489.14 1063 l 1,23,-1
 1467.98 942 l 1,24,-1
 1353.68 942 l 1,25,-1
 1265.85 440 l 2,26,27
 1231.04 241 1231.04 241 1249.84 189 c 128,-1,28
 1268.64 137 1268.64 137 1342.44 137 c 0,29,30
 1427.94 137 1427.94 137 1487.42 209.5 c 128,-1,31
 1546.92 282 1546.92 282 1570.35 416 c 2,32,-1
 1662.38 942 l 1,33,-1
 1548.08 942 l 1,34,-1
 1569.24 1063 l 1,35,-1
 2138.04 1063 l 1,36,-1
 2116.88 942 l 1,37,-1
 1980.98 942 l 1,38,-1
 1762.82 -305 l 1,39,-1
 1898.72 -305 l 1,40,-1
 1877.55 -426 l 1,41,-1
 1423.05 -426 l 1,42,-1
 1523.82 150 l 1,43,44
 1451.75 57 1451.75 57 1372.22 14 c 128,-1,45
 1292.7 -29 1292.7 -29 1193.7 -29 c 0,46,47
 1076.7 -29 1076.7 -29 1012.46 20.5 c 128,-1,48
 948.223 70 948.223 70 926.816 174 c 1,0,1
EndSplineSet
EndChar
StartChar: uni0271
Encoding: 625 625 625
Width: 2053
Flags: W
Fore
1321.52 889 m 1,0,1
 1406.67 995 1406.67 995 1492.56 1043.5 c 0,2,3
 1578.44 1092 1578.44 1092 1681.94 1092 c 0,4,5
 1846.64 1092 1846.64 1092 1909.98 988.5 c 0,6,7
 1973.33 885 1973.33 885 1936.76 676 c 2,8,-1
 1868.36 285 l 1,9,-1
 1818.5 0 l 1,10,-1
 1796.63 -125 l 2,11,12
 1768.12 -288.003 1768.12 -288.003 1649.56 -371.5 c 0,13,14
 1531.01 -455 1531.01 -455 1328.51 -455 c 0,15,16
 1274.51 -455 1274.51 -455 1215.05 -445 c 0,17,18
 1155.6 -435 1155.6 -435 1093.23 -416 c 1,19,-1
 1132.59 -191 l 1,20,-1
 1234.29 -191 l 1,21,22
 1222.09 -271 1222.09 -271 1242.43 -306.5 c 0,23,24
 1262.77 -342 1262.77 -342 1322.17 -342 c 0,25,26
 1387.87 -342 1387.87 -342 1422.2 -295 c 0,27,28
 1456.53 -247.91 1456.53 -247.91 1478.03 -125 c 2,29,-1
 1499.9 0 l 1,30,-1
 1549.76 285 l 1,31,-1
 1608.89 623 l 2,32,33
 1643.71 822 1643.71 822 1625.35 874 c 0,34,35
 1607 926 1607 926 1532.3 926 c 0,36,37
 1447.7 926 1447.7 926 1388.21 853.5 c 0,38,39
 1328.73 781 1328.73 781 1305.29 647 c 2,40,-1
 1213.27 121 l 1,41,-1
 1327.57 121 l 1,42,-1
 1306.4 0 l 1,43,-1
 759.203 0 l 1,44,-1
 780.371 121 l 1,45,-1
 894.672 121 l 1,46,-1
 982.491 623 l 2,47,48
 1017.31 822 1017.31 822 998.504 874 c 0,49,50
 979.7 926 979.7 926 905.899 926 c 0,51,52
 820.399 926 820.399 926 760.916 853.5 c 0,53,54
 701.434 781 701.434 781 677.991 647 c 2,55,-1
 585.972 121 l 1,56,-1
 700.271 121 l 1,57,-1
 679.104 0 l 1,58,-1
 110.304 0 l 1,59,-1
 131.472 121 l 1,60,-1
 267.371 121 l 1,61,-1
 410.999 942 l 1,62,-1
 275.099 942 l 1,63,-1
 296.267 1063 l 1,64,-1
 750.767 1063 l 1,65,-1
 724.526 913 l 1,66,67
 796.596 1006 796.596 1006 876.118 1049 c 0,68,69
 955.641 1092 955.641 1092 1054.64 1092 c 0,70,71
 1171.64 1092 1171.64 1092 1235.88 1042.5 c 0,72,73
 1300.12 993 1300.12 993 1321.52 889 c 1,0,1
EndSplineSet
EndChar
StartChar: uni0272
Encoding: 626 626 626
Width: 1395
Flags: W
Fore
363.469 942 m 1,0,-1
 227.568 942 l 1,1,-1
 248.736 1063 l 1,2,-1
 703.236 1063 l 1,3,-1
 676.996 913 l 1,4,5
 751.215 1008 751.215 1008 832.362 1050 c 0,6,7
 913.511 1092 913.511 1092 1026.01 1092 c 0,8,9
 1187.11 1092 1187.11 1092 1251.01 986.5 c 0,10,11
 1314.9 881 1314.9 881 1279.03 676 c 2,12,-1
 1181.94 121 l 1,13,-1
 1318.74 121 l 1,14,-1
 1297.57 0 l 1,15,-1
 726.073 0 l 1,16,-1
 747.241 121 l 1,17,-1
 863.341 121 l 1,18,-1
 962.179 686 l 2,19,20
 985.804 821 985.804 821 963.934 873.5 c 0,21,22
 942.069 926 942.069 926 865.569 926 c 0,23,24
 769.27 926 769.27 926 710.536 847.5 c 0,25,26
 651.803 769 651.803 769 621.888 598 c 2,27,-1
 517.272 0 l 1,28,-1
 516.373 0 l 1,29,-1
 494.505 -125 l 2,30,31
 465.988 -288.003 465.988 -288.003 347.432 -371.5 c 0,32,33
 228.871 -455 228.871 -455 26.374 -455 c 0,34,35
 -27.626 -455 -27.626 -455 -87.0762 -445 c 0,36,37
 -146.527 -435 -146.527 -435 -208.903 -416 c 1,38,-1
 -169.541 -191 l 1,39,-1
 -67.8418 -191 l 1,40,41
 -80.0361 -271 -80.0361 -271 -59.6963 -306.5 c 0,42,43
 -39.3584 -342 -39.3584 -342 20.042 -342 c 0,44,45
 85.7422 -342 85.7422 -342 120.065 -295 c 0,46,47
 154.402 -247.91 154.402 -247.91 175.904 -125 c 2,48,-1
 247.631 285 l 1,49,-1
 363.469 942 l 1,0,-1
EndSplineSet
EndChar
StartChar: uni0273
Encoding: 627 627 627
Width: 1418
Flags: W
Fore
85.6836 0 m 1,0,-1
 106.852 121 l 1,1,-1
 242.752 121 l 1,2,-1
 386.379 942 l 1,3,-1
 250.479 942 l 1,4,-1
 271.646 1063 l 1,5,-1
 726.146 1063 l 1,6,-1
 699.906 913 l 1,7,8
 774.125 1008 774.125 1008 855.272 1050 c 0,9,10
 936.421 1092 936.421 1092 1048.92 1092 c 0,11,12
 1210.02 1092 1210.02 1092 1273.92 986.5 c 0,13,14
 1337.81 881 1337.81 881 1301.94 676 c 2,15,-1
 1183.68 0 l 1,16,-1
 1181.88 0 l 1,17,-1
 1160.01 -125 l 2,18,19
 1138.51 -247.91 1138.51 -247.91 1156.38 -295 c 0,20,21
 1174.25 -342 1174.25 -342 1239.95 -342 c 0,22,23
 1299.35 -342 1299.35 -342 1332.11 -306.5 c 0,24,25
 1364.87 -271 1364.87 -271 1380.67 -191 c 1,26,-1
 1482.37 -191 l 1,27,-1
 1443.01 -416 l 1,28,29
 1373.98 -435 1373.98 -435 1311.03 -445 c 0,30,31
 1248.09 -455 1248.09 -455 1194.09 -455 c 0,32,33
 991.588 -455 991.588 -455 902.243 -371.5 c 0,34,35
 812.898 -288.003 812.898 -288.003 841.415 -125 c 2,36,37
 904.437 234.626 l 2,38,39
 909.691 261.108 909.691 261.108 914.941 285 c 2,40,-1
 985.09 686 l 2,41,42
 1008.71 821 1008.71 821 986.845 873.5 c 0,43,44
 964.979 926 964.979 926 888.479 926 c 0,45,46
 792.18 926 792.18 926 733.447 847.5 c 0,47,48
 674.714 769 674.714 769 644.799 598 c 2,49,-1
 561.352 121 l 1,50,-1
 678.352 121 l 1,51,-1
 657.184 0 l 1,52,-1
 85.6836 0 l 1,0,-1
EndSplineSet
EndChar
StartChar: uni0274
Encoding: 628 628 628
Width: 1386
Flags: W
TeX: 0 0 0 0
Fore
95.4678 0 m 1,0,-1
 116.812 122 l 1,1,-1
 240.111 122 l 1,2,-1
 383.563 942 l 1,3,-1
 260.264 942 l 1,4,-1
 282.132 1067 l 1,5,-1
 582.731 1067 l 1,6,-1
 1023.47 443 l 1,7,-1
 1110.76 942 l 1,8,-1
 1018.06 942 l 1,9,-1
 1039.93 1067 l 1,10,-1
 1376.53 1067 l 1,11,-1
 1354.66 942 l 1,12,-1
 1231.36 942 l 1,13,-1
 1066.57 0 l 1,14,-1
 898.268 0 l 1,15,-1
 450.256 639 l 1,16,-1
 359.812 122 l 1,17,-1
 452.512 122 l 1,18,-1
 431.168 0 l 1,19,-1
 95.4678 0 l 1,0,-1
EndSplineSet
EndChar
StartChar: uni0275
Encoding: 629 629 629
Width: 1297
Flags: W
Fore
585.961 -29 m 0,0,1
 333.061 -29 333.061 -29 215.664 120.5 c 0,2,3
 98.2686 270 98.2686 270 144.104 532 c 0,4,5
 190.113 795 190.113 795 359.643 943.5 c 0,6,7
 529.171 1092 529.171 1092 782.07 1092 c 0,8,9
 1035.87 1092 1035.87 1092 1152.99 943.5 c 0,10,11
 1270.11 795 1270.11 795 1224.11 532 c 0,12,13
 1178.27 270 1178.27 270 1008.56 120.5 c 0,14,15
 838.86 -29 838.86 -29 585.961 -29 c 0,0,1
605.729 84 m 0,16,17
 706.529 84 706.529 84 764.274 180 c 0,18,19
 815.833 265.718 815.833 265.718 857.062 479 c 1,20,-1
 490.813 479 l 1,21,22
 457.805 267.531 457.805 267.531 479.599 181 c 0,23,24
 504.029 84 504.029 84 605.729 84 c 0,16,17
512.311 600 m 1,25,-1
 877.918 600 l 1,26,27
 908.285 801.261 908.285 801.261 887.796 883.5 c 0,28,29
 864.002 979 864.002 979 762.302 979 c 0,30,31
 660.603 979 660.603 979 602.321 882.5 c 0,32,33
 552.193 799.503 552.193 799.503 512.311 600 c 1,25,-1
EndSplineSet
EndChar
StartChar: uni0276
Encoding: 630 630 630
Width: 2068
Flags: W
TeX: 0 0 0 0
Fore
960.045 86.5146 m 1,0,-1
 1116.52 980.98 l 1,1,-1
 1002.23 980.98 l 2,2,3
 926.941 980.98 926.941 980.98 841.956 924 c 128,-1,4
 652.312 796.847 652.312 796.847 606.474 534.82 c 0,5,6
 563.713 290.392 563.713 290.392 694.702 144 c 128,-1,7
 746.14 86.5146 746.14 86.5146 845.745 86.5146 c 2,8,-1
 960.045 86.5146 l 1,0,-1
1871.91 0 m 1,9,-1
 949.41 0 l 2,10,11
 763.111 0 763.111 0 644.413 18.5898 c 128,-1,12
 525.715 37.1797 525.715 37.1797 441.944 77.9346 c 1,13,14
 311.402 139.425 311.402 139.425 256.116 258.115 c 128,-1,15
 200.83 376.805 200.83 376.805 228.474 534.82 c 0,16,17
 255.991 692.12 255.991 692.12 352.617 809.737 c 128,-1,18
 449.244 927.355 449.244 927.355 601.427 989.56 c 1,19,20
 698.681 1031.03 698.681 1031.03 822.471 1049.26 c 128,-1,21
 946.265 1067.5 946.265 1067.5 1136.16 1067.5 c 2,22,-1
 2042.46 1067.5 l 1,23,-1
 1998.43 815.814 l 1,24,-1
 1875.13 815.814 l 1,25,-1
 1902.03 969.54 l 1,26,-1
 1462.83 969.54 l 1,27,-1
 1402.91 627.055 l 1,28,-1
 1627.91 627.055 l 1,29,-1
 1651.67 762.905 l 1,30,-1
 1774.97 762.905 l 1,31,-1
 1710.43 393.965 l 1,32,-1
 1587.13 393.965 l 1,33,-1
 1610.9 529.815 l 1,34,-1
 1385.9 529.815 l 1,35,-1
 1310.35 97.9551 l 1,36,-1
 1765.75 97.9551 l 1,37,-1
 1792.64 251.68 l 1,38,-1
 1915.94 251.68 l 1,39,-1
 1871.91 0 l 1,9,-1
EndSplineSet
EndChar
StartChar: uni0277
Encoding: 631 631 631
Width: 1454
Flags: W
TeX: 0 0 0 0
Fore
871.353 529 m 17,0,0
 864.355 489 l 2,32,33
 843.361 369 843.361 369 860.007 263 c 128,-1,34
 889.714 66 889.714 66 917.142 66 c 0,35,36
 999.135 65.9951 999.135 65.9951 1060.92 430 c 0,3,4
 1090.29 603 1090.29 603 1070.35 772 c 1,0,0
 1022.01 969 1022.01 969 836.415 973 c 0,0,0
 657.114 977 657.114 977 534.851 772 c 1,0,0
 455.786 603 455.786 603 424.621 430 c 0,3,4
 360.941 66 360.941 66 441.041 66 c 0,35,36
 467.239 66 467.239 66 567.103 263 c 128,-1,34
 620.836 369 620.836 369 641.83 489 c 2,32,33
 648.827 529 l 1,31,-1
 871.353 529 l 17,0,0
713.51 272 m 1,9,10
 662.748 130 662.748 130 572.072 50 c 128,-1,8
 481.572 -29 481.572 -29 370.332 -29 c 0,6,7
 218.052 -29 218.052 -29 154.484 83 c 128,-1,5
 90.7441 194 90.7441 194 126.782 400 c 0,3,4
 140.604 479 140.604 479 175.294 560 c 128,-1,2
 219.758 666 219.758 666 263.908 727 c 0,0,0
 523.097 1085 523.097 1085 855.737 1085 c 0,0,0
 1191.62 1085 1191.62 1085 1325.55 727 c 0,0,0
 1348.35 666 1348.35 666 1355.73 560 c 128,-1,2
 1362.09 479 1362.09 479 1348.26 400 c 0,3,4
 1312.23 194 1312.23 194 1209.65 83 c 128,-1,5
 1106.89 -29 1106.89 -29 954.612 -29 c 0,6,7
 843.372 -29 843.372 -29 780.512 50 c 128,-1,8
 717.827 130 717.827 130 713.51 272 c 1,9,10
EndSplineSet
EndChar
StartChar: uni0278
Encoding: 632 632 632
Width: 1297
Flags: W
TeX: 0 0 0 0
Fore
558.004 1556 m 1,0,-1
 1149.3 1556 l 1,1,-1
 1128.13 1435 l 1,2,-1
 952.299 1435 l 1,3,-1
 891.041 1085.61 l 1,4,5
 1097.16 1061.19 1097.16 1061.19 1206.99 943.5 c 0,6,7
 1345.57 795 1345.57 795 1299.57 532 c 0,8,9
 1253.73 270 1253.73 270 1062.5 120.5 c 0,10,11
 910.905 1.99805 910.905 1.99805 696.745 -22.5723 c 1,12,-1
 645.474 -315 l 1,13,-1
 821.986 -315 l 1,14,-1
 800.818 -436 l 1,15,-1
 209.519 -436 l 1,16,-1
 230.687 -315 l 1,17,-1
 406.524 -315 l 1,18,-1
 457.867 -21.5146 l 1,19,20
 258.496 4.45312 258.496 4.45312 150.657 120.5 c 0,21,22
 11.7285 270 11.7285 270 57.5635 532 c 0,23,24
 103.573 795 103.573 795 294.634 943.5 c 0,25,26
 442.941 1058.77 442.941 1058.77 651.366 1084.56 c 1,27,-1
 712.674 1435 l 1,28,-1
 536.836 1435 l 1,29,-1
 558.004 1556 l 1,0,-1
481.479 113.457 m 1,30,-1
 627.772 949.695 l 1,31,32
 582.944 925.822 582.944 925.822 550.787 882.5 c 0,33,34
 479.151 785.998 479.151 785.998 434.717 532 c 0,35,36
 390.282 278.002 390.282 278.002 428.064 181 c 0,37,38
 445.025 137.454 445.025 137.454 481.479 113.457 c 1,30,-1
868.059 954.532 m 1,39,-1
 719.78 108.817 l 1,40,41
 769.726 132.81 769.726 132.81 804.604 180 c 0,42,43
 875.554 276 875.554 276 920.34 532 c 0,44,45
 965.125 788 965.125 788 928.271 883.5 c 0,46,47
 910.07 930.661 910.07 930.661 868.059 954.532 c 1,39,-1
EndSplineSet
EndChar
StartChar: uni0279
Encoding: 633 633 633
Width: 1110
Flags: W
Fore
18.1211 -12 m 1,0,-1
 73.5771 305 l 1,1,-1
 175.277 305 l 1,2,3
 165.809 220 165.809 220 194.547 178.5 c 128,-1,4
 223.287 137 223.287 137 291.688 137 c 0,5,6
 396.088 137 396.088 137 474.23 239 c 128,-1,7
 552.375 341 552.375 341 584.04 522 c 2,8,-1
 657.515 942 l 1,9,-1
 483.815 942 l 1,10,-1
 504.984 1063 l 1,11,-1
 1133.18 1063 l 1,12,-1
 1112.01 942 l 1,13,-1
 976.114 942 l 1,14,-1
 832.487 121 l 1,15,-1
 978.292 121 l 1,16,-1
 957.12 0 l 1,17,-1
 492.721 0 l 1,18,-1
 525.784 189 l 1,19,20
 459.565 78 459.565 78 373.257 24.5 c 128,-1,21
 286.946 -29 286.946 -29 175.347 -29 c 0,22,23
 147.446 -29 147.446 -29 108.184 -24.5 c 128,-1,24
 68.9219 -20 68.9219 -20 18.1211 -12 c 1,0,-1
EndSplineSet
EndChar
StartChar: uni027A
Encoding: 634 634 634
Width: 1110
Flags: W
Fore
-25.0898 -12 m 1,0,-1
 30.3662 305 l 1,1,-1
 132.066 305 l 1,2,3
 122.596 220 122.596 220 151.336 178.5 c 128,-1,4
 180.077 137 180.077 137 248.477 137 c 0,5,6
 352.877 137 352.877 137 431.021 239 c 128,-1,7
 509.522 343.047 509.522 343.047 540.829 522 c 2,8,-1
 700.727 1436 l 1,9,-1
 527.026 1436 l 1,10,-1
 548.194 1557 l 1,11,-1
 1176.39 1557 l 1,12,-1
 1155.22 1436 l 1,13,-1
 1019.32 1436 l 1,14,-1
 789.277 121 l 1,15,-1
 935.077 121 l 1,16,-1
 913.909 0 l 1,17,-1
 449.509 0 l 1,18,-1
 482.573 189 l 1,19,20
 416.354 78 416.354 78 330.046 24.5 c 128,-1,21
 243.735 -29 243.735 -29 132.136 -29 c 0,22,23
 104.235 -29 104.235 -29 64.9736 -24.5 c 128,-1,24
 25.71 -20 25.71 -20 -25.0898 -12 c 1,0,-1
EndSplineSet
EndChar
StartChar: uni027B
Encoding: 635 635 635
Width: 1114
Flags: W
Fore
59.5234 -12 m 1,0,-1
 114.98 305 l 1,1,-1
 216.68 305 l 1,2,3
 207.21 220 207.21 220 235.95 178.5 c 0,4,5
 264.689 137 264.689 137 333.09 137 c 0,6,7
 437.489 137 437.489 137 515.634 239 c 0,8,9
 593.778 341 593.778 341 625.442 522 c 2,10,-1
 698.919 942 l 1,11,-1
 525.219 942 l 1,12,-1
 546.386 1063 l 1,13,-1
 1174.58 1063 l 1,14,-1
 1153.41 942 l 1,15,-1
 1017.51 942 l 1,16,-1
 831.755 -125 l 2,17,18
 810.253 -247.91 810.253 -247.91 828.114 -295 c 0,19,20
 845.993 -342 845.993 -342 911.693 -342 c 0,21,22
 971.092 -342 971.092 -342 1003.85 -306.5 c 0,23,24
 1036.61 -271 1036.61 -271 1052.41 -191 c 1,25,-1
 1154.11 -191 l 1,26,-1
 1114.75 -416 l 1,27,28
 1045.72 -435 1045.72 -435 982.774 -445 c 0,29,30
 919.824 -455 919.824 -455 865.825 -455 c 0,31,32
 663.328 -455 663.328 -455 573.981 -371.5 c 0,33,34
 484.639 -288.003 484.639 -288.003 513.155 -125 c 2,35,-1
 535.022 0 l 1,36,-1
 534.122 0 l 1,37,-1
 567.187 189 l 1,38,39
 500.969 78 500.969 78 414.659 24.5 c 0,40,41
 328.35 -29 328.35 -29 216.749 -29 c 0,42,43
 188.85 -29 188.85 -29 149.587 -24.5 c 0,44,45
 110.324 -20 110.324 -20 59.5234 -12 c 1,0,-1
EndSplineSet
EndChar
StartChar: uni027C
Encoding: 636 636 636
Width: 1029
Flags: W
Fore
1177.97 1075 m 1,0,-1
 1122.51 758 l 1,1,-1
 1020.81 758 l 1,2,3
 1030.28 843 1030.28 843 1001.54 884.5 c 128,-1,4
 972.798 926 972.798 926 904.4 926 c 0,5,6
 800.001 926 800.001 926 721.856 824 c 128,-1,7
 643.354 719.953 643.354 719.953 612.048 541 c 2,8,-1
 464.397 -303 l 1,9,-1
 638.097 -303 l 1,10,-1
 616.929 -424 l 1,11,-1
 -11.2705 -424 l 1,12,-1
 9.89648 -303 l 1,13,-1
 145.797 -303 l 1,14,-1
 363.601 942 l 1,15,-1
 217.801 942 l 1,16,-1
 238.968 1063 l 1,17,-1
 703.368 1063 l 1,18,-1
 670.305 874 l 1,19,20
 736.522 985 736.522 985 822.832 1038.5 c 128,-1,21
 909.141 1092 909.141 1092 1020.74 1092 c 0,22,23
 1048.64 1092 1048.64 1092 1087.91 1087.5 c 128,-1,24
 1127.17 1083 1127.17 1083 1177.97 1075 c 1,0,-1
EndSplineSet
EndChar
StartChar: uni027D
Encoding: 637 637 637
Width: 1039
Flags: W
Fore
1191.05 1075 m 1,0,-1
 1135.6 758 l 1,1,-1
 1033.9 758 l 1,2,3
 1043.36 843 1043.36 843 1014.63 884.5 c 0,4,5
 985.89 926 985.89 926 917.486 926 c 0,6,7
 813.086 926 813.086 926 734.941 824 c 0,8,9
 656.799 722 656.799 722 625.134 541 c 2,10,-1
 530.49 0 l 1,11,-1
 508.622 -125 l 2,12,13
 487.12 -247.91 487.12 -247.91 504.982 -295 c 0,14,15
 522.858 -342 522.858 -342 588.559 -342 c 0,16,17
 647.959 -342 647.959 -342 680.721 -306.5 c 0,18,19
 713.48 -271 713.48 -271 729.275 -191 c 1,20,-1
 830.976 -191 l 1,21,-1
 791.614 -416 l 1,22,23
 722.59 -435 722.59 -435 659.641 -445 c 0,24,25
 596.69 -455 596.69 -455 542.69 -455 c 0,26,27
 340.193 -455 340.193 -455 250.849 -371.5 c 0,28,29
 161.505 -288.003 161.505 -288.003 190.021 -125 c 2,30,-1
 211.89 0 l 1,31,-1
 376.686 942 l 1,32,-1
 230.885 942 l 1,33,-1
 252.053 1063 l 1,34,-1
 716.453 1063 l 1,35,-1
 683.39 874 l 1,36,37
 749.608 985 749.608 985 835.917 1038.5 c 0,38,39
 922.228 1092 922.228 1092 1033.82 1092 c 0,40,41
 1061.72 1092 1061.72 1092 1100.99 1087.5 c 0,42,43
 1140.25 1083 1140.25 1083 1191.05 1075 c 1,0,-1
EndSplineSet
EndChar
